<?xml version="1.0" encoding="utf-8"?>
<!-- Generator: Adobe Illustrator 22.1.0, SVG Export Plug-In . SVG Version: 6.00 Build 0)  -->
<svg version="1.1"
	 id="svg2" inkscape:version="0.91 r13725" sodipodi:docname="cc-heart_k.svg" xmlns:cc="http://creativecommons.org/ns#" xmlns:dc="http://purl.org/dc/elements/1.1/" xmlns:inkscape="http://www.inkscape.org/namespaces/inkscape" xmlns:rdf="http://www.w3.org/1999/02/22-rdf-syntax-ns#" xmlns:sodipodi="http://sodipodi.sourceforge.net/DTD/sodipodi-0.dtd" xmlns:svg="http://www.w3.org/2000/svg"
	 xmlns="http://www.w3.org/2000/svg" xmlns:xlink="http://www.w3.org/1999/xlink" x="0px" y="0px" viewBox="0 0 276.9 243.4"
	 style="enable-background:new 0 0 276.9 243.4;" xml:space="preserve">
<style type="text/css">
	.st0{fill:none;stroke:#AAAAAA;stroke-width:160;stroke-miterlimit:10;}
	.st1{fill:#AAAAAA;}
</style>
<sodipodi:namedview  bordercolor="#666666" borderopacity="1" gridtolerance="10" guidetolerance="10" id="namedview4" inkscape:current-layer="g12" inkscape:cx="138.46249" inkscape:cy="121.675" inkscape:pageopacity="0" inkscape:pageshadow="2" inkscape:window-height="480" inkscape:window-maximized="0" inkscape:window-width="640" inkscape:window-x="740" inkscape:window-y="395" inkscape:zoom="0.96979656" objecttolerance="10" pagecolor="#ffffff" showgrid="false">
	</sodipodi:namedview>
<g id="g10" transform="matrix(1.25,0,0,-1.25,0,243.35)" inkscape:groupmode="layer" inkscape:label="ink_ext_XXXXXX">
	<g id="g12" transform="scale(0.1,0.1)">
		<path id="path14" inkscape:connector-curvature="0" class="st0" d="M1530.8,1866.8c-165.1-0.1-314.7-66.8-423.5-174.4
			c-109.1,107.2-258.9,173.5-424.1,173.3C349.7,1865.4,79.7,1594.5,80,1261C81,494.7,1109.2,86.1,1109.2,86.1
			s1027.4,411,1026.2,1177.6C2135,1597.2,1864.4,1867.2,1530.8,1866.8L1530.8,1866.8z"/>
		<path id="path16" inkscape:connector-curvature="0" class="st1" d="M1758.6,1272.3l-150.7-79.2c-16.3,33.8-36.4,57.5-60.1,71
			c-23.8,13.5-46.6,20.3-68.3,20.3c-101.8,0-152.8-67-152.8-200.9c0-60.9,12.9-109.6,38.7-146.1c25.8-36.5,63.8-54.8,114.1-54.8
			c66.5,0,113.4,32.5,140.6,97.4l142.6-71c-31.2-55.5-73.3-99.1-126.3-130.9c-52.9-31.8-110.7-47.7-173.2-47.7
			c-103.2,0-185.8,31.1-247.5,93.4c-61.8,62.2-92.7,148.8-92.7,259.7c0,108.2,31.6,194.1,94.8,257.7
			c63.2,63.6,142.9,95.4,239.4,95.4C1598.4,1436.6,1698.9,1381.8,1758.6,1272.3L1758.6,1272.3z M1100.6,1272.3l-152.8-79.2
			c-16.3,33.8-36.4,57.5-60.1,71c-23.8,13.5-45.8,20.3-66.2,20.3c-101.9,0-152.8-67-152.8-200.9c0-60.9,12.9-109.6,38.7-146.1
			s63.8-54.8,114.1-54.8c66.5,0,113.4,32.5,140.6,97.4l140.6-71c-29.9-55.5-71.3-99.1-124.3-130.9c-53-31.8-111.4-47.7-175.2-47.7
			c-101.8,0-184,31.1-246.5,93.4C494.2,886,463,972.6,463,1083.5c0,108.2,31.6,194.1,94.7,257.7s142.9,95.4,239.4,95.4
			C938.3,1436.6,1039.5,1381.8,1100.6,1272.3"/>
	</g>
</g>
</svg>
