<svg version="1.1" viewBox="0.0 0.0 600.0 371.0" fill="none" stroke="none" stroke-linecap="square" stroke-miterlimit="10" width="600" height="371" xmlns:xlink="http://www.w3.org/1999/xlink" xmlns="http://www.w3.org/2000/svg"><path fill="#ffffff" d="M0 0L600.0 0L600.0 371.0L0 371.0L0 0Z" fill-rule="nonzero"/><path fill="#4285f4" d="M300.0 54.916668C381.36154 54.916668 447.63058 120.27811 448.75253 201.63191C449.87445 282.98572 385.43304 350.14978 304.10245 352.39343L300.0 203.68333Z" fill-rule="nonzero"/><path fill="#46bdc6" d="M292.5432 55.10367C295.02686 54.97902 297.5132 54.916668 300.0 54.916668L300.0 203.68333Z" fill-rule="nonzero"/><path fill="#ff6d01" d="M273.2899 57.33412C279.65237 56.172913 286.08377 55.42785 292.5432 55.10367L300.0 203.68333Z" fill-rule="nonzero"/><path fill="#34a853" d="M252.01132 62.869247C258.95795 60.501873 266.07022 58.651783 273.2899 57.33412L300.0 203.68333Z" fill-rule="nonzero"/><path fill="#fbbc04" d="M180.50603 115.06782C198.49165 90.81502 223.43134 72.609146 252.01132 62.869247L300.0 203.68333Z" fill-rule="nonzero"/><path fill="#ea4335" d="M304.10245 352.39343C247.18077 353.9637 194.35661 322.90387 168.05432 272.3991C141.75201 221.89433 146.58672 160.80646 180.50603 115.06782L300.0 203.68333Z" fill-rule="nonzero"/><path fill="#1a1a1a" d="M19.425 65.916664L19.425 57.322914L20.565624 57.322914L20.565624 64.90104L24.8 64.90104L24.8 65.916664L19.425 65.916664ZM26.346874 58.541664L26.346874 57.322914L27.409374 57.322914L27.409374 58.541664L26.346874 58.541664ZM26.346874 65.916664L26.346874 59.697914L27.409374 59.697914L27.409374 65.916664L26.346874 65.916664ZM29.346874 65.916664L29.346874 59.697914L30.284374 59.697914L30.284374 60.572914Q30.971874 59.55729 32.26875 59.55729Q32.83125 59.55729 33.3 59.760414Q33.784374 59.96354 34.01875 60.291664Q34.253124 60.61979 34.346874 61.05729Q34.39375 61.354164 34.39375 62.08854L34.39375 65.916664L33.346874 65.916664L33.346874 62.135414Q33.346874 61.479164 33.221874 61.166664Q33.096874 60.854164 32.784374 60.666664Q32.471874 60.46354 32.05 60.46354Q31.378124 60.46354 30.878124 60.90104Q30.39375 61.322914 30.39375 62.510414L30.39375 65.916664L29.346874 65.916664ZM36.346874 65.916664L36.346874 57.322914L37.409374 57.322914L37.409374 62.229164L39.89375 59.697914L41.26875 59.697914L38.878124 61.99479L41.503124 65.916664L40.20625 65.916664L38.14375 62.729164L37.409374 63.447914L37.409374 65.916664L36.346874 65.916664ZM46.596874 63.916664L47.690624 64.041664Q47.440624 64.99479 46.7375 65.52604Q46.034374 66.05729 44.95625 66.05729Q43.596874 66.05729 42.784374 65.21354Q41.9875 64.36979 41.9875 62.854164Q41.9875 61.291664 42.8 60.43229Q43.6125 59.55729 44.89375 59.55729Q46.14375 59.55729 46.925 60.40104Q47.721874 61.24479 47.721874 62.791664Q47.721874 62.885414 47.721874 63.072914L43.08125 63.072914Q43.14375 64.104164 43.659374 64.65104Q44.175 65.18229 44.95625 65.18229Q45.534374 65.18229 45.940624 64.885414Q46.3625 64.572914 46.596874 63.916664ZM43.14375 62.21354L46.6125 62.21354Q46.55 61.416664 46.221874 61.02604Q45.70625 60.416664 44.909374 60.416664Q44.175 60.416664 43.675 60.90104Q43.190624 61.385414 43.14375 62.21354ZM53.378124 65.916664L53.378124 65.135414Q52.784374 66.05729 51.64375 66.05729Q50.89375 66.05729 50.26875 65.65104Q49.64375 65.229164 49.3 64.49479Q48.95625 63.760414 48.95625 62.80729Q48.95625 61.885414 49.26875 61.11979Q49.58125 60.354164 50.20625 59.96354Q50.83125 59.55729 51.596874 59.55729Q52.159374 59.55729 52.596874 59.791664Q53.034374 60.02604 53.315624 60.40104L53.315624 57.322914L54.3625 57.322914L54.3625 65.916664L53.378124 65.916664ZM50.05 62.80729Q50.05 64.010414 50.55 64.604164Q51.05 65.18229 51.7375 65.18229Q52.425 65.18229 52.909374 64.61979Q53.39375 64.05729 53.39375 62.90104Q53.39375 61.61979 52.89375 61.02604Q52.409374 60.43229 51.690624 60.43229Q50.9875 60.43229 50.51875 61.010414Q50.05 61.572914 50.05 62.80729ZM56.346874 58.541664L56.346874 57.322914L57.409374 57.322914L57.409374 58.541664L56.346874 58.541664ZM56.346874 65.916664L56.346874 59.697914L57.409374 59.697914L57.409374 65.916664L56.346874 65.916664ZM59.346874 65.916664L59.346874 59.697914L60.284374 59.697914L60.284374 60.572914Q60.971874 59.55729 62.26875 59.55729Q62.83125 59.55729 63.3 59.760414Q63.784374 59.96354 64.01875 60.291664Q64.25313 60.61979 64.34688 61.05729Q64.39375 61.354164 64.39375 62.08854L64.39375 65.916664L63.346874 65.916664L63.346874 62.135414Q63.346874 61.479164 63.221874 61.166664Q63.096874 60.854164 62.784374 60.666664Q62.471874 60.46354 62.05 60.46354Q61.378124 60.46354 60.878124 60.90104Q60.39375 61.322914 60.39375 62.510414L60.39375 65.916664L59.346874 65.916664Z" fill-rule="nonzero"/><path fill="#9e9e9e" d="M24.596874 81.90104L24.596874 82.916664L18.909374 82.916664Q18.909374 82.541664 19.034374 82.18229Q19.253124 81.604164 19.721874 81.041664Q20.20625 80.479164 21.1125 79.74479Q22.51875 78.58854 23.003124 77.916664Q23.503124 77.24479 23.503124 76.65104Q23.503124 76.02604 23.05 75.604164Q22.596874 75.166664 21.878124 75.166664Q21.1125 75.166664 20.659374 75.61979Q20.20625 76.072914 20.190624 76.885414L19.1125 76.77604Q19.221874 75.55729 19.940624 74.93229Q20.675 74.291664 21.909374 74.291664Q23.14375 74.291664 23.8625 74.979164Q24.58125 75.666664 24.58125 76.68229Q24.58125 77.197914 24.3625 77.697914Q24.159374 78.18229 23.659374 78.74479Q23.175 79.291664 22.05 80.24479Q21.096874 81.041664 20.815624 81.33854Q20.55 81.61979 20.378124 81.90104L24.596874 81.90104ZM26.6125 82.916664L26.6125 81.71354L27.815624 81.71354L27.815624 82.916664Q27.815624 83.572914 27.58125 83.979164Q27.346874 84.40104 26.846874 84.61979L26.55 84.166664Q26.878124 84.02604 27.034374 83.729164Q27.190624 83.447914 27.221874 82.916664L26.6125 82.916664ZM32.425 82.916664L32.425 80.854164L28.70625 80.854164L28.70625 79.885414L32.628124 74.322914L33.4875 74.322914L33.4875 79.885414L34.64375 79.885414L34.64375 80.854164L33.4875 80.854164L33.4875 82.916664L32.425 82.916664ZM32.425 79.885414L32.425 76.02604L29.7375 79.885414L32.425 79.885414ZM36.253124 76.385414Q36.253124 75.46354 36.70625 74.822914Q37.175 74.18229 38.05 74.18229Q38.8625 74.18229 39.39375 74.760414Q39.925 75.33854 39.925 76.447914Q39.925 77.541664 39.378124 78.135414Q38.846874 78.71354 38.065624 78.71354Q37.284374 78.71354 36.76875 78.135414Q36.253124 77.55729 36.253124 76.385414ZM38.08125 74.90104Q37.690624 74.90104 37.425 75.24479Q37.175 75.58854 37.175 76.49479Q37.175 77.322914 37.425 77.666664Q37.690624 77.99479 38.08125 77.99479Q38.4875 77.99479 38.7375 77.65104Q39.003124 77.30729 39.003124 76.416664Q39.003124 75.572914 38.7375 75.24479Q38.471874 74.90104 38.08125 74.90104ZM38.08125 83.229164L42.784374 74.18229L43.64375 74.18229L38.95625 83.229164L38.08125 83.229164ZM41.8 80.90104Q41.8 79.979164 42.253124 79.33854Q42.721874 78.697914 43.6125 78.697914Q44.425 78.697914 44.95625 79.27604Q45.4875 79.83854 45.4875 80.96354Q45.4875 82.05729 44.940624 82.65104Q44.409374 83.229164 43.6125 83.229164Q42.846874 83.229164 42.315624 82.65104Q41.8 82.072914 41.8 80.90104ZM43.64375 79.416664Q43.2375 79.416664 42.971874 79.760414Q42.721874 80.104164 42.721874 81.010414Q42.721874 81.822914 42.9875 82.166664Q43.253124 82.510414 43.64375 82.510414Q44.034374 82.510414 44.3 82.166664Q44.565624 81.822914 44.565624 80.916664Q44.565624 80.08854 44.3 79.760414Q44.034374 79.416664 43.64375 79.416664Z" fill-rule="nonzero"/><path stroke="#757575" stroke-width="1.0" stroke-linecap="butt" d="M18.55 70.416664L145.23334 70.416664L264.4208 66.90681" fill-rule="nonzero"/><path fill="#9e9e9e" d="M266.4208 66.90681C266.4208 65.80224 265.52536 64.90681 264.4208 64.90681C263.31622 64.90681 262.4208 65.80224 262.4208 66.90681C262.4208 68.011375 263.31622 68.90681 264.4208 68.90681C265.52536 68.90681 266.4208 68.011375 266.4208 66.90681" fill-rule="nonzero"/><path fill="#1a1a1a" d="M19.534374 96.916664L19.534374 88.322914L25.33125 88.322914L25.33125 89.33854L20.675 89.33854L20.675 91.99479L24.70625 91.99479L24.70625 93.010414L20.675 93.010414L20.675 96.916664L19.534374 96.916664ZM30.409374 96.15104Q29.815624 96.65104 29.26875 96.854164Q28.7375 97.05729 28.1125 97.05729Q27.08125 97.05729 26.534374 96.55729Q25.9875 96.05729 25.9875 95.27604Q25.9875 94.822914 26.190624 94.447914Q26.39375 94.05729 26.7375 93.83854Q27.08125 93.604164 27.503124 93.49479Q27.8 93.40104 28.440624 93.322914Q29.70625 93.18229 30.315624 92.96354Q30.315624 92.74479 30.315624 92.697914Q30.315624 92.041664 30.01875 91.77604Q29.6125 91.43229 28.815624 91.43229Q28.08125 91.43229 27.721874 91.697914Q27.3625 91.947914 27.190624 92.604164L26.159374 92.46354Q26.3 91.80729 26.628124 91.40104Q26.95625 90.99479 27.565624 90.77604Q28.175 90.55729 28.971874 90.55729Q29.76875 90.55729 30.26875 90.74479Q30.76875 90.93229 31.003124 91.21354Q31.2375 91.49479 31.33125 91.93229Q31.378124 92.197914 31.378124 92.90104L31.378124 94.30729Q31.378124 95.77604 31.440624 96.166664Q31.51875 96.55729 31.721874 96.916664L30.6125 96.916664Q30.45625 96.58854 30.409374 96.15104ZM30.315624 93.791664Q29.7375 94.02604 28.596874 94.197914Q27.940624 94.291664 27.675 94.416664Q27.409374 94.52604 27.253124 94.74479Q27.1125 94.96354 27.1125 95.24479Q27.1125 95.666664 27.425 95.947914Q27.753124 96.229164 28.3625 96.229164Q28.971874 96.229164 29.440624 95.96354Q29.925 95.697914 30.14375 95.229164Q30.315624 94.86979 30.315624 94.18229L30.315624 93.791664ZM37.409374 94.635414L38.440624 94.77604Q38.26875 95.83854 37.565624 96.447914Q36.8625 97.05729 35.846874 97.05729Q34.565624 97.05729 33.784374 96.229164Q33.01875 95.385414 33.01875 93.822914Q33.01875 92.822914 33.346874 92.072914Q33.690624 91.30729 34.3625 90.93229Q35.05 90.55729 35.8625 90.55729Q36.8625 90.55729 37.503124 91.072914Q38.159374 91.572914 38.346874 92.52604L37.315624 92.68229Q37.175 92.05729 36.8 91.74479Q36.425 91.416664 35.89375 91.416664Q35.096874 91.416664 34.596874 91.99479Q34.096874 92.55729 34.096874 93.791664Q34.096874 95.05729 34.58125 95.61979Q35.065624 96.18229 35.83125 96.18229Q36.45625 96.18229 36.8625 95.80729Q37.284374 95.43229 37.409374 94.635414ZM43.596874 94.916664L44.690624 95.041664Q44.440624 95.99479 43.7375 96.52604Q43.034374 97.05729 41.95625 97.05729Q40.596874 97.05729 39.784374 96.21354Q38.9875 95.36979 38.9875 93.854164Q38.9875 92.291664 39.8 91.43229Q40.6125 90.55729 41.89375 90.55729Q43.14375 90.55729 43.925 91.40104Q44.721874 92.24479 44.721874 93.791664Q44.721874 93.885414 44.721874 94.072914L40.08125 94.072914Q40.14375 95.104164 40.659374 95.65104Q41.175 96.18229 41.95625 96.18229Q42.534374 96.18229 42.940624 95.885414Q43.3625 95.572914 43.596874 94.916664ZM40.14375 93.21354L43.6125 93.21354Q43.55 92.416664 43.221874 92.02604Q42.70625 91.416664 41.909374 91.416664Q41.175 91.416664 40.675 91.90104Q40.190624 92.385414 40.14375 93.21354ZM47.315624 96.916664L46.33125 96.916664L46.33125 88.322914L47.39375 88.322914L47.39375 91.385414Q48.065624 90.55729 49.096874 90.55729Q49.675 90.55729 50.175 90.791664Q50.690624 91.010414 51.01875 91.43229Q51.3625 91.854164 51.55 92.447914Q51.7375 93.041664 51.7375 93.71354Q51.7375 95.30729 50.940624 96.18229Q50.14375 97.05729 49.05 97.05729Q47.940624 97.05729 47.315624 96.135414L47.315624 96.916664ZM47.3 93.760414Q47.3 94.86979 47.6125 95.36979Q48.1125 96.18229 48.95625 96.18229Q49.64375 96.18229 50.14375 95.58854Q50.659374 94.99479 50.659374 93.791664Q50.659374 92.572914 50.175 91.99479Q49.690624 91.416664 49.003124 91.416664Q48.315624 91.416664 47.8 92.02604Q47.3 92.61979 47.3 93.760414ZM52.95625 93.80729Q52.95625 92.072914 53.909374 91.24479Q54.70625 90.55729 55.8625 90.55729Q57.14375 90.55729 57.95625 91.40104Q58.784374 92.229164 58.784374 93.71354Q58.784374 94.916664 58.425 95.604164Q58.065624 96.291664 57.3625 96.68229Q56.675 97.05729 55.8625 97.05729Q54.565624 97.05729 53.753124 96.229164Q52.95625 95.385414 52.95625 93.80729ZM54.034374 93.80729Q54.034374 94.99479 54.55 95.58854Q55.08125 96.18229 55.8625 96.18229Q56.659374 96.18229 57.175 95.58854Q57.690624 94.99479 57.690624 93.77604Q57.690624 92.61979 57.159374 92.02604Q56.64375 91.43229 55.8625 91.43229Q55.08125 91.43229 54.55 92.02604Q54.034374 92.604164 54.034374 93.80729ZM59.95625 93.80729Q59.95625 92.072914 60.909374 91.24479Q61.70625 90.55729 62.8625 90.55729Q64.14375 90.55729 64.95625 91.40104Q65.78438 92.229164 65.78438 93.71354Q65.78438 94.916664 65.425 95.604164Q65.06563 96.291664 64.3625 96.68229Q63.675 97.05729 62.8625 97.05729Q61.565624 97.05729 60.753124 96.229164Q59.95625 95.385414 59.95625 93.80729ZM61.034374 93.80729Q61.034374 94.99479 61.55 95.58854Q62.08125 96.18229 62.8625 96.18229Q63.659374 96.18229 64.175 95.58854Q64.69063 94.99479 64.69063 93.77604Q64.69063 92.61979 64.15938 92.02604Q63.64375 91.43229 62.8625 91.43229Q62.08125 91.43229 61.55 92.02604Q61.034374 92.604164 61.034374 93.80729ZM67.34688 96.916664L67.34688 88.322914L68.40938 88.322914L68.40938 93.229164L70.89375 90.697914L72.26875 90.697914L69.87813 92.99479L72.50313 96.916664L71.20625 96.916664L69.14375 93.729164L68.40938 94.447914L68.40938 96.916664L67.34688 96.916664Z" fill-rule="nonzero"/><path fill="#9e9e9e" d="M19.20625 111.93229L20.221874 111.83854Q20.346874 112.55729 20.70625 112.885414Q21.08125 113.197914 21.64375 113.197914Q22.128124 113.197914 22.4875 112.979164Q22.8625 112.74479 23.096874 112.385414Q23.33125 112.010414 23.4875 111.385414Q23.64375 110.74479 23.64375 110.08854Q23.64375 110.010414 23.64375 109.86979Q23.33125 110.36979 22.784374 110.697914Q22.2375 111.010414 21.596874 111.010414Q20.51875 111.010414 19.784374 110.24479Q19.05 109.46354 19.05 108.197914Q19.05 106.885414 19.815624 106.08854Q20.596874 105.291664 21.753124 105.291664Q22.58125 105.291664 23.26875 105.74479Q23.971874 106.197914 24.33125 107.041664Q24.690624 107.86979 24.690624 109.447914Q24.690624 111.08854 24.33125 112.072914Q23.9875 113.041664 23.26875 113.55729Q22.565624 114.05729 21.628124 114.05729Q20.6125 114.05729 19.971874 113.510414Q19.33125 112.947914 19.20625 111.93229ZM23.51875 108.135414Q23.51875 107.229164 23.034374 106.697914Q22.565624 106.166664 21.878124 106.166664Q21.175 106.166664 20.64375 106.74479Q20.128124 107.30729 20.128124 108.229164Q20.128124 109.041664 20.628124 109.55729Q21.128124 110.072914 21.846874 110.072914Q22.58125 110.072914 23.05 109.55729Q23.51875 109.041664 23.51875 108.135414ZM26.6125 113.916664L26.6125 112.71354L27.815624 112.71354L27.815624 113.916664Q27.815624 114.572914 27.58125 114.979164Q27.346874 115.40104 26.846874 115.61979L26.55 115.166664Q26.878124 115.02604 27.034374 114.729164Q27.190624 114.447914 27.221874 113.916664L26.6125 113.916664ZM34.51875 107.43229L33.471874 107.510414Q33.33125 106.885414 33.08125 106.604164Q32.64375 106.15104 32.01875 106.15104Q31.51875 106.15104 31.128124 106.43229Q30.64375 106.80729 30.346874 107.510414Q30.065624 108.197914 30.05 109.479164Q30.425 108.90104 30.971874 108.61979Q31.534374 108.33854 32.14375 108.33854Q33.190624 108.33854 33.925 109.11979Q34.675 109.90104 34.675 111.11979Q34.675 111.93229 34.315624 112.635414Q33.971874 113.322914 33.3625 113.697914Q32.753124 114.05729 31.9875 114.05729Q30.659374 114.05729 29.83125 113.08854Q29.003124 112.11979 29.003124 109.90104Q29.003124 107.40104 29.925 106.27604Q30.721874 105.291664 32.08125 105.291664Q33.096874 105.291664 33.7375 105.86979Q34.39375 106.43229 34.51875 107.43229ZM30.221874 111.135414Q30.221874 111.68229 30.440624 112.18229Q30.675 112.666664 31.08125 112.93229Q31.503124 113.197914 31.971874 113.197914Q32.628124 113.197914 33.1125 112.666664Q33.596874 112.11979 33.596874 111.197914Q33.596874 110.30729 33.1125 109.791664Q32.64375 109.27604 31.925 109.27604Q31.20625 109.27604 30.70625 109.791664Q30.221874 110.30729 30.221874 111.135414ZM36.253124 107.385414Q36.253124 106.46354 36.70625 105.822914Q37.175 105.18229 38.05 105.18229Q38.8625 105.18229 39.39375 105.760414Q39.925 106.33854 39.925 107.447914Q39.925 108.541664 39.378124 109.135414Q38.846874 109.71354 38.065624 109.71354Q37.284374 109.71354 36.76875 109.135414Q36.253124 108.55729 36.253124 107.385414ZM38.08125 105.90104Q37.690624 105.90104 37.425 106.24479Q37.175 106.58854 37.175 107.49479Q37.175 108.322914 37.425 108.666664Q37.690624 108.99479 38.08125 108.99479Q38.4875 108.99479 38.7375 108.65104Q39.003124 108.30729 39.003124 107.416664Q39.003124 106.572914 38.7375 106.24479Q38.471874 105.90104 38.08125 105.90104ZM38.08125 114.229164L42.784374 105.18229L43.64375 105.18229L38.95625 114.229164L38.08125 114.229164ZM41.8 111.90104Q41.8 110.979164 42.253124 110.33854Q42.721874 109.697914 43.6125 109.697914Q44.425 109.697914 44.95625 110.27604Q45.4875 110.83854 45.4875 111.96354Q45.4875 113.05729 44.940624 113.65104Q44.409374 114.229164 43.6125 114.229164Q42.846874 114.229164 42.315624 113.65104Q41.8 113.072914 41.8 111.90104ZM43.64375 110.416664Q43.2375 110.416664 42.971874 110.760414Q42.721874 111.104164 42.721874 112.010414Q42.721874 112.822914 42.9875 113.166664Q43.253124 113.510414 43.64375 113.510414Q44.034374 113.510414 44.3 113.166664Q44.565624 112.822914 44.565624 111.916664Q44.565624 111.08854 44.3 110.760414Q44.034374 110.416664 43.64375 110.416664Z" fill-rule="nonzero"/><path stroke="#757575" stroke-width="1.0" stroke-linecap="butt" d="M18.55 101.416664L145.23334 101.416664L216.6715 89.53405" fill-rule="nonzero"/><path fill="#9e9e9e" d="M218.6715 89.53405C218.6715 88.42948 217.77606 87.53405 216.6715 87.53405C215.56693 87.53405 214.6715 88.42948 214.6715 89.53405C214.6715 90.63862 215.56693 91.53405 216.6715 91.53405C217.77606 91.53405 218.6715 90.63862 218.6715 89.53405" fill-rule="nonzero"/><path fill="#1a1a1a" d="M19.440624 264.46332L19.440624 255.86957L21.159374 255.86957L23.190624 261.9477Q23.471874 262.80707 23.596874 263.22894Q23.7375 262.7602 24.05 261.85394L26.1125 255.86957L27.64375 255.86957L27.64375 264.46332L26.55 264.46332L26.55 257.27582L24.05 264.46332L23.01875 264.46332L20.534374 257.15082L20.534374 264.46332L19.440624 264.46332ZM32.409374 263.6977Q31.815624 264.1977 31.26875 264.40082Q30.7375 264.60394 30.1125 264.60394Q29.08125 264.60394 28.534374 264.10394Q27.9875 263.60394 27.9875 262.8227Q27.9875 262.36957 28.190624 261.99457Q28.39375 261.60394 28.7375 261.3852Q29.08125 261.15082 29.503124 261.04144Q29.8 260.9477 30.440624 260.86957Q31.70625 260.72894 32.315624 260.5102Q32.315624 260.29144 32.315624 260.24457Q32.315624 259.58832 32.01875 259.3227Q31.6125 258.97894 30.815624 258.97894Q30.08125 258.97894 29.721874 259.24457Q29.3625 259.49457 29.190624 260.15082L28.159374 260.0102Q28.3 259.35394 28.628124 258.9477Q28.95625 258.54144 29.565624 258.3227Q30.175 258.10394 30.971874 258.10394Q31.76875 258.10394 32.26875 258.29144Q32.76875 258.47894 33.003124 258.7602Q33.2375 259.04144 33.33125 259.47894Q33.378124 259.74457 33.378124 260.4477L33.378124 261.85394Q33.378124 263.3227 33.440624 263.71332Q33.51875 264.10394 33.721874 264.46332L32.6125 264.46332Q32.45625 264.1352 32.409374 263.6977ZM32.315624 261.33832Q31.7375 261.5727 30.596874 261.74457Q29.940624 261.83832 29.675 261.96332Q29.409374 262.0727 29.253124 262.29144Q29.1125 262.5102 29.1125 262.79144Q29.1125 263.21332 29.425 263.49457Q29.753124 263.77582 30.3625 263.77582Q30.971874 263.77582 31.440624 263.5102Q31.925 263.24457 32.14375 262.77582Q32.315624 262.41644 32.315624 261.72894L32.315624 261.33832ZM34.925 262.60394L35.95625 262.4477Q36.05 263.0727 36.440624 263.40082Q36.846874 263.72894 37.58125 263.72894Q38.3 263.72894 38.64375 263.4477Q39.003124 263.15082 39.003124 262.74457Q39.003124 262.3852 38.690624 262.18207Q38.471874 262.04144 37.6125 261.8227Q36.45625 261.52582 36.003124 261.3227Q35.565624 261.10394 35.33125 260.72894Q35.096874 260.35394 35.096874 259.8852Q35.096874 259.47894 35.284374 259.11957Q35.471874 258.7602 35.8 258.52582Q36.05 258.35394 36.471874 258.22894Q36.89375 258.10394 37.39375 258.10394Q38.1125 258.10394 38.659374 258.3227Q39.221874 258.52582 39.4875 258.8852Q39.753124 259.24457 39.846874 259.83832L38.815624 259.97894Q38.753124 259.5102 38.409374 259.24457Q38.08125 258.96332 37.45625 258.96332Q36.7375 258.96332 36.425 259.21332Q36.1125 259.4477 36.1125 259.77582Q36.1125 259.97894 36.2375 260.1352Q36.378124 260.30707 36.64375 260.41644Q36.8 260.47894 37.58125 260.68207Q38.70625 260.99457 39.14375 261.18207Q39.58125 261.36957 39.83125 261.72894Q40.08125 262.08832 40.08125 262.6352Q40.08125 263.16644 39.76875 263.6352Q39.471874 264.08832 38.89375 264.35394Q38.315624 264.60394 37.58125 264.60394Q36.3625 264.60394 35.721874 264.10394Q35.096874 263.58832 34.925 262.60394ZM44.64375 263.52582L44.8 264.4477Q44.346874 264.54144 44.003124 264.54144Q43.425 264.54144 43.1125 264.36957Q42.8 264.18207 42.659374 263.8852Q42.534374 263.58832 42.534374 262.6352L42.534374 259.05707L41.76875 259.05707L41.76875 258.24457L42.534374 258.24457L42.534374 256.6977L43.58125 256.0727L43.58125 258.24457L44.64375 258.24457L44.64375 259.05707L43.58125 259.05707L43.58125 262.6977Q43.58125 263.15082 43.628124 263.27582Q43.690624 263.40082 43.815624 263.47894Q43.940624 263.55707 44.175 263.55707Q44.3625 263.55707 44.64375 263.52582ZM44.95625 261.35394Q44.95625 259.61957 45.909374 258.79144Q46.70625 258.10394 47.8625 258.10394Q49.14375 258.10394 49.95625 258.9477Q50.784374 259.77582 50.784374 261.2602Q50.784374 262.46332 50.425 263.15082Q50.065624 263.83832 49.3625 264.22894Q48.675 264.60394 47.8625 264.60394Q46.565624 264.60394 45.753124 263.77582Q44.95625 262.93207 44.95625 261.35394ZM46.034374 261.35394Q46.034374 262.54144 46.55 263.1352Q47.08125 263.72894 47.8625 263.72894Q48.659374 263.72894 49.175 263.1352Q49.690624 262.54144 49.690624 261.3227Q49.690624 260.16644 49.159374 259.5727Q48.64375 258.97894 47.8625 258.97894Q47.08125 258.97894 46.55 259.5727Q46.034374 260.15082 46.034374 261.35394ZM56.378124 264.46332L56.378124 263.68207Q55.784374 264.60394 54.64375 264.60394Q53.89375 264.60394 53.26875 264.1977Q52.64375 263.77582 52.3 263.04144Q51.95625 262.30707 51.95625 261.35394Q51.95625 260.43207 52.26875 259.66644Q52.58125 258.90082 53.20625 258.5102Q53.83125 258.10394 54.596874 258.10394Q55.159374 258.10394 55.596874 258.33832Q56.034374 258.5727 56.315624 258.9477L56.315624 255.86957L57.3625 255.86957L57.3625 264.46332L56.378124 264.46332ZM53.05 261.35394Q53.05 262.55707 53.55 263.15082Q54.05 263.72894 54.7375 263.72894Q55.425 263.72894 55.909374 263.16644Q56.39375 262.60394 56.39375 261.4477Q56.39375 260.16644 55.89375 259.5727Q55.409374 258.97894 54.690624 258.97894Q53.9875 258.97894 53.51875 259.55707Q53.05 260.11957 53.05 261.35394ZM58.95625 261.35394Q58.95625 259.61957 59.909374 258.79144Q60.70625 258.10394 61.8625 258.10394Q63.14375 258.10394 63.95625 258.9477Q64.78438 259.77582 64.78438 261.2602Q64.78438 262.46332 64.425 263.15082Q64.06563 263.83832 63.3625 264.22894Q62.675 264.60394 61.8625 264.60394Q60.565624 264.60394 59.753124 263.77582Q58.95625 262.93207 58.95625 261.35394ZM60.034374 261.35394Q60.034374 262.54144 60.55 263.1352Q61.08125 263.72894 61.8625 263.72894Q62.659374 263.72894 63.175 263.1352Q63.690624 262.54144 63.690624 261.3227Q63.690624 260.16644 63.159374 259.5727Q62.64375 258.97894 61.8625 258.97894Q61.08125 258.97894 60.55 259.5727Q60.034374 260.15082 60.034374 261.35394ZM66.34688 264.46332L66.34688 258.24457L67.28438 258.24457L67.28438 259.11957Q67.97188 258.10394 69.26875 258.10394Q69.83125 258.10394 70.3 258.30707Q70.78438 258.5102 71.01875 258.83832Q71.25313 259.16644 71.34688 259.60394Q71.39375 259.90082 71.39375 260.6352L71.39375 264.46332L70.34688 264.46332L70.34688 260.68207Q70.34688 260.02582 70.22188 259.71332Q70.09688 259.40082 69.78438 259.21332Q69.47188 259.0102 69.05 259.0102Q68.37813 259.0102 67.87813 259.4477Q67.39375 259.86957 67.39375 261.05707L67.39375 264.46332L66.34688 264.46332Z" fill-rule="nonzero"/><path fill="#9e9e9e" d="M19.05 279.1977L20.1125 279.05707Q20.284374 279.9477 20.721874 280.35394Q21.159374 280.74457 21.784374 280.74457Q22.534374 280.74457 23.05 280.22894Q23.565624 279.71332 23.565624 278.9477Q23.565624 278.22894 23.08125 277.7602Q22.6125 277.27582 21.878124 277.27582Q21.58125 277.27582 21.128124 277.40082L21.253124 276.46332Q21.3625 276.47894 21.425 276.47894Q22.096874 276.47894 22.628124 276.1352Q23.175 275.77582 23.175 275.04144Q23.175 274.46332 22.784374 274.08832Q22.39375 273.6977 21.76875 273.6977Q21.159374 273.6977 20.7375 274.08832Q20.33125 274.47894 20.221874 275.24457L19.159374 275.05707Q19.346874 274.0102 20.034374 273.43207Q20.721874 272.83832 21.7375 272.83832Q22.440624 272.83832 23.034374 273.15082Q23.628124 273.4477 23.940624 273.96332Q24.253124 274.47894 24.253124 275.0727Q24.253124 275.61957 23.95625 276.08832Q23.659374 276.54144 23.08125 276.80707Q23.83125 276.97894 24.253124 277.54144Q24.675 278.08832 24.675 278.93207Q24.675 280.05707 23.846874 280.83832Q23.034374 281.61957 21.784374 281.61957Q20.659374 281.61957 19.909374 280.9477Q19.159374 280.2602 19.05 279.1977ZM26.05 279.21332L27.159374 279.11957Q27.284374 279.93207 27.721874 280.33832Q28.175 280.74457 28.815624 280.74457Q29.565624 280.74457 30.096874 280.16644Q30.628124 279.58832 30.628124 278.65082Q30.628124 277.74457 30.1125 277.22894Q29.6125 276.6977 28.784374 276.6977Q28.284374 276.6977 27.8625 276.93207Q27.45625 277.16644 27.221874 277.52582L26.2375 277.40082L27.065624 272.99457L31.346874 272.99457L31.346874 273.99457L27.909374 273.99457L27.45625 276.30707Q28.221874 275.7602 29.065624 275.7602Q30.190624 275.7602 30.95625 276.54144Q31.7375 277.3227 31.7375 278.55707Q31.7375 279.71332 31.065624 280.5727Q30.2375 281.60394 28.815624 281.60394Q27.64375 281.60394 26.89375 280.9477Q26.159374 280.29144 26.05 279.21332ZM33.6125 281.46332L33.6125 280.2602L34.815624 280.2602L34.815624 281.46332Q34.815624 282.11957 34.58125 282.52582Q34.346874 282.9477 33.846874 283.16644L33.55 282.71332Q33.878124 282.5727 34.034374 282.27582Q34.190624 281.99457 34.221874 281.46332L33.6125 281.46332ZM41.51875 274.97894L40.471874 275.05707Q40.33125 274.43207 40.08125 274.15082Q39.64375 273.6977 39.01875 273.6977Q38.51875 273.6977 38.128124 273.97894Q37.64375 274.35394 37.346874 275.05707Q37.065624 275.74457 37.05 277.02582Q37.425 276.4477 37.971874 276.16644Q38.534374 275.8852 39.14375 275.8852Q40.190624 275.8852 40.925 276.66644Q41.675 277.4477 41.675 278.66644Q41.675 279.47894 41.315624 280.18207Q40.971874 280.86957 40.3625 281.24457Q39.753124 281.60394 38.9875 281.60394Q37.659374 281.60394 36.83125 280.6352Q36.003124 279.66644 36.003124 277.4477Q36.003124 274.9477 36.925 273.8227Q37.721874 272.83832 39.08125 272.83832Q40.096874 272.83832 40.7375 273.41644Q41.39375 273.97894 41.51875 274.97894ZM37.221874 278.68207Q37.221874 279.22894 37.440624 279.72894Q37.675 280.21332 38.08125 280.47894Q38.503124 280.74457 38.971874 280.74457Q39.628124 280.74457 40.1125 280.21332Q40.596874 279.66644 40.596874 278.74457Q40.596874 277.85394 40.1125 277.33832Q39.64375 276.8227 38.925 276.8227Q38.20625 276.8227 37.70625 277.33832Q37.221874 277.85394 37.221874 278.68207ZM43.253124 274.93207Q43.253124 274.0102 43.70625 273.36957Q44.175 272.72894 45.05 272.72894Q45.8625 272.72894 46.39375 273.30707Q46.925 273.8852 46.925 274.99457Q46.925 276.08832 46.378124 276.68207Q45.846874 277.2602 45.065624 277.2602Q44.284374 277.2602 43.76875 276.68207Q43.253124 276.10394 43.253124 274.93207ZM45.08125 273.4477Q44.690624 273.4477 44.425 273.79144Q44.175 274.1352 44.175 275.04144Q44.175 275.86957 44.425 276.21332Q44.690624 276.54144 45.08125 276.54144Q45.4875 276.54144 45.7375 276.1977Q46.003124 275.85394 46.003124 274.96332Q46.003124 274.11957 45.7375 273.79144Q45.471874 273.4477 45.08125 273.4477ZM45.08125 281.77582L49.784374 272.72894L50.64375 272.72894L45.95625 281.77582L45.08125 281.77582ZM48.8 279.4477Q48.8 278.52582 49.253124 277.8852Q49.721874 277.24457 50.6125 277.24457Q51.425 277.24457 51.95625 277.8227Q52.4875 278.3852 52.4875 279.5102Q52.4875 280.60394 51.940624 281.1977Q51.409374 281.77582 50.6125 281.77582Q49.846874 281.77582 49.315624 281.1977Q48.8 280.61957 48.8 279.4477ZM50.64375 277.96332Q50.2375 277.96332 49.971874 278.30707Q49.721874 278.65082 49.721874 279.55707Q49.721874 280.36957 49.9875 280.71332Q50.253124 281.05707 50.64375 281.05707Q51.034374 281.05707 51.3 280.71332Q51.565624 280.36957 51.565624 279.46332Q51.565624 278.6352 51.3 278.30707Q51.034374 277.96332 50.64375 277.96332Z" fill-rule="nonzero"/><path stroke="#757575" stroke-width="1.0" stroke-linecap="butt" d="M18.55 268.96332L145.23334 268.96332L174.6516 268.96332" fill-rule="nonzero"/><path fill="#9e9e9e" d="M176.6516 268.96332C176.6516 267.85876 175.75616 266.96332 174.6516 266.96332C173.54703 266.96332 172.6516 267.85876 172.6516 268.96332C172.6516 270.0679 173.54703 270.96332 174.6516 270.96332C175.75616 270.96332 176.6516 270.0679 176.6516 268.96332" fill-rule="nonzero"/><path fill="#1a1a1a" d="M530.9969 194.46887L532.0594 194.37512Q532.1375 195.03137 532.41876 195.43762Q532.7 195.84387 533.27814 196.1095Q533.8719 196.3595 534.60626 196.3595Q535.2469 196.3595 535.7469 196.172Q536.2469 195.96887 536.48126 195.64075Q536.73126 195.297 536.73126 194.90637Q536.73126 194.50012 536.4969 194.20325Q536.2625 193.89075 535.73126 193.68762Q535.3719 193.547 534.1844 193.26575Q533.0125 192.9845 532.54376 192.7345Q531.91876 192.40637 531.6219 191.93762Q531.325 191.45325 531.325 190.8595Q531.325 190.21887 531.6844 189.65637Q532.0594 189.07825 532.7625 188.797Q533.48126 188.50012 534.34064 188.50012Q535.29376 188.50012 536.02814 188.81262Q536.7625 189.1095 537.15314 189.71887Q537.54376 190.31262 537.575 191.06262L536.48126 191.14075Q536.3875 190.32825 535.8719 189.922Q535.3719 189.50012 534.3875 189.50012Q533.35626 189.50012 532.8875 189.87512Q532.41876 190.25012 532.41876 190.78137Q532.41876 191.25012 532.7469 191.547Q533.075 191.84387 534.45 192.15637Q535.84064 192.46887 536.35626 192.70325Q537.10626 193.06262 537.46564 193.59387Q537.825 194.1095 537.825 194.81262Q537.825 195.50012 537.4344 196.1095Q537.04376 196.70325 536.3094 197.047Q535.575 197.37512 534.65314 197.37512Q533.48126 197.37512 532.6844 197.047Q531.90314 196.70325 531.45 196.01575Q531.0125 195.32825 530.9969 194.46887ZM543.325 197.2345L543.325 196.31262Q542.59064 197.37512 541.34064 197.37512Q540.79376 197.37512 540.3094 197.172Q539.84064 196.95325 539.60626 196.64075Q539.3719 196.31262 539.27814 195.84387Q539.21564 195.547 539.21564 194.8595L539.21564 191.01575L540.27814 191.01575L540.27814 194.46887Q540.27814 195.28137 540.34064 195.57825Q540.4344 195.9845 540.7469 196.2345Q541.075 196.46887 541.5594 196.46887Q542.02814 196.46887 542.4344 196.2345Q542.85626 195.9845 543.02814 195.56262Q543.21564 195.14075 543.21564 194.34387L543.21564 191.01575L544.2625 191.01575L544.2625 197.2345L543.325 197.2345ZM547.21564 197.2345L546.23126 197.2345L546.23126 188.64075L547.29376 188.64075L547.29376 191.70325Q547.96564 190.87512 548.9969 190.87512Q549.575 190.87512 550.075 191.1095Q550.59064 191.32825 550.91876 191.75012Q551.2625 192.172 551.45 192.76575Q551.6375 193.3595 551.6375 194.03137Q551.6375 195.62512 550.84064 196.50012Q550.04376 197.37512 548.95 197.37512Q547.84064 197.37512 547.21564 196.45325L547.21564 197.2345ZM547.2 194.07825Q547.2 195.18762 547.5125 195.68762Q548.0125 196.50012 548.85626 196.50012Q549.54376 196.50012 550.04376 195.90637Q550.5594 195.31262 550.5594 194.1095Q550.5594 192.89075 550.075 192.31262Q549.59064 191.7345 548.90314 191.7345Q548.21564 191.7345 547.7 192.34387Q547.2 192.93762 547.2 194.07825ZM552.825 195.37512L553.85626 195.21887Q553.95 195.84387 554.34064 196.172Q554.7469 196.50012 555.48126 196.50012Q556.2 196.50012 556.54376 196.21887Q556.90314 195.922 556.90314 195.51575Q556.90314 195.15637 556.59064 194.95325Q556.3719 194.81262 555.5125 194.59387Q554.35626 194.297 553.90314 194.09387Q553.46564 193.87512 553.23126 193.50012Q552.9969 193.12512 552.9969 192.65637Q552.9969 192.25012 553.1844 191.89075Q553.3719 191.53137 553.7 191.297Q553.95 191.12512 554.3719 191.00012Q554.79376 190.87512 555.29376 190.87512Q556.0125 190.87512 556.5594 191.09387Q557.1219 191.297 557.3875 191.65637Q557.65314 192.01575 557.7469 192.6095L556.71564 192.75012Q556.65314 192.28137 556.3094 192.01575Q555.98126 191.7345 555.35626 191.7345Q554.6375 191.7345 554.325 191.9845Q554.0125 192.21887 554.0125 192.547Q554.0125 192.75012 554.1375 192.90637Q554.27814 193.07825 554.54376 193.18762Q554.7 193.25012 555.48126 193.45325Q556.60626 193.76575 557.04376 193.95325Q557.48126 194.14075 557.73126 194.50012Q557.98126 194.8595 557.98126 195.40637Q557.98126 195.93762 557.66876 196.40637Q557.3719 196.8595 556.79376 197.12512Q556.21564 197.37512 555.48126 197.37512Q554.2625 197.37512 553.6219 196.87512Q552.9969 196.3595 552.825 195.37512ZM562.54376 196.297L562.7 197.21887Q562.2469 197.31262 561.90314 197.31262Q561.325 197.31262 561.0125 197.14075Q560.7 196.95325 560.5594 196.65637Q560.4344 196.3595 560.4344 195.40637L560.4344 191.82825L559.66876 191.82825L559.66876 191.01575L560.4344 191.01575L560.4344 189.46887L561.48126 188.84387L561.48126 191.01575L562.54376 191.01575L562.54376 191.82825L561.48126 191.82825L561.48126 195.46887Q561.48126 195.922 561.52814 196.047Q561.59064 196.172 561.71564 196.25012Q561.84064 196.32825 562.075 196.32825Q562.2625 196.32825 562.54376 196.297ZM567.3094 196.46887Q566.71564 196.96887 566.16876 197.172Q565.6375 197.37512 565.0125 197.37512Q563.98126 197.37512 563.4344 196.87512Q562.8875 196.37512 562.8875 195.59387Q562.8875 195.14075 563.09064 194.76575Q563.29376 194.37512 563.6375 194.15637Q563.98126 193.922 564.40314 193.81262Q564.7 193.71887 565.34064 193.64075Q566.60626 193.50012 567.21564 193.28137Q567.21564 193.06262 567.21564 193.01575Q567.21564 192.3595 566.91876 192.09387Q566.5125 191.75012 565.71564 191.75012Q564.98126 191.75012 564.6219 192.01575Q564.2625 192.26575 564.09064 192.922L563.0594 192.78137Q563.2 192.12512 563.52814 191.71887Q563.85626 191.31262 564.46564 191.09387Q565.075 190.87512 565.8719 190.87512Q566.66876 190.87512 567.16876 191.06262Q567.66876 191.25012 567.90314 191.53137Q568.1375 191.81262 568.23126 192.25012Q568.27814 192.51575 568.27814 193.21887L568.27814 194.62512Q568.27814 196.09387 568.34064 196.4845Q568.41876 196.87512 568.6219 197.2345L567.5125 197.2345Q567.35626 196.90637 567.3094 196.46887ZM567.21564 194.1095Q566.6375 194.34387 565.4969 194.51575Q564.84064 194.6095 564.575 194.7345Q564.3094 194.84387 564.15314 195.06262Q564.0125 195.28137 564.0125 195.56262Q564.0125 195.9845 564.325 196.26575Q564.65314 196.547 565.2625 196.547Q565.8719 196.547 566.34064 196.28137Q566.825 196.01575 567.04376 195.547Q567.21564 195.18762 567.21564 194.50012L567.21564 194.1095ZM574.3094 194.95325L575.34064 195.09387Q575.16876 196.15637 574.46564 196.76575Q573.7625 197.37512 572.7469 197.37512Q571.46564 197.37512 570.6844 196.547Q569.91876 195.70325 569.91876 194.14075Q569.91876 193.14075 570.2469 192.39075Q570.59064 191.62512 571.2625 191.25012Q571.95 190.87512 572.7625 190.87512Q573.7625 190.87512 574.40314 191.39075Q575.0594 191.89075 575.2469 192.84387L574.21564 193.00012Q574.075 192.37512 573.7 192.06262Q573.325 191.7345 572.79376 191.7345Q571.9969 191.7345 571.4969 192.31262Q570.9969 192.87512 570.9969 194.1095Q570.9969 195.37512 571.48126 195.93762Q571.96564 196.50012 572.73126 196.50012Q573.35626 196.50012 573.7625 196.12512Q574.1844 195.75012 574.3094 194.95325ZM576.2469 197.2345L576.2469 188.64075L577.3094 188.64075L577.3094 193.547L579.79376 191.01575L581.16876 191.01575L578.77814 193.31262L581.40314 197.2345L580.10626 197.2345L578.04376 194.047L577.3094 194.76575L577.3094 197.2345L576.2469 197.2345Z" fill-rule="nonzero"/><path fill="#9e9e9e" d="M550.325 214.2345L550.325 212.172L546.60626 212.172L546.60626 211.20325L550.52814 205.64075L551.3875 205.64075L551.3875 211.20325L552.54376 211.20325L552.54376 212.172L551.3875 212.172L551.3875 214.2345L550.325 214.2345ZM550.325 211.20325L550.325 207.34387L547.6375 211.20325L550.325 211.20325ZM554.10626 212.25012L555.1219 212.15637Q555.2469 212.87512 555.60626 213.20325Q555.98126 213.51575 556.54376 213.51575Q557.02814 213.51575 557.3875 213.297Q557.7625 213.06262 557.9969 212.70325Q558.23126 212.32825 558.3875 211.70325Q558.54376 211.06262 558.54376 210.40637Q558.54376 210.32825 558.54376 210.18762Q558.23126 210.68762 557.6844 211.01575Q557.1375 211.32825 556.4969 211.32825Q555.41876 211.32825 554.6844 210.56262Q553.95 209.78137 553.95 208.51575Q553.95 207.20325 554.71564 206.40637Q555.4969 205.6095 556.65314 205.6095Q557.48126 205.6095 558.16876 206.06262Q558.8719 206.51575 559.23126 207.3595Q559.59064 208.18762 559.59064 209.76575Q559.59064 211.40637 559.23126 212.39075Q558.8875 213.3595 558.16876 213.87512Q557.46564 214.37512 556.52814 214.37512Q555.5125 214.37512 554.8719 213.82825Q554.23126 213.26575 554.10626 212.25012ZM558.41876 208.45325Q558.41876 207.547 557.9344 207.01575Q557.46564 206.4845 556.77814 206.4845Q556.075 206.4845 555.54376 207.06262Q555.02814 207.62512 555.02814 208.547Q555.02814 209.3595 555.52814 209.87512Q556.02814 210.39075 556.7469 210.39075Q557.48126 210.39075 557.95 209.87512Q558.41876 209.3595 558.41876 208.45325ZM561.5125 214.2345L561.5125 213.03137L562.71564 213.03137L562.71564 214.2345Q562.71564 214.89075 562.48126 215.297Q562.2469 215.71887 561.7469 215.93762L561.45 215.4845Q561.77814 215.34387 561.9344 215.047Q562.09064 214.76575 562.1219 214.2345L561.5125 214.2345ZM569.41876 207.75012L568.3719 207.82825Q568.23126 207.20325 567.98126 206.922Q567.54376 206.46887 566.91876 206.46887Q566.41876 206.46887 566.02814 206.75012Q565.54376 207.12512 565.2469 207.82825Q564.96564 208.51575 564.95 209.797Q565.325 209.21887 565.8719 208.93762Q566.4344 208.65637 567.04376 208.65637Q568.09064 208.65637 568.825 209.43762Q569.575 210.21887 569.575 211.43762Q569.575 212.25012 569.21564 212.95325Q568.8719 213.64075 568.2625 214.01575Q567.65314 214.37512 566.8875 214.37512Q565.5594 214.37512 564.73126 213.40637Q563.90314 212.43762 563.90314 210.21887Q563.90314 207.71887 564.825 206.59387Q565.6219 205.6095 566.98126 205.6095Q567.9969 205.6095 568.6375 206.18762Q569.29376 206.75012 569.41876 207.75012ZM565.1219 211.45325Q565.1219 212.00012 565.34064 212.50012Q565.575 212.9845 565.98126 213.25012Q566.40314 213.51575 566.8719 213.51575Q567.52814 213.51575 568.0125 212.9845Q568.4969 212.43762 568.4969 211.51575Q568.4969 210.62512 568.0125 210.1095Q567.54376 209.59387 566.825 209.59387Q566.10626 209.59387 565.60626 210.1095Q565.1219 210.62512 565.1219 211.45325ZM571.15314 207.70325Q571.15314 206.78137 571.60626 206.14075Q572.075 205.50012 572.95 205.50012Q573.7625 205.50012 574.29376 206.07825Q574.825 206.65637 574.825 207.76575Q574.825 208.8595 574.27814 209.45325Q573.7469 210.03137 572.96564 210.03137Q572.1844 210.03137 571.66876 209.45325Q571.15314 208.87512 571.15314 207.70325ZM572.98126 206.21887Q572.59064 206.21887 572.325 206.56262Q572.075 206.90637 572.075 207.81262Q572.075 208.64075 572.325 208.9845Q572.59064 209.31262 572.98126 209.31262Q573.3875 209.31262 573.6375 208.96887Q573.90314 208.62512 573.90314 207.7345Q573.90314 206.89075 573.6375 206.56262Q573.3719 206.21887 572.98126 206.21887ZM572.98126 214.547L577.6844 205.50012L578.54376 205.50012L573.85626 214.547L572.98126 214.547ZM576.7 212.21887Q576.7 211.297 577.15314 210.65637Q577.6219 210.01575 578.5125 210.01575Q579.325 210.01575 579.85626 210.59387Q580.3875 211.15637 580.3875 212.28137Q580.3875 213.37512 579.84064 213.96887Q579.3094 214.547 578.5125 214.547Q577.7469 214.547 577.21564 213.96887Q576.7 213.39075 576.7 212.21887ZM578.54376 210.7345Q578.1375 210.7345 577.8719 211.07825Q577.6219 211.422 577.6219 212.32825Q577.6219 213.14075 577.8875 213.4845Q578.15314 213.82825 578.54376 213.82825Q578.9344 213.82825 579.2 213.4845Q579.46564 213.14075 579.46564 212.2345Q579.46564 211.40637 579.2 211.07825Q578.9344 210.7345 578.54376 210.7345Z" fill-rule="nonzero"/><path stroke="#757575" stroke-width="1.0" stroke-linecap="butt" d="M581.45 201.7345L454.76666 201.7345L441.3149 201.7345" fill-rule="nonzero"/><path fill="#9e9e9e" d="M443.3149 201.7345C443.3149 200.62991 442.41946 199.7345 441.3149 199.7345C440.21033 199.7345 439.3149 200.62991 439.3149 201.7345C439.3149 202.83907 440.21033 203.7345 441.3149 203.7345C442.41946 203.7345 443.3149 202.83907 443.3149 201.7345" fill-rule="nonzero"/><path fill="#757575" d="M113.640625 37.55L108.09375 23.2375L110.140625 23.2375L113.859375 33.628124Q114.3125 34.878124 114.609375 35.971874Q114.9375 34.8 115.390625 33.628124L119.25 23.2375L121.1875 23.2375L115.578125 37.55L113.640625 37.55ZM129.10938 37.55L129.10938 36.01875Q127.90625 37.784374 125.828125 37.784374Q124.90625 37.784374 124.109375 37.440624Q123.3125 37.08125 122.921875 36.55Q122.546875 36.01875 122.390625 35.2375Q122.28125 34.721874 122.28125 33.596874L122.28125 27.175L124.03125 27.175L124.03125 32.925Q124.03125 34.3 124.140625 34.784374Q124.3125 35.471874 124.84375 35.878124Q125.390625 36.26875 126.171875 36.26875Q126.96875 36.26875 127.65625 35.8625Q128.35938 35.45625 128.64062 34.76875Q128.9375 34.065624 128.9375 32.7375L128.9375 27.175L130.6875 27.175L130.6875 37.55L129.10938 37.55ZM139.42188 34.20625L141.23438 34.440624Q140.8125 36.01875 139.64062 36.909374Q138.48438 37.784374 136.67188 37.784374Q134.40625 37.784374 133.0625 36.39375Q131.73438 34.9875 131.73438 32.45625Q131.73438 29.83125 133.07812 28.39375Q134.42188 26.940624 136.57812 26.940624Q138.65625 26.940624 139.96875 28.3625Q141.29688 29.76875 141.29688 32.346874Q141.29688 32.503124 141.28125 32.815624L133.54688 32.815624Q133.64062 34.51875 134.51562 35.425Q135.39062 36.33125 136.6875 36.33125Q137.65625 36.33125 138.32812 35.83125Q139.01562 35.315624 139.42188 34.20625ZM133.64062 31.3625L139.4375 31.3625Q139.32812 30.065624 138.78125 29.409374Q137.9375 28.39375 136.59375 28.39375Q135.39062 28.39375 134.5625 29.20625Q133.73438 30.003124 133.64062 31.3625ZM142.60938 34.45625L144.35938 34.175Q144.5 35.221874 145.17188 35.784374Q145.84375 36.33125 147.04688 36.33125Q148.25 36.33125 148.82812 35.846874Q149.42188 35.346874 149.42188 34.690624Q149.42188 34.096874 148.90625 33.753124Q148.54688 33.51875 147.10938 33.159374Q145.17188 32.659374 144.42188 32.315624Q143.6875 31.95625 143.29688 31.33125Q142.90625 30.690624 142.90625 29.925Q142.90625 29.2375 143.21875 28.64375Q143.54688 28.05 144.09375 27.659374Q144.5 27.3625 145.20312 27.159374Q145.92188 26.940624 146.73438 26.940624Q147.95312 26.940624 148.875 27.3Q149.79688 27.64375 150.23438 28.253124Q150.67188 28.846874 150.84375 29.846874L149.125 30.08125Q149.0 29.284374 148.4375 28.846874Q147.875 28.39375 146.85938 28.39375Q145.64062 28.39375 145.125 28.8Q144.60938 29.190624 144.60938 29.721874Q144.60938 30.065624 144.82812 30.346874Q145.03125 30.628124 145.5 30.815624Q145.76562 30.909374 147.04688 31.253124Q148.92188 31.753124 149.65625 32.08125Q150.39062 32.39375 150.8125 33.003124Q151.23438 33.596874 151.23438 34.503124Q151.23438 35.378124 150.71875 36.159374Q150.20312 36.940624 149.23438 37.3625Q148.26562 37.784374 147.04688 37.784374Q145.03125 37.784374 143.96875 36.940624Q142.90625 36.096874 142.60938 34.45625ZM166.04688 37.55L166.04688 36.2375Q165.0625 37.784374 163.14062 37.784374Q161.90625 37.784374 160.85938 37.096874Q159.82812 36.409374 159.25 35.190624Q158.6875 33.971874 158.6875 32.378124Q158.6875 30.815624 159.20312 29.55Q159.71875 28.284374 160.75 27.6125Q161.79688 26.940624 163.0625 26.940624Q164.0 26.940624 164.73438 27.346874Q165.46875 27.7375 165.9375 28.3625L165.9375 23.2375L167.67188 23.2375L167.67188 37.55L166.04688 37.55ZM160.48438 32.378124Q160.48438 34.3625 161.32812 35.346874Q162.17188 36.33125 163.3125 36.33125Q164.46875 36.33125 165.26562 35.39375Q166.07812 34.45625 166.07812 32.51875Q166.07812 30.39375 165.25 29.39375Q164.4375 28.39375 163.23438 28.39375Q162.0625 28.39375 161.26562 29.3625Q160.48438 30.315624 160.48438 32.378124ZM177.42188 34.20625L179.23438 34.440624Q178.8125 36.01875 177.64062 36.909374Q176.48438 37.784374 174.67188 37.784374Q172.40625 37.784374 171.0625 36.39375Q169.73438 34.9875 169.73438 32.45625Q169.73438 29.83125 171.07812 28.39375Q172.42188 26.940624 174.57812 26.940624Q176.65625 26.940624 177.96875 28.3625Q179.29688 29.76875 179.29688 32.346874Q179.29688 32.503124 179.28125 32.815624L171.54688 32.815624Q171.64062 34.51875 172.51562 35.425Q173.39062 36.33125 174.6875 36.33125Q175.65625 36.33125 176.32812 35.83125Q177.01562 35.315624 177.42188 34.20625ZM171.64062 31.3625L177.4375 31.3625Q177.32812 30.065624 176.78125 29.409374Q175.9375 28.39375 174.59375 28.39375Q173.39062 28.39375 172.5625 29.20625Q171.73438 30.003124 171.64062 31.3625ZM191.15625 35.971874L191.40625 37.534374Q190.67188 37.690624 190.07812 37.690624Q189.125 37.690624 188.59375 37.39375Q188.07812 37.08125 187.85938 36.596874Q187.64062 36.096874 187.64062 34.51875L187.64062 28.55L186.35938 28.55L186.35938 27.175L187.64062 27.175L187.64062 24.6125L189.39062 23.55L189.39062 27.175L191.15625 27.175L191.15625 28.55L189.39062 28.55L189.39062 34.6125Q189.39062 35.3625 189.48438 35.58125Q189.57812 35.784374 189.78125 35.925Q190.0 36.05 190.39062 36.05Q190.67188 36.05 191.15625 35.971874ZM200.09375 33.753124L201.8125 33.971874Q201.53125 35.76875 200.35938 36.784374Q199.20312 37.784374 197.5 37.784374Q195.375 37.784374 194.07812 36.39375Q192.78125 35.003124 192.78125 32.409374Q192.78125 30.721874 193.32812 29.471874Q193.89062 28.20625 195.03125 27.58125Q196.17188 26.940624 197.51562 26.940624Q199.20312 26.940624 200.26562 27.8Q201.34375 28.659374 201.65625 30.221874L199.9375 30.4875Q199.70312 29.440624 199.07812 28.925Q198.45312 28.39375 197.57812 28.39375Q196.25 28.39375 195.42188 29.346874Q194.59375 30.3 194.59375 32.346874Q194.59375 34.440624 195.39062 35.39375Q196.1875 36.33125 197.48438 36.33125Q198.51562 36.33125 199.20312 35.70625Q199.90625 35.065624 200.09375 33.753124ZM203.29688 37.55L203.29688 27.175L204.875 27.175L204.875 28.753124Q205.48438 27.64375 206.0 27.3Q206.51562 26.940624 207.125 26.940624Q208.01562 26.940624 208.9375 27.503124L208.32812 29.14375Q207.6875 28.753124 207.04688 28.753124Q206.46875 28.753124 206.0 29.1125Q205.54688 29.45625 205.34375 30.065624Q205.0625 31.003124 205.0625 32.1125L205.0625 37.55L203.29688 37.55ZM209.67188 32.3625Q209.67188 29.4875 211.26562 28.096874Q212.60938 26.940624 214.53125 26.940624Q216.67188 26.940624 218.01562 28.346874Q219.375 29.753124 219.375 32.221874Q219.375 34.221874 218.78125 35.378124Q218.1875 36.51875 217.03125 37.159374Q215.89062 37.784374 214.53125 37.784374Q212.34375 37.784374 211.0 36.39375Q209.67188 34.9875 209.67188 32.3625ZM211.46875 32.3625Q211.46875 34.3625 212.32812 35.346874Q213.20312 36.33125 214.53125 36.33125Q215.84375 36.33125 216.70312 35.346874Q217.57812 34.346874 217.57812 32.3Q217.57812 30.378124 216.70312 29.39375Q215.82812 28.39375 214.53125 28.39375Q213.20312 28.39375 212.32812 29.39375Q211.46875 30.378124 211.46875 32.3625ZM228.10938 37.55L228.10938 36.01875Q226.90625 37.784374 224.82812 37.784374Q223.90625 37.784374 223.10938 37.440624Q222.3125 37.08125 221.92188 36.55Q221.54688 36.01875 221.39062 35.2375Q221.28125 34.721874 221.28125 33.596874L221.28125 27.175L223.03125 27.175L223.03125 32.925Q223.03125 34.3 223.14062 34.784374Q223.3125 35.471874 223.84375 35.878124Q224.39062 36.26875 225.17188 36.26875Q225.96875 36.26875 226.65625 35.8625Q227.35938 35.45625 227.64062 34.76875Q227.9375 34.065624 227.9375 32.7375L227.9375 27.175L229.6875 27.175L229.6875 37.55L228.10938 37.55ZM230.39062 37.55L230.39062 36.128124L237.0 28.55Q235.875 28.596874 235.01562 28.596874L230.78125 28.596874L230.78125 27.175L239.26562 27.175L239.26562 28.346874L233.64062 34.925L232.5625 36.128124Q233.73438 36.034374 234.78125 36.034374L239.57812 36.034374L239.57812 37.55L230.39062 37.55ZM247.42188 34.20625L249.23438 34.440624Q248.8125 36.01875 247.64062 36.909374Q246.48438 37.784374 244.67188 37.784374Q242.40625 37.784374 241.0625 36.39375Q239.73438 34.9875 239.73438 32.45625Q239.73438 29.83125 241.07812 28.39375Q242.42188 26.940624 244.57812 26.940624Q246.65625 26.940624 247.96875 28.3625Q249.29688 29.76875 249.29688 32.346874Q249.29688 32.503124 249.28125 32.815624L241.54688 32.815624Q241.64062 34.51875 242.51562 35.425Q243.39062 36.33125 244.6875 36.33125Q245.65625 36.33125 246.32812 35.83125Q247.01562 35.315624 247.42188 34.20625ZM241.64062 31.3625L247.4375 31.3625Q247.32812 30.065624 246.78125 29.409374Q245.9375 28.39375 244.59375 28.39375Q243.39062 28.39375 242.5625 29.20625Q241.73438 30.003124 241.64062 31.3625ZM255.15625 35.971874L255.40625 37.534374Q254.67188 37.690624 254.07812 37.690624Q253.125 37.690624 252.59375 37.39375Q252.07812 37.08125 251.85938 36.596874Q251.64062 36.096874 251.64062 34.51875L251.64062 28.55L250.35938 28.55L250.35938 27.175L251.64062 27.175L251.64062 24.6125L253.39062 23.55L253.39062 27.175L255.15625 27.175L255.15625 28.55L253.39062 28.55L253.39062 34.6125Q253.39062 35.3625 253.48438 35.58125Q253.57812 35.784374 253.78125 35.925Q254.0 36.05 254.39062 36.05Q254.67188 36.05 255.15625 35.971874ZM257.8125 37.55L257.8125 35.55L259.8125 35.55L259.8125 37.55L257.8125 37.55ZM262.60938 34.45625L264.35938 34.175Q264.5 35.221874 265.17188 35.784374Q265.84375 36.33125 267.04688 36.33125Q268.25 36.33125 268.82812 35.846874Q269.42188 35.346874 269.42188 34.690624Q269.42188 34.096874 268.90625 33.753124Q268.54688 33.51875 267.10938 33.159374Q265.17188 32.659374 264.42188 32.315624Q263.6875 31.95625 263.29688 31.33125Q262.90625 30.690624 262.90625 29.925Q262.90625 29.2375 263.21875 28.64375Q263.54688 28.05 264.09375 27.659374Q264.5 27.3625 265.20312 27.159374Q265.92188 26.940624 266.73438 26.940624Q267.95312 26.940624 268.875 27.3Q269.79688 27.64375 270.23438 28.253124Q270.67188 28.846874 270.84375 29.846874L269.125 30.08125Q269.0 29.284374 268.4375 28.846874Q267.875 28.39375 266.85938 28.39375Q265.64062 28.39375 265.125 28.8Q264.60938 29.190624 264.60938 29.721874Q264.60938 30.065624 264.82812 30.346874Q265.03125 30.628124 265.5 30.815624Q265.76562 30.909374 267.04688 31.253124Q268.92188 31.753124 269.65625 32.08125Q270.39062 32.39375 270.8125 33.003124Q271.23438 33.596874 271.23438 34.503124Q271.23438 35.378124 270.71875 36.159374Q270.20312 36.940624 269.23438 37.3625Q268.26562 37.784374 267.04688 37.784374Q265.03125 37.784374 263.96875 36.940624Q262.90625 36.096874 262.60938 34.45625ZM280.10938 37.55L280.10938 36.01875Q278.90625 37.784374 276.82812 37.784374Q275.90625 37.784374 275.10938 37.440624Q274.3125 37.08125 273.92188 36.55Q273.54688 36.01875 273.39062 35.2375Q273.28125 34.721874 273.28125 33.596874L273.28125 27.175L275.03125 27.175L275.03125 32.925Q275.03125 34.3 275.14062 34.784374Q275.3125 35.471874 275.84375 35.878124Q276.39062 36.26875 277.17188 36.26875Q277.96875 36.26875 278.65625 35.8625Q279.35938 35.45625 279.64062 34.76875Q279.9375 34.065624 279.9375 32.7375L279.9375 27.175L281.6875 27.175L281.6875 37.55L280.10938 37.55ZM284.9375 37.55L283.3125 37.55L283.3125 23.2375L285.0625 23.2375L285.0625 28.346874Q286.1875 26.940624 287.90625 26.940624Q288.85938 26.940624 289.71875 27.33125Q290.57812 27.721874 291.125 28.425Q291.67188 29.1125 291.98438 30.096874Q292.29688 31.08125 292.29688 32.20625Q292.29688 34.878124 290.98438 36.33125Q289.67188 37.784374 287.82812 37.784374Q285.98438 37.784374 284.9375 36.253124L284.9375 37.55ZM284.92188 32.284374Q284.92188 34.14375 285.42188 34.9875Q286.26562 36.33125 287.67188 36.33125Q288.82812 36.33125 289.65625 35.33125Q290.5 34.33125 290.5 32.346874Q290.5 30.315624 289.6875 29.3625Q288.89062 28.39375 287.75 28.39375Q286.59375 28.39375 285.75 29.39375Q284.92188 30.39375 284.92188 32.284374ZM293.60938 34.45625L295.35938 34.175Q295.5 35.221874 296.17188 35.784374Q296.84375 36.33125 298.04688 36.33125Q299.25 36.33125 299.82812 35.846874Q300.42188 35.346874 300.42188 34.690624Q300.42188 34.096874 299.90625 33.753124Q299.54688 33.51875 298.10938 33.159374Q296.17188 32.659374 295.42188 32.315624Q294.6875 31.95625 294.29688 31.33125Q293.90625 30.690624 293.90625 29.925Q293.90625 29.2375 294.21875 28.64375Q294.54688 28.05 295.09375 27.659374Q295.5 27.3625 296.20312 27.159374Q296.92188 26.940624 297.73438 26.940624Q298.95312 26.940624 299.875 27.3Q300.79688 27.64375 301.23438 28.253124Q301.67188 28.846874 301.84375 29.846874L300.125 30.08125Q300.0 29.284374 299.4375 28.846874Q298.875 28.39375 297.85938 28.39375Q296.64062 28.39375 296.125 28.8Q295.60938 29.190624 295.60938 29.721874Q295.60938 30.065624 295.82812 30.346874Q296.03125 30.628124 296.5 30.815624Q296.76562 30.909374 298.04688 31.253124Q299.92188 31.753124 300.65625 32.08125Q301.39062 32.39375 301.8125 33.003124Q302.23438 33.596874 302.23438 34.503124Q302.23438 35.378124 301.71875 36.159374Q301.20312 36.940624 300.23438 37.3625Q299.26562 37.784374 298.04688 37.784374Q296.03125 37.784374 294.96875 36.940624Q293.90625 36.096874 293.60938 34.45625ZM308.15625 35.971874L308.40625 37.534374Q307.67188 37.690624 307.07812 37.690624Q306.125 37.690624 305.59375 37.39375Q305.07812 37.08125 304.85938 36.596874Q304.64062 36.096874 304.64062 34.51875L304.64062 28.55L303.35938 28.55L303.35938 27.175L304.64062 27.175L304.64062 24.6125L306.39062 23.55L306.39062 27.175L308.15625 27.175L308.15625 28.55L306.39062 28.55L306.39062 34.6125Q306.39062 35.3625 306.48438 35.58125Q306.57812 35.784374 306.78125 35.925Q307.0 36.05 307.39062 36.05Q307.67188 36.05 308.15625 35.971874ZM317.09375 36.26875Q316.10938 37.096874 315.20312 37.440624Q314.29688 37.784374 313.26562 37.784374Q311.5625 37.784374 310.64062 36.95625Q309.71875 36.1125 309.71875 34.815624Q309.71875 34.05 310.0625 33.425Q310.42188 32.8 310.98438 32.425Q311.54688 32.034374 312.25 31.83125Q312.76562 31.70625 313.8125 31.565624Q315.9375 31.315624 316.9375 30.971874Q316.95312 30.6125 316.95312 30.503124Q316.95312 29.440624 316.45312 28.9875Q315.78125 28.39375 314.45312 28.39375Q313.20312 28.39375 312.60938 28.83125Q312.03125 29.26875 311.75 30.378124L310.03125 30.14375Q310.26562 29.034374 310.79688 28.3625Q311.32812 27.675 312.34375 27.315624Q313.35938 26.940624 314.70312 26.940624Q316.03125 26.940624 316.85938 27.253124Q317.6875 27.565624 318.07812 28.05Q318.46875 28.51875 318.625 29.2375Q318.71875 29.690624 318.71875 30.8625L318.71875 33.20625Q318.71875 35.659374 318.82812 36.315624Q318.9375 36.95625 319.28125 37.55L317.4375 37.55Q317.17188 37.003124 317.09375 36.26875ZM316.9375 32.346874Q315.98438 32.7375 314.0625 33.003124Q312.98438 33.159374 312.53125 33.3625Q312.09375 33.55 311.84375 33.925Q311.59375 34.3 311.59375 34.76875Q311.59375 35.471874 312.125 35.940624Q312.65625 36.409374 313.6875 36.409374Q314.70312 36.409374 315.48438 35.971874Q316.28125 35.51875 316.65625 34.753124Q316.9375 34.14375 316.9375 32.9875L316.9375 32.346874ZM328.09375 33.753124L329.8125 33.971874Q329.53125 35.76875 328.35938 36.784374Q327.20312 37.784374 325.5 37.784374Q323.375 37.784374 322.07812 36.39375Q320.78125 35.003124 320.78125 32.409374Q320.78125 30.721874 321.32812 29.471874Q321.89062 28.20625 323.03125 27.58125Q324.17188 26.940624 325.51562 26.940624Q327.20312 26.940624 328.26562 27.8Q329.34375 28.659374 329.65625 30.221874L327.9375 30.4875Q327.70312 29.440624 327.07812 28.925Q326.45312 28.39375 325.57812 28.39375Q324.25 28.39375 323.42188 29.346874Q322.59375 30.3 322.59375 32.346874Q322.59375 34.440624 323.39062 35.39375Q324.1875 36.33125 325.48438 36.33125Q326.51562 36.33125 327.20312 35.70625Q327.90625 35.065624 328.09375 33.753124ZM331.32812 37.55L331.32812 23.2375L333.09375 23.2375L333.09375 31.39375L337.25 27.175L339.51562 27.175L335.5625 31.01875L339.92188 37.55L337.75 37.55L334.32812 32.253124L333.09375 33.440624L333.09375 37.55L331.32812 37.55ZM341.8125 37.55L341.8125 35.55L343.8125 35.55L343.8125 37.55L341.8125 37.55ZM354.09375 33.753124L355.8125 33.971874Q355.53125 35.76875 354.35938 36.784374Q353.20312 37.784374 351.5 37.784374Q349.375 37.784374 348.07812 36.39375Q346.78125 35.003124 346.78125 32.409374Q346.78125 30.721874 347.32812 29.471874Q347.89062 28.20625 349.03125 27.58125Q350.17188 26.940624 351.51562 26.940624Q353.20312 26.940624 354.26562 27.8Q355.34375 28.659374 355.65625 30.221874L353.9375 30.4875Q353.70312 29.440624 353.07812 28.925Q352.45312 28.39375 351.57812 28.39375Q350.25 28.39375 349.42188 29.346874Q348.59375 30.3 348.59375 32.346874Q348.59375 34.440624 349.39062 35.39375Q350.1875 36.33125 351.48438 36.33125Q352.51562 36.33125 353.20312 35.70625Q353.90625 35.065624 354.09375 33.753124ZM356.67188 32.3625Q356.67188 29.4875 358.26562 28.096874Q359.60938 26.940624 361.53125 26.940624Q363.67188 26.940624 365.01562 28.346874Q366.375 29.753124 366.375 32.221874Q366.375 34.221874 365.78125 35.378124Q365.1875 36.51875 364.03125 37.159374Q362.89062 37.784374 361.53125 37.784374Q359.34375 37.784374 358.0 36.39375Q356.67188 34.9875 356.67188 32.3625ZM358.46875 32.3625Q358.46875 34.3625 359.32812 35.346874Q360.20312 36.33125 361.53125 36.33125Q362.84375 36.33125 363.70312 35.346874Q364.57812 34.346874 364.57812 32.3Q364.57812 30.378124 363.70312 29.39375Q362.82812 28.39375 361.53125 28.39375Q360.20312 28.39375 359.32812 29.39375Q358.46875 30.378124 358.46875 32.3625ZM368.3125 37.55L368.3125 27.175L369.89062 27.175L369.89062 28.628124Q370.375 27.878124 371.1875 27.409374Q372.0 26.940624 373.03125 26.940624Q374.1875 26.940624 374.92188 27.425Q375.65625 27.89375 375.96875 28.753124Q377.20312 26.940624 379.17188 26.940624Q380.71875 26.940624 381.54688 27.8Q382.375 28.659374 382.375 30.425L382.375 37.55L380.625 37.55L380.625 31.01875Q380.625 29.95625 380.45312 29.503124Q380.28125 29.034374 379.82812 28.753124Q379.39062 28.471874 378.78125 28.471874Q377.6875 28.471874 376.95312 29.20625Q376.23438 29.925 376.23438 31.51875L376.23438 37.55L374.48438 37.55L374.48438 30.815624Q374.48438 29.64375 374.04688 29.065624Q373.625 28.471874 372.64062 28.471874Q371.90625 28.471874 371.26562 28.8625Q370.64062 29.253124 370.35938 30.003124Q370.07812 30.753124 370.07812 32.175L370.07812 37.55L368.3125 37.55ZM393.67188 41.753124Q392.21875 39.925 391.21875 37.471874Q390.21875 35.003124 390.21875 32.3625Q390.21875 30.034374 390.96875 27.909374Q391.84375 25.440624 393.67188 22.9875L394.9375 22.9875Q393.75 25.01875 393.375 25.89375Q392.78125 27.2375 392.4375 28.70625Q392.01562 30.534374 392.01562 32.378124Q392.01562 37.065624 394.9375 41.753124L393.67188 41.753124ZM397.3125 37.55L397.3125 23.2375L399.07812 23.2375L399.07812 28.3625Q400.3125 26.940624 402.1875 26.940624Q403.32812 26.940624 404.17188 27.39375Q405.03125 27.846874 405.39062 28.659374Q405.76562 29.45625 405.76562 30.971874L405.76562 37.55L404.01562 37.55L404.01562 30.971874Q404.01562 29.659374 403.4375 29.065624Q402.85938 28.45625 401.82812 28.45625Q401.04688 28.45625 400.34375 28.8625Q399.65625 29.26875 399.35938 29.971874Q399.07812 30.659374 399.07812 31.878124L399.07812 37.55L397.3125 37.55ZM406.67188 32.3625Q406.67188 29.4875 408.26562 28.096874Q409.60938 26.940624 411.53125 26.940624Q413.67188 26.940624 415.01562 28.346874Q416.375 29.753124 416.375 32.221874Q416.375 34.221874 415.78125 35.378124Q415.1875 36.51875 414.03125 37.159374Q412.89062 37.784374 411.53125 37.784374Q409.34375 37.784374 408.0 36.39375Q406.67188 34.9875 406.67188 32.3625ZM408.46875 32.3625Q408.46875 34.3625 409.32812 35.346874Q410.20312 36.33125 411.53125 36.33125Q412.84375 36.33125 413.70312 35.346874Q414.57812 34.346874 414.57812 32.3Q414.57812 30.378124 413.70312 29.39375Q412.82812 28.39375 411.53125 28.39375Q410.20312 28.39375 409.32812 29.39375Q408.46875 30.378124 408.46875 32.3625ZM418.29688 37.55L418.29688 27.175L419.875 27.175L419.875 28.753124Q420.48438 27.64375 421.0 27.3Q421.51562 26.940624 422.125 26.940624Q423.01562 26.940624 423.9375 27.503124L423.32812 29.14375Q422.6875 28.753124 422.04688 28.753124Q421.46875 28.753124 421.0 29.1125Q420.54688 29.45625 420.34375 30.065624Q420.0625 31.003124 420.0625 32.1125L420.0625 37.55L418.29688 37.55ZM424.60938 34.45625L426.35938 34.175Q426.5 35.221874 427.17188 35.784374Q427.84375 36.33125 429.04688 36.33125Q430.25 36.33125 430.82812 35.846874Q431.42188 35.346874 431.42188 34.690624Q431.42188 34.096874 430.90625 33.753124Q430.54688 33.51875 429.10938 33.159374Q427.17188 32.659374 426.42188 32.315624Q425.6875 31.95625 425.29688 31.33125Q424.90625 30.690624 424.90625 29.925Q424.90625 29.2375 425.21875 28.64375Q425.54688 28.05 426.09375 27.659374Q426.5 27.3625 427.20312 27.159374Q427.92188 26.940624 428.73438 26.940624Q429.95312 26.940624 430.875 27.3Q431.79688 27.64375 432.23438 28.253124Q432.67188 28.846874 432.84375 29.846874L431.125 30.08125Q431.0 29.284374 430.4375 28.846874Q429.875 28.39375 428.85938 28.39375Q427.64062 28.39375 427.125 28.8Q426.60938 29.190624 426.60938 29.721874Q426.60938 30.065624 426.82812 30.346874Q427.03125 30.628124 427.5 30.815624Q427.76562 30.909374 429.04688 31.253124Q430.92188 31.753124 431.65625 32.08125Q432.39062 32.39375 432.8125 33.003124Q433.23438 33.596874 433.23438 34.503124Q433.23438 35.378124 432.71875 36.159374Q432.20312 36.940624 431.23438 37.3625Q430.26562 37.784374 429.04688 37.784374Q427.03125 37.784374 425.96875 36.940624Q424.90625 36.096874 424.60938 34.45625ZM441.3125 37.55L441.3125 27.175L442.89062 27.175L442.89062 28.628124Q443.375 27.878124 444.1875 27.409374Q445.0 26.940624 446.03125 26.940624Q447.1875 26.940624 447.92188 27.425Q448.65625 27.89375 448.96875 28.753124Q450.20312 26.940624 452.17188 26.940624Q453.71875 26.940624 454.54688 27.8Q455.375 28.659374 455.375 30.425L455.375 37.55L453.625 37.55L453.625 31.01875Q453.625 29.95625 453.45312 29.503124Q453.28125 29.034374 452.82812 28.753124Q452.39062 28.471874 451.78125 28.471874Q450.6875 28.471874 449.95312 29.20625Q449.23438 29.925 449.23438 31.51875L449.23438 37.55L447.48438 37.55L447.48438 30.815624Q447.48438 29.64375 447.04688 29.065624Q446.625 28.471874 445.64062 28.471874Q444.90625 28.471874 444.26562 28.8625Q443.64062 29.253124 443.35938 30.003124Q443.07812 30.753124 443.07812 32.175L443.07812 37.55L441.3125 37.55ZM464.09375 36.26875Q463.10938 37.096874 462.20312 37.440624Q461.29688 37.784374 460.26562 37.784374Q458.5625 37.784374 457.64062 36.95625Q456.71875 36.1125 456.71875 34.815624Q456.71875 34.05 457.0625 33.425Q457.42188 32.8 457.98438 32.425Q458.54688 32.034374 459.25 31.83125Q459.76562 31.70625 460.8125 31.565624Q462.9375 31.315624 463.9375 30.971874Q463.95312 30.6125 463.95312 30.503124Q463.95312 29.440624 463.45312 28.9875Q462.78125 28.39375 461.45312 28.39375Q460.20312 28.39375 459.60938 28.83125Q459.03125 29.26875 458.75 30.378124L457.03125 30.14375Q457.26562 29.034374 457.79688 28.3625Q458.32812 27.675 459.34375 27.315624Q460.35938 26.940624 461.70312 26.940624Q463.03125 26.940624 463.85938 27.253124Q464.6875 27.565624 465.07812 28.05Q465.46875 28.51875 465.625 29.2375Q465.71875 29.690624 465.71875 30.8625L465.71875 33.20625Q465.71875 35.659374 465.82812 36.315624Q465.9375 36.95625 466.28125 37.55L464.4375 37.55Q464.17188 37.003124 464.09375 36.26875ZM463.9375 32.346874Q462.98438 32.7375 461.0625 33.003124Q459.98438 33.159374 459.53125 33.3625Q459.09375 33.55 458.84375 33.925Q458.59375 34.3 458.59375 34.76875Q458.59375 35.471874 459.125 35.940624Q459.65625 36.409374 460.6875 36.409374Q461.70312 36.409374 462.48438 35.971874Q463.28125 35.51875 463.65625 34.753124Q463.9375 34.14375 463.9375 32.9875L463.9375 32.346874ZM468.32812 25.253124L468.32812 23.2375L470.09375 23.2375L470.09375 25.253124L468.32812 25.253124ZM468.32812 37.55L468.32812 27.175L470.09375 27.175L470.09375 37.55L468.32812 37.55ZM472.28125 37.55L472.28125 23.2375L474.03125 23.2375L474.03125 37.55L472.28125 37.55ZM475.60938 34.45625L477.35938 34.175Q477.5 35.221874 478.17188 35.784374Q478.84375 36.33125 480.04688 36.33125Q481.25 36.33125 481.82812 35.846874Q482.42188 35.346874 482.42188 34.690624Q482.42188 34.096874 481.90625 33.753124Q481.54688 33.51875 480.10938 33.159374Q478.17188 32.659374 477.42188 32.315624Q476.6875 31.95625 476.29688 31.33125Q475.90625 30.690624 475.90625 29.925Q475.90625 29.2375 476.21875 28.64375Q476.54688 28.05 477.09375 27.659374Q477.5 27.3625 478.20312 27.159374Q478.92188 26.940624 479.73438 26.940624Q480.95312 26.940624 481.875 27.3Q482.79688 27.64375 483.23438 28.253124Q483.67188 28.846874 483.84375 29.846874L482.125 30.08125Q482.0 29.284374 481.4375 28.846874Q480.875 28.39375 479.85938 28.39375Q478.64062 28.39375 478.125 28.8Q477.60938 29.190624 477.60938 29.721874Q477.60938 30.065624 477.82812 30.346874Q478.03125 30.628124 478.5 30.815624Q478.76562 30.909374 480.04688 31.253124Q481.92188 31.753124 482.65625 32.08125Q483.39062 32.39375 483.8125 33.003124Q484.23438 33.596874 484.23438 34.503124Q484.23438 35.378124 483.71875 36.159374Q483.20312 36.940624 482.23438 37.3625Q481.26562 37.784374 480.04688 37.784374Q478.03125 37.784374 476.96875 36.940624Q475.90625 36.096874 475.60938 34.45625ZM487.46875 41.753124L486.21875 41.753124Q489.125 37.065624 489.125 32.378124Q489.125 30.534374 488.71875 28.7375Q488.375 27.26875 487.78125 25.925Q487.40625 25.034374 486.21875 22.9875L487.46875 22.9875Q489.3125 25.440624 490.1875 27.909374Q490.9375 30.034374 490.9375 32.3625Q490.9375 35.003124 489.92188 37.471874Q488.92188 39.925 487.46875 41.753124Z" fill-rule="nonzero"/></svg>