<svg version="1.1" viewBox="0.0 0.0 600.0 371.0" fill="none" stroke="none" stroke-linecap="square" stroke-miterlimit="10" width="600" height="371" xmlns:xlink="http://www.w3.org/1999/xlink" xmlns="http://www.w3.org/2000/svg"><path fill="#ffffff" d="M0 0L600.0 0L600.0 371.0L0 371.0L0 0Z" fill-rule="nonzero"/><path fill="#ea4335" d="M229.3212 72.77869C251.03476 61.054966 275.3236 54.916668 300.0 54.916668L300.0 203.68333Z" fill-rule="nonzero"/><path fill="#4285f4" d="M300.0 54.916668C375.05972 54.916668 438.3623 110.83208 447.62866 185.31761C456.89502 259.80313 409.22226 329.5244 336.45047 347.91537C263.67868 366.30634 188.60538 327.60556 161.3712 257.6609C134.13701 187.71619 163.2737 108.43944 229.3212 72.77869L300.0 203.68333Z" fill-rule="nonzero"/><path fill="#1a1a1a" d="M18.534374 65.916664L21.83125 57.322914L23.05 57.322914L26.565624 65.916664L25.284374 65.916664L24.26875 63.30729L20.690624 63.30729L19.7375 65.916664L18.534374 65.916664ZM21.01875 62.385414L23.925 62.385414L23.034374 60.010414Q22.6125 58.93229 22.425 58.229164Q22.253124 59.05729 21.95625 59.86979L21.01875 62.385414ZM30.425 65.916664L30.425 64.99479Q29.690624 66.05729 28.440624 66.05729Q27.89375 66.05729 27.409374 65.854164Q26.940624 65.635414 26.70625 65.322914Q26.471874 64.99479 26.378124 64.52604Q26.315624 64.229164 26.315624 63.541664L26.315624 59.697914L27.378124 59.697914L27.378124 63.15104Q27.378124 63.96354 27.440624 64.260414Q27.534374 64.666664 27.846874 64.916664Q28.175 65.15104 28.659374 65.15104Q29.128124 65.15104 29.534374 64.916664Q29.95625 64.666664 30.128124 64.24479Q30.315624 63.822914 30.315624 63.02604L30.315624 59.697914L31.3625 59.697914L31.3625 65.916664L30.425 65.916664ZM35.64375 64.979164L35.8 65.90104Q35.346874 65.99479 35.003124 65.99479Q34.425 65.99479 34.1125 65.822914Q33.8 65.635414 33.659374 65.33854Q33.534374 65.041664 33.534374 64.08854L33.534374 60.510414L32.76875 60.510414L32.76875 59.697914L33.534374 59.697914L33.534374 58.15104L34.58125 57.52604L34.58125 59.697914L35.64375 59.697914L35.64375 60.510414L34.58125 60.510414L34.58125 64.15104Q34.58125 64.604164 34.628124 64.729164Q34.690624 64.854164 34.815624 64.93229Q34.940624 65.010414 35.175 65.010414Q35.3625 65.010414 35.64375 64.979164ZM36.33125 65.916664L36.33125 59.697914L37.284374 59.697914L37.284374 60.635414Q37.64375 59.979164 37.940624 59.77604Q38.253124 59.55729 38.628124 59.55729Q39.159374 59.55729 39.70625 59.885414L39.346874 60.86979Q38.95625 60.635414 38.58125 60.635414Q38.221874 60.635414 37.940624 60.854164Q37.675 61.05729 37.565624 61.43229Q37.378124 61.99479 37.378124 62.65104L37.378124 65.916664L36.33125 65.916664ZM44.596874 63.916664L45.690624 64.041664Q45.440624 64.99479 44.7375 65.52604Q44.034374 66.05729 42.95625 66.05729Q41.596874 66.05729 40.784374 65.21354Q39.9875 64.36979 39.9875 62.854164Q39.9875 61.291664 40.8 60.43229Q41.6125 59.55729 42.89375 59.55729Q44.14375 59.55729 44.925 60.40104Q45.721874 61.24479 45.721874 62.791664Q45.721874 62.885414 45.721874 63.072914L41.08125 63.072914Q41.14375 64.104164 41.659374 64.65104Q42.175 65.18229 42.95625 65.18229Q43.534374 65.18229 43.940624 64.885414Q44.3625 64.572914 44.596874 63.916664ZM41.14375 62.21354L44.6125 62.21354Q44.55 61.416664 44.221874 61.02604Q43.70625 60.416664 42.909374 60.416664Q42.175 60.416664 41.675 60.90104Q41.190624 61.385414 41.14375 62.21354ZM46.925 64.05729L47.95625 63.90104Q48.05 64.52604 48.440624 64.854164Q48.846874 65.18229 49.58125 65.18229Q50.3 65.18229 50.64375 64.90104Q51.003124 64.604164 51.003124 64.197914Q51.003124 63.83854 50.690624 63.635414Q50.471874 63.49479 49.6125 63.27604Q48.45625 62.979164 48.003124 62.77604Q47.565624 62.55729 47.33125 62.18229Q47.096874 61.80729 47.096874 61.33854Q47.096874 60.93229 47.284374 60.572914Q47.471874 60.21354 47.8 59.979164Q48.05 59.80729 48.471874 59.68229Q48.89375 59.55729 49.39375 59.55729Q50.1125 59.55729 50.659374 59.77604Q51.221874 59.979164 51.4875 60.33854Q51.753124 60.697914 51.846874 61.291664L50.815624 61.43229Q50.753124 60.96354 50.409374 60.697914Q50.08125 60.416664 49.45625 60.416664Q48.7375 60.416664 48.425 60.666664Q48.1125 60.90104 48.1125 61.229164Q48.1125 61.43229 48.2375 61.58854Q48.378124 61.760414 48.64375 61.86979Q48.8 61.93229 49.58125 62.135414Q50.70625 62.447914 51.14375 62.635414Q51.58125 62.822914 51.83125 63.18229Q52.08125 63.541664 52.08125 64.08854Q52.08125 64.61979 51.76875 65.08854Q51.471874 65.541664 50.89375 65.80729Q50.315624 66.05729 49.58125 66.05729Q48.3625 66.05729 47.721874 65.55729Q47.096874 65.041664 46.925 64.05729Z" fill-rule="nonzero"/><path fill="#9e9e9e" d="M19.1125 75.447914L19.1125 74.43229L24.675 74.43229L24.675 75.260414Q23.8625 76.135414 23.05 77.58854Q22.253124 79.02604 21.815624 80.55729Q21.4875 81.635414 21.409374 82.916664L20.315624 82.916664Q20.33125 81.90104 20.70625 80.46354Q21.096874 79.02604 21.8 77.697914Q22.51875 76.36979 23.33125 75.447914L19.1125 75.447914ZM26.6125 82.916664L26.6125 81.71354L27.815624 81.71354L27.815624 82.916664Q27.815624 83.572914 27.58125 83.979164Q27.346874 84.40104 26.846874 84.61979L26.55 84.166664Q26.878124 84.02604 27.034374 83.729164Q27.190624 83.447914 27.221874 82.916664L26.6125 82.916664ZM29.20625 80.93229L30.221874 80.83854Q30.346874 81.55729 30.70625 81.885414Q31.08125 82.197914 31.64375 82.197914Q32.128124 82.197914 32.4875 81.979164Q32.8625 81.74479 33.096874 81.385414Q33.33125 81.010414 33.4875 80.385414Q33.64375 79.74479 33.64375 79.08854Q33.64375 79.010414 33.64375 78.86979Q33.33125 79.36979 32.784374 79.697914Q32.2375 80.010414 31.596874 80.010414Q30.51875 80.010414 29.784374 79.24479Q29.05 78.46354 29.05 77.197914Q29.05 75.885414 29.815624 75.08854Q30.596874 74.291664 31.753124 74.291664Q32.58125 74.291664 33.26875 74.74479Q33.971874 75.197914 34.33125 76.041664Q34.690624 76.86979 34.690624 78.447914Q34.690624 80.08854 34.33125 81.072914Q33.9875 82.041664 33.26875 82.55729Q32.565624 83.05729 31.628124 83.05729Q30.6125 83.05729 29.971874 82.510414Q29.33125 81.947914 29.20625 80.93229ZM33.51875 77.135414Q33.51875 76.229164 33.034374 75.697914Q32.565624 75.166664 31.878124 75.166664Q31.175 75.166664 30.64375 75.74479Q30.128124 76.30729 30.128124 77.229164Q30.128124 78.041664 30.628124 78.55729Q31.128124 79.072914 31.846874 79.072914Q32.58125 79.072914 33.05 78.55729Q33.51875 78.041664 33.51875 77.135414ZM36.253124 76.385414Q36.253124 75.46354 36.70625 74.822914Q37.175 74.18229 38.05 74.18229Q38.8625 74.18229 39.39375 74.760414Q39.925 75.33854 39.925 76.447914Q39.925 77.541664 39.378124 78.135414Q38.846874 78.71354 38.065624 78.71354Q37.284374 78.71354 36.76875 78.135414Q36.253124 77.55729 36.253124 76.385414ZM38.08125 74.90104Q37.690624 74.90104 37.425 75.24479Q37.175 75.58854 37.175 76.49479Q37.175 77.322914 37.425 77.666664Q37.690624 77.99479 38.08125 77.99479Q38.4875 77.99479 38.7375 77.65104Q39.003124 77.30729 39.003124 76.416664Q39.003124 75.572914 38.7375 75.24479Q38.471874 74.90104 38.08125 74.90104ZM38.08125 83.229164L42.784374 74.18229L43.64375 74.18229L38.95625 83.229164L38.08125 83.229164ZM41.8 80.90104Q41.8 79.979164 42.253124 79.33854Q42.721874 78.697914 43.6125 78.697914Q44.425 78.697914 44.95625 79.27604Q45.4875 79.83854 45.4875 80.96354Q45.4875 82.05729 44.940624 82.65104Q44.409374 83.229164 43.6125 83.229164Q42.846874 83.229164 42.315624 82.65104Q41.8 82.072914 41.8 80.90104ZM43.64375 79.416664Q43.2375 79.416664 42.971874 79.760414Q42.721874 80.104164 42.721874 81.010414Q42.721874 81.822914 42.9875 82.166664Q43.253124 82.510414 43.64375 82.510414Q44.034374 82.510414 44.3 82.166664Q44.565624 81.822914 44.565624 80.916664Q44.565624 80.08854 44.3 79.760414Q44.034374 79.416664 43.64375 79.416664Z" fill-rule="nonzero"/><path stroke="#757575" stroke-width="1.0" stroke-linecap="butt" d="M18.55 70.416664L145.23334 70.416664L265.37207 66.66289" fill-rule="nonzero"/><path fill="#9e9e9e" d="M267.37207 66.66289C267.37207 65.55831 266.47662 64.66289 265.37207 64.66289C264.2675 64.66289 263.37207 65.55831 263.37207 66.66289C263.37207 67.767456 264.2675 68.66289 265.37207 68.66289C266.47662 68.66289 267.37207 67.767456 267.37207 66.66289" fill-rule="nonzero"/><path fill="#1a1a1a" d="M530.9969 329.6844L532.0594 329.59064Q532.1375 330.2469 532.41876 330.65314Q532.7 331.0594 533.27814 331.325Q533.8719 331.575 534.60626 331.575Q535.2469 331.575 535.7469 331.3875Q536.2469 331.1844 536.48126 330.85626Q536.73126 330.5125 536.73126 330.1219Q536.73126 329.71564 536.4969 329.41876Q536.2625 329.10626 535.73126 328.90314Q535.3719 328.7625 534.1844 328.48126Q533.0125 328.2 532.54376 327.95Q531.91876 327.6219 531.6219 327.15314Q531.325 326.66876 531.325 326.075Q531.325 325.4344 531.6844 324.8719Q532.0594 324.29376 532.7625 324.0125Q533.48126 323.71564 534.34064 323.71564Q535.29376 323.71564 536.02814 324.02814Q536.7625 324.325 537.15314 324.9344Q537.54376 325.52814 537.575 326.27814L536.48126 326.35626Q536.3875 325.54376 535.8719 325.1375Q535.3719 324.71564 534.3875 324.71564Q533.35626 324.71564 532.8875 325.09064Q532.41876 325.46564 532.41876 325.9969Q532.41876 326.46564 532.7469 326.7625Q533.075 327.0594 534.45 327.3719Q535.84064 327.6844 536.35626 327.91876Q537.10626 328.27814 537.46564 328.8094Q537.825 329.325 537.825 330.02814Q537.825 330.71564 537.4344 331.325Q537.04376 331.91876 536.3094 332.2625Q535.575 332.59064 534.65314 332.59064Q533.48126 332.59064 532.6844 332.2625Q531.90314 331.91876 531.45 331.23126Q531.0125 330.54376 530.9969 329.6844ZM543.325 332.45L543.325 331.52814Q542.59064 332.59064 541.34064 332.59064Q540.79376 332.59064 540.3094 332.3875Q539.84064 332.16876 539.60626 331.85626Q539.3719 331.52814 539.27814 331.0594Q539.21564 330.7625 539.21564 330.075L539.21564 326.23126L540.27814 326.23126L540.27814 329.6844Q540.27814 330.4969 540.34064 330.79376Q540.4344 331.2 540.7469 331.45Q541.075 331.6844 541.5594 331.6844Q542.02814 331.6844 542.4344 331.45Q542.85626 331.2 543.02814 330.77814Q543.21564 330.35626 543.21564 329.5594L543.21564 326.23126L544.2625 326.23126L544.2625 332.45L543.325 332.45ZM547.21564 332.45L546.23126 332.45L546.23126 323.85626L547.29376 323.85626L547.29376 326.91876Q547.96564 326.09064 548.9969 326.09064Q549.575 326.09064 550.075 326.325Q550.59064 326.54376 550.91876 326.96564Q551.2625 327.3875 551.45 327.98126Q551.6375 328.575 551.6375 329.2469Q551.6375 330.84064 550.84064 331.71564Q550.04376 332.59064 548.95 332.59064Q547.84064 332.59064 547.21564 331.66876L547.21564 332.45ZM547.2 329.29376Q547.2 330.40314 547.5125 330.90314Q548.0125 331.71564 548.85626 331.71564Q549.54376 331.71564 550.04376 331.1219Q550.5594 330.52814 550.5594 329.325Q550.5594 328.10626 550.075 327.52814Q549.59064 326.95 548.90314 326.95Q548.21564 326.95 547.7 327.5594Q547.2 328.15314 547.2 329.29376ZM552.825 330.59064L553.85626 330.4344Q553.95 331.0594 554.34064 331.3875Q554.7469 331.71564 555.48126 331.71564Q556.2 331.71564 556.54376 331.4344Q556.90314 331.1375 556.90314 330.73126Q556.90314 330.3719 556.59064 330.16876Q556.3719 330.02814 555.5125 329.8094Q554.35626 329.5125 553.90314 329.3094Q553.46564 329.09064 553.23126 328.71564Q552.9969 328.34064 552.9969 327.8719Q552.9969 327.46564 553.1844 327.10626Q553.3719 326.7469 553.7 326.5125Q553.95 326.34064 554.3719 326.21564Q554.79376 326.09064 555.29376 326.09064Q556.0125 326.09064 556.5594 326.3094Q557.1219 326.5125 557.3875 326.8719Q557.65314 327.23126 557.7469 327.825L556.71564 327.96564Q556.65314 327.4969 556.3094 327.23126Q555.98126 326.95 555.35626 326.95Q554.6375 326.95 554.325 327.2Q554.0125 327.4344 554.0125 327.7625Q554.0125 327.96564 554.1375 328.1219Q554.27814 328.29376 554.54376 328.40314Q554.7 328.46564 555.48126 328.66876Q556.60626 328.98126 557.04376 329.16876Q557.48126 329.35626 557.73126 329.71564Q557.98126 330.075 557.98126 330.6219Q557.98126 331.15314 557.66876 331.6219Q557.3719 332.075 556.79376 332.34064Q556.21564 332.59064 555.48126 332.59064Q554.2625 332.59064 553.6219 332.09064Q552.9969 331.575 552.825 330.59064ZM562.54376 331.5125L562.7 332.4344Q562.2469 332.52814 561.90314 332.52814Q561.325 332.52814 561.0125 332.35626Q560.7 332.16876 560.5594 331.8719Q560.4344 331.575 560.4344 330.6219L560.4344 327.04376L559.66876 327.04376L559.66876 326.23126L560.4344 326.23126L560.4344 324.6844L561.48126 324.0594L561.48126 326.23126L562.54376 326.23126L562.54376 327.04376L561.48126 327.04376L561.48126 330.6844Q561.48126 331.1375 561.52814 331.2625Q561.59064 331.3875 561.71564 331.46564Q561.84064 331.54376 562.075 331.54376Q562.2625 331.54376 562.54376 331.5125ZM567.3094 331.6844Q566.71564 332.1844 566.16876 332.3875Q565.6375 332.59064 565.0125 332.59064Q563.98126 332.59064 563.4344 332.09064Q562.8875 331.59064 562.8875 330.8094Q562.8875 330.35626 563.09064 329.98126Q563.29376 329.59064 563.6375 329.3719Q563.98126 329.1375 564.40314 329.02814Q564.7 328.9344 565.34064 328.85626Q566.60626 328.71564 567.21564 328.4969Q567.21564 328.27814 567.21564 328.23126Q567.21564 327.575 566.91876 327.3094Q566.5125 326.96564 565.71564 326.96564Q564.98126 326.96564 564.6219 327.23126Q564.2625 327.48126 564.09064 328.1375L563.0594 327.9969Q563.2 327.34064 563.52814 326.9344Q563.85626 326.52814 564.46564 326.3094Q565.075 326.09064 565.8719 326.09064Q566.66876 326.09064 567.16876 326.27814Q567.66876 326.46564 567.90314 326.7469Q568.1375 327.02814 568.23126 327.46564Q568.27814 327.73126 568.27814 328.4344L568.27814 329.84064Q568.27814 331.3094 568.34064 331.7Q568.41876 332.09064 568.6219 332.45L567.5125 332.45Q567.35626 332.1219 567.3094 331.6844ZM567.21564 329.325Q566.6375 329.5594 565.4969 329.73126Q564.84064 329.825 564.575 329.95Q564.3094 330.0594 564.15314 330.27814Q564.0125 330.4969 564.0125 330.77814Q564.0125 331.2 564.325 331.48126Q564.65314 331.7625 565.2625 331.7625Q565.8719 331.7625 566.34064 331.4969Q566.825 331.23126 567.04376 330.7625Q567.21564 330.40314 567.21564 329.71564L567.21564 329.325ZM574.3094 330.16876L575.34064 330.3094Q575.16876 331.3719 574.46564 331.98126Q573.7625 332.59064 572.7469 332.59064Q571.46564 332.59064 570.6844 331.7625Q569.91876 330.91876 569.91876 329.35626Q569.91876 328.35626 570.2469 327.60626Q570.59064 326.84064 571.2625 326.46564Q571.95 326.09064 572.7625 326.09064Q573.7625 326.09064 574.40314 326.60626Q575.0594 327.10626 575.2469 328.0594L574.21564 328.21564Q574.075 327.59064 573.7 327.27814Q573.325 326.95 572.79376 326.95Q571.9969 326.95 571.4969 327.52814Q570.9969 328.09064 570.9969 329.325Q570.9969 330.59064 571.48126 331.15314Q571.96564 331.71564 572.73126 331.71564Q573.35626 331.71564 573.7625 331.34064Q574.1844 330.96564 574.3094 330.16876ZM576.2469 332.45L576.2469 323.85626L577.3094 323.85626L577.3094 328.7625L579.79376 326.23126L581.16876 326.23126L578.77814 328.52814L581.40314 332.45L580.10626 332.45L578.04376 329.2625L577.3094 329.98126L577.3094 332.45L576.2469 332.45Z" fill-rule="nonzero"/><path fill="#9e9e9e" d="M547.10626 347.46564L548.1219 347.3719Q548.2469 348.09064 548.60626 348.41876Q548.98126 348.73126 549.54376 348.73126Q550.02814 348.73126 550.3875 348.5125Q550.7625 348.27814 550.9969 347.91876Q551.23126 347.54376 551.3875 346.91876Q551.54376 346.27814 551.54376 345.6219Q551.54376 345.54376 551.54376 345.40314Q551.23126 345.90314 550.6844 346.23126Q550.1375 346.54376 549.4969 346.54376Q548.41876 346.54376 547.6844 345.77814Q546.95 344.9969 546.95 343.73126Q546.95 342.41876 547.71564 341.6219Q548.4969 340.825 549.65314 340.825Q550.48126 340.825 551.16876 341.27814Q551.8719 341.73126 552.23126 342.575Q552.59064 343.40314 552.59064 344.98126Q552.59064 346.6219 552.23126 347.60626Q551.8875 348.575 551.16876 349.09064Q550.46564 349.59064 549.52814 349.59064Q548.5125 349.59064 547.8719 349.04376Q547.23126 348.48126 547.10626 347.46564ZM551.41876 343.66876Q551.41876 342.7625 550.9344 342.23126Q550.46564 341.7 549.77814 341.7Q549.075 341.7 548.54376 342.27814Q548.02814 342.84064 548.02814 343.7625Q548.02814 344.575 548.52814 345.09064Q549.02814 345.60626 549.7469 345.60626Q550.48126 345.60626 550.95 345.09064Q551.41876 344.575 551.41876 343.66876ZM559.4969 348.4344L559.4969 349.45L553.8094 349.45Q553.8094 349.075 553.9344 348.71564Q554.15314 348.1375 554.6219 347.575Q555.10626 347.0125 556.0125 346.27814Q557.41876 345.1219 557.90314 344.45Q558.40314 343.77814 558.40314 343.1844Q558.40314 342.5594 557.95 342.1375Q557.4969 341.7 556.77814 341.7Q556.0125 341.7 555.5594 342.15314Q555.10626 342.60626 555.09064 343.41876L554.0125 343.3094Q554.1219 342.09064 554.84064 341.46564Q555.575 340.825 556.8094 340.825Q558.04376 340.825 558.7625 341.5125Q559.48126 342.2 559.48126 343.21564Q559.48126 343.73126 559.2625 344.23126Q559.0594 344.71564 558.5594 345.27814Q558.075 345.825 556.95 346.77814Q555.9969 347.575 555.71564 347.8719Q555.45 348.15314 555.27814 348.4344L559.4969 348.4344ZM561.5125 349.45L561.5125 348.2469L562.71564 348.2469L562.71564 349.45Q562.71564 350.10626 562.48126 350.5125Q562.2469 350.9344 561.7469 351.15314L561.45 350.7Q561.77814 350.5594 561.9344 350.2625Q562.09064 349.98126 562.1219 349.45L561.5125 349.45ZM567.91876 349.45L566.8719 349.45L566.8719 342.73126Q566.48126 343.09064 565.85626 343.46564Q565.2469 343.825 564.7625 343.9969L564.7625 342.98126Q565.6375 342.5594 566.29376 341.98126Q566.96564 341.3875 567.2469 340.825L567.91876 340.825L567.91876 349.45ZM571.15314 342.91876Q571.15314 341.9969 571.60626 341.35626Q572.075 340.71564 572.95 340.71564Q573.7625 340.71564 574.29376 341.29376Q574.825 341.8719 574.825 342.98126Q574.825 344.075 574.27814 344.66876Q573.7469 345.2469 572.96564 345.2469Q572.1844 345.2469 571.66876 344.66876Q571.15314 344.09064 571.15314 342.91876ZM572.98126 341.4344Q572.59064 341.4344 572.325 341.77814Q572.075 342.1219 572.075 343.02814Q572.075 343.85626 572.325 344.2Q572.59064 344.52814 572.98126 344.52814Q573.3875 344.52814 573.6375 344.1844Q573.90314 343.84064 573.90314 342.95Q573.90314 342.10626 573.6375 341.77814Q573.3719 341.4344 572.98126 341.4344ZM572.98126 349.7625L577.6844 340.71564L578.54376 340.71564L573.85626 349.7625L572.98126 349.7625ZM576.7 347.4344Q576.7 346.5125 577.15314 345.8719Q577.6219 345.23126 578.5125 345.23126Q579.325 345.23126 579.85626 345.8094Q580.3875 346.3719 580.3875 347.4969Q580.3875 348.59064 579.84064 349.1844Q579.3094 349.7625 578.5125 349.7625Q577.7469 349.7625 577.21564 349.1844Q576.7 348.60626 576.7 347.4344ZM578.54376 345.95Q578.1375 345.95 577.8719 346.29376Q577.6219 346.6375 577.6219 347.54376Q577.6219 348.35626 577.8875 348.7Q578.15314 349.04376 578.54376 349.04376Q578.9344 349.04376 579.2 348.7Q579.46564 348.35626 579.46564 347.45Q579.46564 346.6219 579.2 346.29376Q578.9344 345.95 578.54376 345.95Z" fill-rule="nonzero"/><path stroke="#757575" stroke-width="1.0" stroke-linecap="butt" d="M581.45 336.95L454.76666 336.95L334.62793 340.7038" fill-rule="nonzero"/><path fill="#9e9e9e" d="M336.62793 340.7038C336.62793 339.5992 335.7325 338.7038 334.62793 338.7038C333.52338 338.7038 332.62793 339.5992 332.62793 340.7038C332.62793 341.80835 333.52338 342.7038 334.62793 342.7038C335.7325 342.7038 336.62793 341.80835 336.62793 340.7038" fill-rule="nonzero"/><path fill="#757575" d="M182.14062 37.55L176.59375 23.2375L178.64062 23.2375L182.35938 33.628124Q182.8125 34.878124 183.10938 35.971874Q183.4375 34.8 183.89062 33.628124L187.75 23.2375L189.6875 23.2375L184.07812 37.55L182.14062 37.55ZM197.60938 37.55L197.60938 36.01875Q196.40625 37.784374 194.32812 37.784374Q193.40625 37.784374 192.60938 37.440624Q191.8125 37.08125 191.42188 36.55Q191.04688 36.01875 190.89062 35.2375Q190.78125 34.721874 190.78125 33.596874L190.78125 27.175L192.53125 27.175L192.53125 32.925Q192.53125 34.3 192.64062 34.784374Q192.8125 35.471874 193.34375 35.878124Q193.89062 36.26875 194.67188 36.26875Q195.46875 36.26875 196.15625 35.8625Q196.85938 35.45625 197.14062 34.76875Q197.4375 34.065624 197.4375 32.7375L197.4375 27.175L199.1875 27.175L199.1875 37.55L197.60938 37.55ZM207.92188 34.20625L209.73438 34.440624Q209.3125 36.01875 208.14062 36.909374Q206.98438 37.784374 205.17188 37.784374Q202.90625 37.784374 201.5625 36.39375Q200.23438 34.9875 200.23438 32.45625Q200.23438 29.83125 201.57812 28.39375Q202.92188 26.940624 205.07812 26.940624Q207.15625 26.940624 208.46875 28.3625Q209.79688 29.76875 209.79688 32.346874Q209.79688 32.503124 209.78125 32.815624L202.04688 32.815624Q202.14062 34.51875 203.01562 35.425Q203.89062 36.33125 205.1875 36.33125Q206.15625 36.33125 206.82812 35.83125Q207.51562 35.315624 207.92188 34.20625ZM202.14062 31.3625L207.9375 31.3625Q207.82812 30.065624 207.28125 29.409374Q206.4375 28.39375 205.09375 28.39375Q203.89062 28.39375 203.0625 29.20625Q202.23438 30.003124 202.14062 31.3625ZM211.10938 34.45625L212.85938 34.175Q213.0 35.221874 213.67188 35.784374Q214.34375 36.33125 215.54688 36.33125Q216.75 36.33125 217.32812 35.846874Q217.92188 35.346874 217.92188 34.690624Q217.92188 34.096874 217.40625 33.753124Q217.04688 33.51875 215.60938 33.159374Q213.67188 32.659374 212.92188 32.315624Q212.1875 31.95625 211.79688 31.33125Q211.40625 30.690624 211.40625 29.925Q211.40625 29.2375 211.71875 28.64375Q212.04688 28.05 212.59375 27.659374Q213.0 27.3625 213.70312 27.159374Q214.42188 26.940624 215.23438 26.940624Q216.45312 26.940624 217.375 27.3Q218.29688 27.64375 218.73438 28.253124Q219.17188 28.846874 219.34375 29.846874L217.625 30.08125Q217.5 29.284374 216.9375 28.846874Q216.375 28.39375 215.35938 28.39375Q214.14062 28.39375 213.625 28.8Q213.10938 29.190624 213.10938 29.721874Q213.10938 30.065624 213.32812 30.346874Q213.53125 30.628124 214.0 30.815624Q214.26562 30.909374 215.54688 31.253124Q217.42188 31.753124 218.15625 32.08125Q218.89062 32.39375 219.3125 33.003124Q219.73438 33.596874 219.73438 34.503124Q219.73438 35.378124 219.21875 36.159374Q218.70312 36.940624 217.73438 37.3625Q216.76562 37.784374 215.54688 37.784374Q213.53125 37.784374 212.46875 36.940624Q211.40625 36.096874 211.10938 34.45625ZM231.65625 35.971874L231.90625 37.534374Q231.17188 37.690624 230.57812 37.690624Q229.625 37.690624 229.09375 37.39375Q228.57812 37.08125 228.35938 36.596874Q228.14062 36.096874 228.14062 34.51875L228.14062 28.55L226.85938 28.55L226.85938 27.175L228.14062 27.175L228.14062 24.6125L229.89062 23.55L229.89062 27.175L231.65625 27.175L231.65625 28.55L229.89062 28.55L229.89062 34.6125Q229.89062 35.3625 229.98438 35.58125Q230.07812 35.784374 230.28125 35.925Q230.5 36.05 230.89062 36.05Q231.17188 36.05 231.65625 35.971874ZM240.59375 33.753124L242.3125 33.971874Q242.03125 35.76875 240.85938 36.784374Q239.70312 37.784374 238.0 37.784374Q235.875 37.784374 234.57812 36.39375Q233.28125 35.003124 233.28125 32.409374Q233.28125 30.721874 233.82812 29.471874Q234.39062 28.20625 235.53125 27.58125Q236.67188 26.940624 238.01562 26.940624Q239.70312 26.940624 240.76562 27.8Q241.84375 28.659374 242.15625 30.221874L240.4375 30.4875Q240.20312 29.440624 239.57812 28.925Q238.95312 28.39375 238.07812 28.39375Q236.75 28.39375 235.92188 29.346874Q235.09375 30.3 235.09375 32.346874Q235.09375 34.440624 235.89062 35.39375Q236.6875 36.33125 237.98438 36.33125Q239.01562 36.33125 239.70312 35.70625Q240.40625 35.065624 240.59375 33.753124ZM243.79688 37.55L243.79688 27.175L245.375 27.175L245.375 28.753124Q245.98438 27.64375 246.5 27.3Q247.01562 26.940624 247.625 26.940624Q248.51562 26.940624 249.4375 27.503124L248.82812 29.14375Q248.1875 28.753124 247.54688 28.753124Q246.96875 28.753124 246.5 29.1125Q246.04688 29.45625 245.84375 30.065624Q245.5625 31.003124 245.5625 32.1125L245.5625 37.55L243.79688 37.55ZM250.17188 32.3625Q250.17188 29.4875 251.76562 28.096874Q253.10938 26.940624 255.03125 26.940624Q257.17188 26.940624 258.51562 28.346874Q259.875 29.753124 259.875 32.221874Q259.875 34.221874 259.28125 35.378124Q258.6875 36.51875 257.53125 37.159374Q256.39062 37.784374 255.03125 37.784374Q252.84375 37.784374 251.5 36.39375Q250.17188 34.9875 250.17188 32.3625ZM251.96875 32.3625Q251.96875 34.3625 252.82812 35.346874Q253.70312 36.33125 255.03125 36.33125Q256.34375 36.33125 257.20312 35.346874Q258.07812 34.346874 258.07812 32.3Q258.07812 30.378124 257.20312 29.39375Q256.32812 28.39375 255.03125 28.39375Q253.70312 28.39375 252.82812 29.39375Q251.96875 30.378124 251.96875 32.3625ZM268.60938 37.55L268.60938 36.01875Q267.40625 37.784374 265.32812 37.784374Q264.40625 37.784374 263.60938 37.440624Q262.8125 37.08125 262.42188 36.55Q262.04688 36.01875 261.89062 35.2375Q261.78125 34.721874 261.78125 33.596874L261.78125 27.175L263.53125 27.175L263.53125 32.925Q263.53125 34.3 263.64062 34.784374Q263.8125 35.471874 264.34375 35.878124Q264.89062 36.26875 265.67188 36.26875Q266.46875 36.26875 267.15625 35.8625Q267.85938 35.45625 268.14062 34.76875Q268.4375 34.065624 268.4375 32.7375L268.4375 27.175L270.1875 27.175L270.1875 37.55L268.60938 37.55ZM270.89062 37.55L270.89062 36.128124L277.5 28.55Q276.375 28.596874 275.51562 28.596874L271.28125 28.596874L271.28125 27.175L279.76562 27.175L279.76562 28.346874L274.14062 34.925L273.0625 36.128124Q274.23438 36.034374 275.28125 36.034374L280.07812 36.034374L280.07812 37.55L270.89062 37.55ZM287.92188 34.20625L289.73438 34.440624Q289.3125 36.01875 288.14062 36.909374Q286.98438 37.784374 285.17188 37.784374Q282.90625 37.784374 281.5625 36.39375Q280.23438 34.9875 280.23438 32.45625Q280.23438 29.83125 281.57812 28.39375Q282.92188 26.940624 285.07812 26.940624Q287.15625 26.940624 288.46875 28.3625Q289.79688 29.76875 289.79688 32.346874Q289.79688 32.503124 289.78125 32.815624L282.04688 32.815624Q282.14062 34.51875 283.01562 35.425Q283.89062 36.33125 285.1875 36.33125Q286.15625 36.33125 286.82812 35.83125Q287.51562 35.315624 287.92188 34.20625ZM282.14062 31.3625L287.9375 31.3625Q287.82812 30.065624 287.28125 29.409374Q286.4375 28.39375 285.09375 28.39375Q283.89062 28.39375 283.0625 29.20625Q282.23438 30.003124 282.14062 31.3625ZM295.65625 35.971874L295.90625 37.534374Q295.17188 37.690624 294.57812 37.690624Q293.625 37.690624 293.09375 37.39375Q292.57812 37.08125 292.35938 36.596874Q292.14062 36.096874 292.14062 34.51875L292.14062 28.55L290.85938 28.55L290.85938 27.175L292.14062 27.175L292.14062 24.6125L293.89062 23.55L293.89062 27.175L295.65625 27.175L295.65625 28.55L293.89062 28.55L293.89062 34.6125Q293.89062 35.3625 293.98438 35.58125Q294.07812 35.784374 294.28125 35.925Q294.5 36.05 294.89062 36.05Q295.17188 36.05 295.65625 35.971874ZM298.3125 37.55L298.3125 35.55L300.3125 35.55L300.3125 37.55L298.3125 37.55ZM303.10938 34.45625L304.85938 34.175Q305.0 35.221874 305.67188 35.784374Q306.34375 36.33125 307.54688 36.33125Q308.75 36.33125 309.32812 35.846874Q309.92188 35.346874 309.92188 34.690624Q309.92188 34.096874 309.40625 33.753124Q309.04688 33.51875 307.60938 33.159374Q305.67188 32.659374 304.92188 32.315624Q304.1875 31.95625 303.79688 31.33125Q303.40625 30.690624 303.40625 29.925Q303.40625 29.2375 303.71875 28.64375Q304.04688 28.05 304.59375 27.659374Q305.0 27.3625 305.70312 27.159374Q306.42188 26.940624 307.23438 26.940624Q308.45312 26.940624 309.375 27.3Q310.29688 27.64375 310.73438 28.253124Q311.17188 28.846874 311.34375 29.846874L309.625 30.08125Q309.5 29.284374 308.9375 28.846874Q308.375 28.39375 307.35938 28.39375Q306.14062 28.39375 305.625 28.8Q305.10938 29.190624 305.10938 29.721874Q305.10938 30.065624 305.32812 30.346874Q305.53125 30.628124 306.0 30.815624Q306.26562 30.909374 307.54688 31.253124Q309.42188 31.753124 310.15625 32.08125Q310.89062 32.39375 311.3125 33.003124Q311.73438 33.596874 311.73438 34.503124Q311.73438 35.378124 311.21875 36.159374Q310.70312 36.940624 309.73438 37.3625Q308.76562 37.784374 307.54688 37.784374Q305.53125 37.784374 304.46875 36.940624Q303.40625 36.096874 303.10938 34.45625ZM320.60938 37.55L320.60938 36.01875Q319.40625 37.784374 317.32812 37.784374Q316.40625 37.784374 315.60938 37.440624Q314.8125 37.08125 314.42188 36.55Q314.04688 36.01875 313.89062 35.2375Q313.78125 34.721874 313.78125 33.596874L313.78125 27.175L315.53125 27.175L315.53125 32.925Q315.53125 34.3 315.64062 34.784374Q315.8125 35.471874 316.34375 35.878124Q316.89062 36.26875 317.67188 36.26875Q318.46875 36.26875 319.15625 35.8625Q319.85938 35.45625 320.14062 34.76875Q320.4375 34.065624 320.4375 32.7375L320.4375 27.175L322.1875 27.175L322.1875 37.55L320.60938 37.55ZM325.4375 37.55L323.8125 37.55L323.8125 23.2375L325.5625 23.2375L325.5625 28.346874Q326.6875 26.940624 328.40625 26.940624Q329.35938 26.940624 330.21875 27.33125Q331.07812 27.721874 331.625 28.425Q332.17188 29.1125 332.48438 30.096874Q332.79688 31.08125 332.79688 32.20625Q332.79688 34.878124 331.48438 36.33125Q330.17188 37.784374 328.32812 37.784374Q326.48438 37.784374 325.4375 36.253124L325.4375 37.55ZM325.42188 32.284374Q325.42188 34.14375 325.92188 34.9875Q326.76562 36.33125 328.17188 36.33125Q329.32812 36.33125 330.15625 35.33125Q331.0 34.33125 331.0 32.346874Q331.0 30.315624 330.1875 29.3625Q329.39062 28.39375 328.25 28.39375Q327.09375 28.39375 326.25 29.39375Q325.42188 30.39375 325.42188 32.284374ZM334.10938 34.45625L335.85938 34.175Q336.0 35.221874 336.67188 35.784374Q337.34375 36.33125 338.54688 36.33125Q339.75 36.33125 340.32812 35.846874Q340.92188 35.346874 340.92188 34.690624Q340.92188 34.096874 340.40625 33.753124Q340.04688 33.51875 338.60938 33.159374Q336.67188 32.659374 335.92188 32.315624Q335.1875 31.95625 334.79688 31.33125Q334.40625 30.690624 334.40625 29.925Q334.40625 29.2375 334.71875 28.64375Q335.04688 28.05 335.59375 27.659374Q336.0 27.3625 336.70312 27.159374Q337.42188 26.940624 338.23438 26.940624Q339.45312 26.940624 340.375 27.3Q341.29688 27.64375 341.73438 28.253124Q342.17188 28.846874 342.34375 29.846874L340.625 30.08125Q340.5 29.284374 339.9375 28.846874Q339.375 28.39375 338.35938 28.39375Q337.14062 28.39375 336.625 28.8Q336.10938 29.190624 336.10938 29.721874Q336.10938 30.065624 336.32812 30.346874Q336.53125 30.628124 337.0 30.815624Q337.26562 30.909374 338.54688 31.253124Q340.42188 31.753124 341.15625 32.08125Q341.89062 32.39375 342.3125 33.003124Q342.73438 33.596874 342.73438 34.503124Q342.73438 35.378124 342.21875 36.159374Q341.70312 36.940624 340.73438 37.3625Q339.76562 37.784374 338.54688 37.784374Q336.53125 37.784374 335.46875 36.940624Q334.40625 36.096874 334.10938 34.45625ZM348.65625 35.971874L348.90625 37.534374Q348.17188 37.690624 347.57812 37.690624Q346.625 37.690624 346.09375 37.39375Q345.57812 37.08125 345.35938 36.596874Q345.14062 36.096874 345.14062 34.51875L345.14062 28.55L343.85938 28.55L343.85938 27.175L345.14062 27.175L345.14062 24.6125L346.89062 23.55L346.89062 27.175L348.65625 27.175L348.65625 28.55L346.89062 28.55L346.89062 34.6125Q346.89062 35.3625 346.98438 35.58125Q347.07812 35.784374 347.28125 35.925Q347.5 36.05 347.89062 36.05Q348.17188 36.05 348.65625 35.971874ZM357.59375 36.26875Q356.60938 37.096874 355.70312 37.440624Q354.79688 37.784374 353.76562 37.784374Q352.0625 37.784374 351.14062 36.95625Q350.21875 36.1125 350.21875 34.815624Q350.21875 34.05 350.5625 33.425Q350.92188 32.8 351.48438 32.425Q352.04688 32.034374 352.75 31.83125Q353.26562 31.70625 354.3125 31.565624Q356.4375 31.315624 357.4375 30.971874Q357.45312 30.6125 357.45312 30.503124Q357.45312 29.440624 356.95312 28.9875Q356.28125 28.39375 354.95312 28.39375Q353.70312 28.39375 353.10938 28.83125Q352.53125 29.26875 352.25 30.378124L350.53125 30.14375Q350.76562 29.034374 351.29688 28.3625Q351.82812 27.675 352.84375 27.315624Q353.85938 26.940624 355.20312 26.940624Q356.53125 26.940624 357.35938 27.253124Q358.1875 27.565624 358.57812 28.05Q358.96875 28.51875 359.125 29.2375Q359.21875 29.690624 359.21875 30.8625L359.21875 33.20625Q359.21875 35.659374 359.32812 36.315624Q359.4375 36.95625 359.78125 37.55L357.9375 37.55Q357.67188 37.003124 357.59375 36.26875ZM357.4375 32.346874Q356.48438 32.7375 354.5625 33.003124Q353.48438 33.159374 353.03125 33.3625Q352.59375 33.55 352.34375 33.925Q352.09375 34.3 352.09375 34.76875Q352.09375 35.471874 352.625 35.940624Q353.15625 36.409374 354.1875 36.409374Q355.20312 36.409374 355.98438 35.971874Q356.78125 35.51875 357.15625 34.753124Q357.4375 34.14375 357.4375 32.9875L357.4375 32.346874ZM368.59375 33.753124L370.3125 33.971874Q370.03125 35.76875 368.85938 36.784374Q367.70312 37.784374 366.0 37.784374Q363.875 37.784374 362.57812 36.39375Q361.28125 35.003124 361.28125 32.409374Q361.28125 30.721874 361.82812 29.471874Q362.39062 28.20625 363.53125 27.58125Q364.67188 26.940624 366.01562 26.940624Q367.70312 26.940624 368.76562 27.8Q369.84375 28.659374 370.15625 30.221874L368.4375 30.4875Q368.20312 29.440624 367.57812 28.925Q366.95312 28.39375 366.07812 28.39375Q364.75 28.39375 363.92188 29.346874Q363.09375 30.3 363.09375 32.346874Q363.09375 34.440624 363.89062 35.39375Q364.6875 36.33125 365.98438 36.33125Q367.01562 36.33125 367.70312 35.70625Q368.40625 35.065624 368.59375 33.753124ZM371.82812 37.55L371.82812 23.2375L373.59375 23.2375L373.59375 31.39375L377.75 27.175L380.01562 27.175L376.0625 31.01875L380.42188 37.55L378.25 37.55L374.82812 32.253124L373.59375 33.440624L373.59375 37.55L371.82812 37.55ZM382.3125 37.55L382.3125 35.55L384.3125 35.55L384.3125 37.55L382.3125 37.55ZM394.59375 33.753124L396.3125 33.971874Q396.03125 35.76875 394.85938 36.784374Q393.70312 37.784374 392.0 37.784374Q389.875 37.784374 388.57812 36.39375Q387.28125 35.003124 387.28125 32.409374Q387.28125 30.721874 387.82812 29.471874Q388.39062 28.20625 389.53125 27.58125Q390.67188 26.940624 392.01562 26.940624Q393.70312 26.940624 394.76562 27.8Q395.84375 28.659374 396.15625 30.221874L394.4375 30.4875Q394.20312 29.440624 393.57812 28.925Q392.95312 28.39375 392.07812 28.39375Q390.75 28.39375 389.92188 29.346874Q389.09375 30.3 389.09375 32.346874Q389.09375 34.440624 389.89062 35.39375Q390.6875 36.33125 391.98438 36.33125Q393.01562 36.33125 393.70312 35.70625Q394.40625 35.065624 394.59375 33.753124ZM397.17188 32.3625Q397.17188 29.4875 398.76562 28.096874Q400.10938 26.940624 402.03125 26.940624Q404.17188 26.940624 405.51562 28.346874Q406.875 29.753124 406.875 32.221874Q406.875 34.221874 406.28125 35.378124Q405.6875 36.51875 404.53125 37.159374Q403.39062 37.784374 402.03125 37.784374Q399.84375 37.784374 398.5 36.39375Q397.17188 34.9875 397.17188 32.3625ZM398.96875 32.3625Q398.96875 34.3625 399.82812 35.346874Q400.70312 36.33125 402.03125 36.33125Q403.34375 36.33125 404.20312 35.346874Q405.07812 34.346874 405.07812 32.3Q405.07812 30.378124 404.20312 29.39375Q403.32812 28.39375 402.03125 28.39375Q400.70312 28.39375 399.82812 29.39375Q398.96875 30.378124 398.96875 32.3625ZM408.8125 37.55L408.8125 27.175L410.39062 27.175L410.39062 28.628124Q410.875 27.878124 411.6875 27.409374Q412.5 26.940624 413.53125 26.940624Q414.6875 26.940624 415.42188 27.425Q416.15625 27.89375 416.46875 28.753124Q417.70312 26.940624 419.67188 26.940624Q421.21875 26.940624 422.04688 27.8Q422.875 28.659374 422.875 30.425L422.875 37.55L421.125 37.55L421.125 31.01875Q421.125 29.95625 420.95312 29.503124Q420.78125 29.034374 420.32812 28.753124Q419.89062 28.471874 419.28125 28.471874Q418.1875 28.471874 417.45312 29.20625Q416.73438 29.925 416.73438 31.51875L416.73438 37.55L414.98438 37.55L414.98438 30.815624Q414.98438 29.64375 414.54688 29.065624Q414.125 28.471874 413.14062 28.471874Q412.40625 28.471874 411.76562 28.8625Q411.14062 29.253124 410.85938 30.003124Q410.57812 30.753124 410.57812 32.175L410.57812 37.55L408.8125 37.55Z" fill-rule="nonzero"/></svg>