<svg version="1.1" viewBox="0.0 0.0 600.0 371.0" fill="none" stroke="none" stroke-linecap="square" stroke-miterlimit="10" width="600" height="371" xmlns:xlink="http://www.w3.org/1999/xlink" xmlns="http://www.w3.org/2000/svg"><path fill="#ffffff" d="M0 0L600.0 0L600.0 371.0L0 371.0L0 0Z" fill-rule="nonzero"/><path fill="#4285f4" d="M300.0 54.916668C379.34918 54.916668 444.73184 117.1934 448.59064 196.44868C452.44946 275.70398 393.42603 344.03784 314.45218 351.74634L300.0 203.68333Z" fill-rule="nonzero"/><path fill="#46bdc6" d="M292.07224 55.12805C294.7125 54.987152 297.35602 54.916668 300.0 54.916668L300.0 203.68333Z" fill-rule="nonzero"/><path fill="#ff6d01" d="M271.62155 57.648457C278.372 56.336666 285.2053 55.49451 292.07224 55.12805L300.0 203.68333Z" fill-rule="nonzero"/><path fill="#34a853" d="M249.8441 63.626534C256.94128 61.08495 264.2214 59.0865 271.62155 57.648457L300.0 203.68333Z" fill-rule="nonzero"/><path fill="#fbbc04" d="M176.80994 120.28231C194.52127 94.12123 220.10114 74.277824 249.8441 63.626534L300.0 203.68333Z" fill-rule="nonzero"/><path fill="#ea4335" d="M314.45218 351.74634C257.0629 357.34802 201.60536 329.2816 172.13335 279.72043C142.66133 230.15926 144.48367 168.03084 176.80994 120.28231L300.0 203.68333Z" fill-rule="nonzero"/><path fill="#1a1a1a" d="M19.425 65.916664L19.425 57.322914L20.565624 57.322914L20.565624 64.90104L24.8 64.90104L24.8 65.916664L19.425 65.916664ZM26.346874 58.541664L26.346874 57.322914L27.409374 57.322914L27.409374 58.541664L26.346874 58.541664ZM26.346874 65.916664L26.346874 59.697914L27.409374 59.697914L27.409374 65.916664L26.346874 65.916664ZM29.346874 65.916664L29.346874 59.697914L30.284374 59.697914L30.284374 60.572914Q30.971874 59.55729 32.26875 59.55729Q32.83125 59.55729 33.3 59.760414Q33.784374 59.96354 34.01875 60.291664Q34.253124 60.61979 34.346874 61.05729Q34.39375 61.354164 34.39375 62.08854L34.39375 65.916664L33.346874 65.916664L33.346874 62.135414Q33.346874 61.479164 33.221874 61.166664Q33.096874 60.854164 32.784374 60.666664Q32.471874 60.46354 32.05 60.46354Q31.378124 60.46354 30.878124 60.90104Q30.39375 61.322914 30.39375 62.510414L30.39375 65.916664L29.346874 65.916664ZM36.346874 65.916664L36.346874 57.322914L37.409374 57.322914L37.409374 62.229164L39.89375 59.697914L41.26875 59.697914L38.878124 61.99479L41.503124 65.916664L40.20625 65.916664L38.14375 62.729164L37.409374 63.447914L37.409374 65.916664L36.346874 65.916664ZM46.596874 63.916664L47.690624 64.041664Q47.440624 64.99479 46.7375 65.52604Q46.034374 66.05729 44.95625 66.05729Q43.596874 66.05729 42.784374 65.21354Q41.9875 64.36979 41.9875 62.854164Q41.9875 61.291664 42.8 60.43229Q43.6125 59.55729 44.89375 59.55729Q46.14375 59.55729 46.925 60.40104Q47.721874 61.24479 47.721874 62.791664Q47.721874 62.885414 47.721874 63.072914L43.08125 63.072914Q43.14375 64.104164 43.659374 64.65104Q44.175 65.18229 44.95625 65.18229Q45.534374 65.18229 45.940624 64.885414Q46.3625 64.572914 46.596874 63.916664ZM43.14375 62.21354L46.6125 62.21354Q46.55 61.416664 46.221874 61.02604Q45.70625 60.416664 44.909374 60.416664Q44.175 60.416664 43.675 60.90104Q43.190624 61.385414 43.14375 62.21354ZM53.378124 65.916664L53.378124 65.135414Q52.784374 66.05729 51.64375 66.05729Q50.89375 66.05729 50.26875 65.65104Q49.64375 65.229164 49.3 64.49479Q48.95625 63.760414 48.95625 62.80729Q48.95625 61.885414 49.26875 61.11979Q49.58125 60.354164 50.20625 59.96354Q50.83125 59.55729 51.596874 59.55729Q52.159374 59.55729 52.596874 59.791664Q53.034374 60.02604 53.315624 60.40104L53.315624 57.322914L54.3625 57.322914L54.3625 65.916664L53.378124 65.916664ZM50.05 62.80729Q50.05 64.010414 50.55 64.604164Q51.05 65.18229 51.7375 65.18229Q52.425 65.18229 52.909374 64.61979Q53.39375 64.05729 53.39375 62.90104Q53.39375 61.61979 52.89375 61.02604Q52.409374 60.43229 51.690624 60.43229Q50.9875 60.43229 50.51875 61.010414Q50.05 61.572914 50.05 62.80729ZM56.346874 58.541664L56.346874 57.322914L57.409374 57.322914L57.409374 58.541664L56.346874 58.541664ZM56.346874 65.916664L56.346874 59.697914L57.409374 59.697914L57.409374 65.916664L56.346874 65.916664ZM59.346874 65.916664L59.346874 59.697914L60.284374 59.697914L60.284374 60.572914Q60.971874 59.55729 62.26875 59.55729Q62.83125 59.55729 63.3 59.760414Q63.784374 59.96354 64.01875 60.291664Q64.25313 60.61979 64.34688 61.05729Q64.39375 61.354164 64.39375 62.08854L64.39375 65.916664L63.346874 65.916664L63.346874 62.135414Q63.346874 61.479164 63.221874 61.166664Q63.096874 60.854164 62.784374 60.666664Q62.471874 60.46354 62.05 60.46354Q61.378124 60.46354 60.878124 60.90104Q60.39375 61.322914 60.39375 62.510414L60.39375 65.916664L59.346874 65.916664Z" fill-rule="nonzero"/><path fill="#9e9e9e" d="M24.596874 81.90104L24.596874 82.916664L18.909374 82.916664Q18.909374 82.541664 19.034374 82.18229Q19.253124 81.604164 19.721874 81.041664Q20.20625 80.479164 21.1125 79.74479Q22.51875 78.58854 23.003124 77.916664Q23.503124 77.24479 23.503124 76.65104Q23.503124 76.02604 23.05 75.604164Q22.596874 75.166664 21.878124 75.166664Q21.1125 75.166664 20.659374 75.61979Q20.20625 76.072914 20.190624 76.885414L19.1125 76.77604Q19.221874 75.55729 19.940624 74.93229Q20.675 74.291664 21.909374 74.291664Q23.14375 74.291664 23.8625 74.979164Q24.58125 75.666664 24.58125 76.68229Q24.58125 77.197914 24.3625 77.697914Q24.159374 78.18229 23.659374 78.74479Q23.175 79.291664 22.05 80.24479Q21.096874 81.041664 20.815624 81.33854Q20.55 81.61979 20.378124 81.90104L24.596874 81.90104ZM26.6125 82.916664L26.6125 81.71354L27.815624 81.71354L27.815624 82.916664Q27.815624 83.572914 27.58125 83.979164Q27.346874 84.40104 26.846874 84.61979L26.55 84.166664Q26.878124 84.02604 27.034374 83.729164Q27.190624 83.447914 27.221874 82.916664L26.6125 82.916664ZM32.425 82.916664L32.425 80.854164L28.70625 80.854164L28.70625 79.885414L32.628124 74.322914L33.4875 74.322914L33.4875 79.885414L34.64375 79.885414L34.64375 80.854164L33.4875 80.854164L33.4875 82.916664L32.425 82.916664ZM32.425 79.885414L32.425 76.02604L29.7375 79.885414L32.425 79.885414ZM36.253124 76.385414Q36.253124 75.46354 36.70625 74.822914Q37.175 74.18229 38.05 74.18229Q38.8625 74.18229 39.39375 74.760414Q39.925 75.33854 39.925 76.447914Q39.925 77.541664 39.378124 78.135414Q38.846874 78.71354 38.065624 78.71354Q37.284374 78.71354 36.76875 78.135414Q36.253124 77.55729 36.253124 76.385414ZM38.08125 74.90104Q37.690624 74.90104 37.425 75.24479Q37.175 75.58854 37.175 76.49479Q37.175 77.322914 37.425 77.666664Q37.690624 77.99479 38.08125 77.99479Q38.4875 77.99479 38.7375 77.65104Q39.003124 77.30729 39.003124 76.416664Q39.003124 75.572914 38.7375 75.24479Q38.471874 74.90104 38.08125 74.90104ZM38.08125 83.229164L42.784374 74.18229L43.64375 74.18229L38.95625 83.229164L38.08125 83.229164ZM41.8 80.90104Q41.8 79.979164 42.253124 79.33854Q42.721874 78.697914 43.6125 78.697914Q44.425 78.697914 44.95625 79.27604Q45.4875 79.83854 45.4875 80.96354Q45.4875 82.05729 44.940624 82.65104Q44.409374 83.229164 43.6125 83.229164Q42.846874 83.229164 42.315624 82.65104Q41.8 82.072914 41.8 80.90104ZM43.64375 79.416664Q43.2375 79.416664 42.971874 79.760414Q42.721874 80.104164 42.721874 81.010414Q42.721874 81.822914 42.9875 82.166664Q43.253124 82.510414 43.64375 82.510414Q44.034374 82.510414 44.3 82.166664Q44.565624 81.822914 44.565624 80.916664Q44.565624 80.08854 44.3 79.760414Q44.034374 79.416664 43.64375 79.416664Z" fill-rule="nonzero"/><path stroke="#757575" stroke-width="1.0" stroke-linecap="butt" d="M18.55 70.416664L145.23334 70.416664L262.58826 67.39665" fill-rule="nonzero"/><path fill="#9e9e9e" d="M264.58826 67.39665C264.58826 66.29208 263.69284 65.39665 262.58826 65.39665C261.4837 65.39665 260.58826 66.29208 260.58826 67.39665C260.58826 68.50122 261.4837 69.39665 262.58826 69.39665C263.69284 69.39665 264.58826 68.50122 264.58826 67.39665" fill-rule="nonzero"/><path fill="#1a1a1a" d="M19.534374 96.916664L19.534374 88.322914L25.33125 88.322914L25.33125 89.33854L20.675 89.33854L20.675 91.99479L24.70625 91.99479L24.70625 93.010414L20.675 93.010414L20.675 96.916664L19.534374 96.916664ZM30.409374 96.15104Q29.815624 96.65104 29.26875 96.854164Q28.7375 97.05729 28.1125 97.05729Q27.08125 97.05729 26.534374 96.55729Q25.9875 96.05729 25.9875 95.27604Q25.9875 94.822914 26.190624 94.447914Q26.39375 94.05729 26.7375 93.83854Q27.08125 93.604164 27.503124 93.49479Q27.8 93.40104 28.440624 93.322914Q29.70625 93.18229 30.315624 92.96354Q30.315624 92.74479 30.315624 92.697914Q30.315624 92.041664 30.01875 91.77604Q29.6125 91.43229 28.815624 91.43229Q28.08125 91.43229 27.721874 91.697914Q27.3625 91.947914 27.190624 92.604164L26.159374 92.46354Q26.3 91.80729 26.628124 91.40104Q26.95625 90.99479 27.565624 90.77604Q28.175 90.55729 28.971874 90.55729Q29.76875 90.55729 30.26875 90.74479Q30.76875 90.93229 31.003124 91.21354Q31.2375 91.49479 31.33125 91.93229Q31.378124 92.197914 31.378124 92.90104L31.378124 94.30729Q31.378124 95.77604 31.440624 96.166664Q31.51875 96.55729 31.721874 96.916664L30.6125 96.916664Q30.45625 96.58854 30.409374 96.15104ZM30.315624 93.791664Q29.7375 94.02604 28.596874 94.197914Q27.940624 94.291664 27.675 94.416664Q27.409374 94.52604 27.253124 94.74479Q27.1125 94.96354 27.1125 95.24479Q27.1125 95.666664 27.425 95.947914Q27.753124 96.229164 28.3625 96.229164Q28.971874 96.229164 29.440624 95.96354Q29.925 95.697914 30.14375 95.229164Q30.315624 94.86979 30.315624 94.18229L30.315624 93.791664ZM37.409374 94.635414L38.440624 94.77604Q38.26875 95.83854 37.565624 96.447914Q36.8625 97.05729 35.846874 97.05729Q34.565624 97.05729 33.784374 96.229164Q33.01875 95.385414 33.01875 93.822914Q33.01875 92.822914 33.346874 92.072914Q33.690624 91.30729 34.3625 90.93229Q35.05 90.55729 35.8625 90.55729Q36.8625 90.55729 37.503124 91.072914Q38.159374 91.572914 38.346874 92.52604L37.315624 92.68229Q37.175 92.05729 36.8 91.74479Q36.425 91.416664 35.89375 91.416664Q35.096874 91.416664 34.596874 91.99479Q34.096874 92.55729 34.096874 93.791664Q34.096874 95.05729 34.58125 95.61979Q35.065624 96.18229 35.83125 96.18229Q36.45625 96.18229 36.8625 95.80729Q37.284374 95.43229 37.409374 94.635414ZM43.596874 94.916664L44.690624 95.041664Q44.440624 95.99479 43.7375 96.52604Q43.034374 97.05729 41.95625 97.05729Q40.596874 97.05729 39.784374 96.21354Q38.9875 95.36979 38.9875 93.854164Q38.9875 92.291664 39.8 91.43229Q40.6125 90.55729 41.89375 90.55729Q43.14375 90.55729 43.925 91.40104Q44.721874 92.24479 44.721874 93.791664Q44.721874 93.885414 44.721874 94.072914L40.08125 94.072914Q40.14375 95.104164 40.659374 95.65104Q41.175 96.18229 41.95625 96.18229Q42.534374 96.18229 42.940624 95.885414Q43.3625 95.572914 43.596874 94.916664ZM40.14375 93.21354L43.6125 93.21354Q43.55 92.416664 43.221874 92.02604Q42.70625 91.416664 41.909374 91.416664Q41.175 91.416664 40.675 91.90104Q40.190624 92.385414 40.14375 93.21354ZM47.315624 96.916664L46.33125 96.916664L46.33125 88.322914L47.39375 88.322914L47.39375 91.385414Q48.065624 90.55729 49.096874 90.55729Q49.675 90.55729 50.175 90.791664Q50.690624 91.010414 51.01875 91.43229Q51.3625 91.854164 51.55 92.447914Q51.7375 93.041664 51.7375 93.71354Q51.7375 95.30729 50.940624 96.18229Q50.14375 97.05729 49.05 97.05729Q47.940624 97.05729 47.315624 96.135414L47.315624 96.916664ZM47.3 93.760414Q47.3 94.86979 47.6125 95.36979Q48.1125 96.18229 48.95625 96.18229Q49.64375 96.18229 50.14375 95.58854Q50.659374 94.99479 50.659374 93.791664Q50.659374 92.572914 50.175 91.99479Q49.690624 91.416664 49.003124 91.416664Q48.315624 91.416664 47.8 92.02604Q47.3 92.61979 47.3 93.760414ZM52.95625 93.80729Q52.95625 92.072914 53.909374 91.24479Q54.70625 90.55729 55.8625 90.55729Q57.14375 90.55729 57.95625 91.40104Q58.784374 92.229164 58.784374 93.71354Q58.784374 94.916664 58.425 95.604164Q58.065624 96.291664 57.3625 96.68229Q56.675 97.05729 55.8625 97.05729Q54.565624 97.05729 53.753124 96.229164Q52.95625 95.385414 52.95625 93.80729ZM54.034374 93.80729Q54.034374 94.99479 54.55 95.58854Q55.08125 96.18229 55.8625 96.18229Q56.659374 96.18229 57.175 95.58854Q57.690624 94.99479 57.690624 93.77604Q57.690624 92.61979 57.159374 92.02604Q56.64375 91.43229 55.8625 91.43229Q55.08125 91.43229 54.55 92.02604Q54.034374 92.604164 54.034374 93.80729ZM59.95625 93.80729Q59.95625 92.072914 60.909374 91.24479Q61.70625 90.55729 62.8625 90.55729Q64.14375 90.55729 64.95625 91.40104Q65.78438 92.229164 65.78438 93.71354Q65.78438 94.916664 65.425 95.604164Q65.06563 96.291664 64.3625 96.68229Q63.675 97.05729 62.8625 97.05729Q61.565624 97.05729 60.753124 96.229164Q59.95625 95.385414 59.95625 93.80729ZM61.034374 93.80729Q61.034374 94.99479 61.55 95.58854Q62.08125 96.18229 62.8625 96.18229Q63.659374 96.18229 64.175 95.58854Q64.69063 94.99479 64.69063 93.77604Q64.69063 92.61979 64.15938 92.02604Q63.64375 91.43229 62.8625 91.43229Q62.08125 91.43229 61.55 92.02604Q61.034374 92.604164 61.034374 93.80729ZM67.34688 96.916664L67.34688 88.322914L68.40938 88.322914L68.40938 93.229164L70.89375 90.697914L72.26875 90.697914L69.87813 92.99479L72.50313 96.916664L71.20625 96.916664L69.14375 93.729164L68.40938 94.447914L68.40938 96.916664L67.34688 96.916664Z" fill-rule="nonzero"/><path fill="#9e9e9e" d="M23.01875 113.916664L21.971874 113.916664L21.971874 107.197914Q21.58125 107.55729 20.95625 107.93229Q20.346874 108.291664 19.8625 108.46354L19.8625 107.447914Q20.7375 107.02604 21.39375 106.447914Q22.065624 105.854164 22.346874 105.291664L23.01875 105.291664L23.01875 113.916664ZM26.05 109.68229Q26.05 108.15104 26.3625 107.229164Q26.675 106.291664 27.284374 105.791664Q27.909374 105.291664 28.846874 105.291664Q29.534374 105.291664 30.05 105.572914Q30.58125 105.854164 30.925 106.385414Q31.26875 106.90104 31.45625 107.65104Q31.64375 108.40104 31.64375 109.68229Q31.64375 111.197914 31.33125 112.11979Q31.034374 113.041664 30.409374 113.55729Q29.8 114.05729 28.846874 114.05729Q27.6125 114.05729 26.89375 113.166664Q26.05 112.104164 26.05 109.68229ZM27.128124 109.68229Q27.128124 111.791664 27.628124 112.49479Q28.128124 113.197914 28.846874 113.197914Q29.58125 113.197914 30.065624 112.49479Q30.565624 111.791664 30.565624 109.68229Q30.565624 107.55729 30.065624 106.86979Q29.58125 106.166664 28.83125 106.166664Q28.1125 106.166664 27.675 106.77604Q27.128124 107.55729 27.128124 109.68229ZM33.6125 113.916664L33.6125 112.71354L34.815624 112.71354L34.815624 113.916664Q34.815624 114.572914 34.58125 114.979164Q34.346874 115.40104 33.846874 115.61979L33.55 115.166664Q33.878124 115.02604 34.034374 114.729164Q34.190624 114.447914 34.221874 113.916664L33.6125 113.916664ZM40.01875 113.916664L38.971874 113.916664L38.971874 107.197914Q38.58125 107.55729 37.95625 107.93229Q37.346874 108.291664 36.8625 108.46354L36.8625 107.447914Q37.7375 107.02604 38.39375 106.447914Q39.065624 105.854164 39.346874 105.291664L40.01875 105.291664L40.01875 113.916664ZM43.253124 107.385414Q43.253124 106.46354 43.70625 105.822914Q44.175 105.18229 45.05 105.18229Q45.8625 105.18229 46.39375 105.760414Q46.925 106.33854 46.925 107.447914Q46.925 108.541664 46.378124 109.135414Q45.846874 109.71354 45.065624 109.71354Q44.284374 109.71354 43.76875 109.135414Q43.253124 108.55729 43.253124 107.385414ZM45.08125 105.90104Q44.690624 105.90104 44.425 106.24479Q44.175 106.58854 44.175 107.49479Q44.175 108.322914 44.425 108.666664Q44.690624 108.99479 45.08125 108.99479Q45.4875 108.99479 45.7375 108.65104Q46.003124 108.30729 46.003124 107.416664Q46.003124 106.572914 45.7375 106.24479Q45.471874 105.90104 45.08125 105.90104ZM45.08125 114.229164L49.784374 105.18229L50.64375 105.18229L45.95625 114.229164L45.08125 114.229164ZM48.8 111.90104Q48.8 110.979164 49.253124 110.33854Q49.721874 109.697914 50.6125 109.697914Q51.425 109.697914 51.95625 110.27604Q52.4875 110.83854 52.4875 111.96354Q52.4875 113.05729 51.940624 113.65104Q51.409374 114.229164 50.6125 114.229164Q49.846874 114.229164 49.315624 113.65104Q48.8 113.072914 48.8 111.90104ZM50.64375 110.416664Q50.2375 110.416664 49.971874 110.760414Q49.721874 111.104164 49.721874 112.010414Q49.721874 112.822914 49.9875 113.166664Q50.253124 113.510414 50.64375 113.510414Q51.034374 113.510414 51.3 113.166664Q51.565624 112.822914 51.565624 111.916664Q51.565624 111.08854 51.3 110.760414Q51.034374 110.416664 50.64375 110.416664Z" fill-rule="nonzero"/><path stroke="#757575" stroke-width="1.0" stroke-linecap="butt" d="M18.55 101.416664L145.23334 101.416664L213.3744 92.0155" fill-rule="nonzero"/><path fill="#9e9e9e" d="M215.3744 92.0155C215.3744 90.910934 214.47897 90.0155 213.3744 90.0155C212.26984 90.0155 211.3744 90.910934 211.3744 92.0155C211.3744 93.12008 212.26984 94.0155 213.3744 94.0155C214.47897 94.0155 215.3744 93.12008 215.3744 92.0155" fill-rule="nonzero"/><path fill="#1a1a1a" d="M19.440624 271.41858L19.440624 262.82483L21.159374 262.82483L23.190624 268.90295Q23.471874 269.76233 23.596874 270.1842Q23.7375 269.71545 24.05 268.8092L26.1125 262.82483L27.64375 262.82483L27.64375 271.41858L26.55 271.41858L26.55 264.23108L24.05 271.41858L23.01875 271.41858L20.534374 264.10608L20.534374 271.41858L19.440624 271.41858ZM32.409374 270.65295Q31.815624 271.15295 31.26875 271.35608Q30.7375 271.5592 30.1125 271.5592Q29.08125 271.5592 28.534374 271.0592Q27.9875 270.5592 27.9875 269.77795Q27.9875 269.32483 28.190624 268.94983Q28.39375 268.5592 28.7375 268.34045Q29.08125 268.10608 29.503124 267.9967Q29.8 267.90295 30.440624 267.82483Q31.70625 267.6842 32.315624 267.46545Q32.315624 267.2467 32.315624 267.19983Q32.315624 266.54358 32.01875 266.27795Q31.6125 265.9342 30.815624 265.9342Q30.08125 265.9342 29.721874 266.19983Q29.3625 266.44983 29.190624 267.10608L28.159374 266.96545Q28.3 266.3092 28.628124 265.90295Q28.95625 265.4967 29.565624 265.27795Q30.175 265.0592 30.971874 265.0592Q31.76875 265.0592 32.26875 265.2467Q32.76875 265.4342 33.003124 265.71545Q33.2375 265.9967 33.33125 266.4342Q33.378124 266.69983 33.378124 267.40295L33.378124 268.8092Q33.378124 270.27795 33.440624 270.66858Q33.51875 271.0592 33.721874 271.41858L32.6125 271.41858Q32.45625 271.09045 32.409374 270.65295ZM32.315624 268.29358Q31.7375 268.52795 30.596874 268.69983Q29.940624 268.79358 29.675 268.91858Q29.409374 269.02795 29.253124 269.2467Q29.1125 269.46545 29.1125 269.7467Q29.1125 270.16858 29.425 270.44983Q29.753124 270.73108 30.3625 270.73108Q30.971874 270.73108 31.440624 270.46545Q31.925 270.19983 32.14375 269.73108Q32.315624 269.3717 32.315624 268.6842L32.315624 268.29358ZM34.925 269.5592L35.95625 269.40295Q36.05 270.02795 36.440624 270.35608Q36.846874 270.6842 37.58125 270.6842Q38.3 270.6842 38.64375 270.40295Q39.003124 270.10608 39.003124 269.69983Q39.003124 269.34045 38.690624 269.13733Q38.471874 268.9967 37.6125 268.77795Q36.45625 268.48108 36.003124 268.27795Q35.565624 268.0592 35.33125 267.6842Q35.096874 267.3092 35.096874 266.84045Q35.096874 266.4342 35.284374 266.07483Q35.471874 265.71545 35.8 265.48108Q36.05 265.3092 36.471874 265.1842Q36.89375 265.0592 37.39375 265.0592Q38.1125 265.0592 38.659374 265.27795Q39.221874 265.48108 39.4875 265.84045Q39.753124 266.19983 39.846874 266.79358L38.815624 266.9342Q38.753124 266.46545 38.409374 266.19983Q38.08125 265.91858 37.45625 265.91858Q36.7375 265.91858 36.425 266.16858Q36.1125 266.40295 36.1125 266.73108Q36.1125 266.9342 36.2375 267.09045Q36.378124 267.26233 36.64375 267.3717Q36.8 267.4342 37.58125 267.63733Q38.70625 267.94983 39.14375 268.13733Q39.58125 268.32483 39.83125 268.6842Q40.08125 269.04358 40.08125 269.59045Q40.08125 270.1217 39.76875 270.59045Q39.471874 271.04358 38.89375 271.3092Q38.315624 271.5592 37.58125 271.5592Q36.3625 271.5592 35.721874 271.0592Q35.096874 270.54358 34.925 269.5592ZM44.64375 270.48108L44.8 271.40295Q44.346874 271.4967 44.003124 271.4967Q43.425 271.4967 43.1125 271.32483Q42.8 271.13733 42.659374 270.84045Q42.534374 270.54358 42.534374 269.59045L42.534374 266.01233L41.76875 266.01233L41.76875 265.19983L42.534374 265.19983L42.534374 263.65295L43.58125 263.02795L43.58125 265.19983L44.64375 265.19983L44.64375 266.01233L43.58125 266.01233L43.58125 269.65295Q43.58125 270.10608 43.628124 270.23108Q43.690624 270.35608 43.815624 270.4342Q43.940624 270.51233 44.175 270.51233Q44.3625 270.51233 44.64375 270.48108ZM44.95625 268.3092Q44.95625 266.57483 45.909374 265.7467Q46.70625 265.0592 47.8625 265.0592Q49.14375 265.0592 49.95625 265.90295Q50.784374 266.73108 50.784374 268.21545Q50.784374 269.41858 50.425 270.10608Q50.065624 270.79358 49.3625 271.1842Q48.675 271.5592 47.8625 271.5592Q46.565624 271.5592 45.753124 270.73108Q44.95625 269.88733 44.95625 268.3092ZM46.034374 268.3092Q46.034374 269.4967 46.55 270.09045Q47.08125 270.6842 47.8625 270.6842Q48.659374 270.6842 49.175 270.09045Q49.690624 269.4967 49.690624 268.27795Q49.690624 267.1217 49.159374 266.52795Q48.64375 265.9342 47.8625 265.9342Q47.08125 265.9342 46.55 266.52795Q46.034374 267.10608 46.034374 268.3092ZM56.378124 271.41858L56.378124 270.63733Q55.784374 271.5592 54.64375 271.5592Q53.89375 271.5592 53.26875 271.15295Q52.64375 270.73108 52.3 269.9967Q51.95625 269.26233 51.95625 268.3092Q51.95625 267.38733 52.26875 266.6217Q52.58125 265.85608 53.20625 265.46545Q53.83125 265.0592 54.596874 265.0592Q55.159374 265.0592 55.596874 265.29358Q56.034374 265.52795 56.315624 265.90295L56.315624 262.82483L57.3625 262.82483L57.3625 271.41858L56.378124 271.41858ZM53.05 268.3092Q53.05 269.51233 53.55 270.10608Q54.05 270.6842 54.7375 270.6842Q55.425 270.6842 55.909374 270.1217Q56.39375 269.5592 56.39375 268.40295Q56.39375 267.1217 55.89375 266.52795Q55.409374 265.9342 54.690624 265.9342Q53.9875 265.9342 53.51875 266.51233Q53.05 267.07483 53.05 268.3092ZM58.95625 268.3092Q58.95625 266.57483 59.909374 265.7467Q60.70625 265.0592 61.8625 265.0592Q63.14375 265.0592 63.95625 265.90295Q64.78438 266.73108 64.78438 268.21545Q64.78438 269.41858 64.425 270.10608Q64.06563 270.79358 63.3625 271.1842Q62.675 271.5592 61.8625 271.5592Q60.565624 271.5592 59.753124 270.73108Q58.95625 269.88733 58.95625 268.3092ZM60.034374 268.3092Q60.034374 269.4967 60.55 270.09045Q61.08125 270.6842 61.8625 270.6842Q62.659374 270.6842 63.175 270.09045Q63.690624 269.4967 63.690624 268.27795Q63.690624 267.1217 63.159374 266.52795Q62.64375 265.9342 61.8625 265.9342Q61.08125 265.9342 60.55 266.52795Q60.034374 267.10608 60.034374 268.3092ZM66.34688 271.41858L66.34688 265.19983L67.28438 265.19983L67.28438 266.07483Q67.97188 265.0592 69.26875 265.0592Q69.83125 265.0592 70.3 265.26233Q70.78438 265.46545 71.01875 265.79358Q71.25313 266.1217 71.34688 266.5592Q71.39375 266.85608 71.39375 267.59045L71.39375 271.41858L70.34688 271.41858L70.34688 267.63733Q70.34688 266.98108 70.22188 266.66858Q70.09688 266.35608 69.78438 266.16858Q69.47188 265.96545 69.05 265.96545Q68.37813 265.96545 67.87813 266.40295Q67.39375 266.82483 67.39375 268.01233L67.39375 271.41858L66.34688 271.41858Z" fill-rule="nonzero"/><path fill="#9e9e9e" d="M19.05 286.15295L20.1125 286.01233Q20.284374 286.90295 20.721874 287.3092Q21.159374 287.69983 21.784374 287.69983Q22.534374 287.69983 23.05 287.1842Q23.565624 286.66858 23.565624 285.90295Q23.565624 285.1842 23.08125 284.71545Q22.6125 284.23108 21.878124 284.23108Q21.58125 284.23108 21.128124 284.35608L21.253124 283.41858Q21.3625 283.4342 21.425 283.4342Q22.096874 283.4342 22.628124 283.09045Q23.175 282.73108 23.175 281.9967Q23.175 281.41858 22.784374 281.04358Q22.39375 280.65295 21.76875 280.65295Q21.159374 280.65295 20.7375 281.04358Q20.33125 281.4342 20.221874 282.19983L19.159374 282.01233Q19.346874 280.96545 20.034374 280.38733Q20.721874 279.79358 21.7375 279.79358Q22.440624 279.79358 23.034374 280.10608Q23.628124 280.40295 23.940624 280.91858Q24.253124 281.4342 24.253124 282.02795Q24.253124 282.57483 23.95625 283.04358Q23.659374 283.4967 23.08125 283.76233Q23.83125 283.9342 24.253124 284.4967Q24.675 285.04358 24.675 285.88733Q24.675 287.01233 23.846874 287.79358Q23.034374 288.57483 21.784374 288.57483Q20.659374 288.57483 19.909374 287.90295Q19.159374 287.21545 19.05 286.15295ZM31.51875 281.9342L30.471874 282.01233Q30.33125 281.38733 30.08125 281.10608Q29.64375 280.65295 29.01875 280.65295Q28.51875 280.65295 28.128124 280.9342Q27.64375 281.3092 27.346874 282.01233Q27.065624 282.69983 27.05 283.98108Q27.425 283.40295 27.971874 283.1217Q28.534374 282.84045 29.14375 282.84045Q30.190624 282.84045 30.925 283.6217Q31.675 284.40295 31.675 285.6217Q31.675 286.4342 31.315624 287.13733Q30.971874 287.82483 30.3625 288.19983Q29.753124 288.5592 28.9875 288.5592Q27.659374 288.5592 26.83125 287.59045Q26.003124 286.6217 26.003124 284.40295Q26.003124 281.90295 26.925 280.77795Q27.721874 279.79358 29.08125 279.79358Q30.096874 279.79358 30.7375 280.3717Q31.39375 280.9342 31.51875 281.9342ZM27.221874 285.63733Q27.221874 286.1842 27.440624 286.6842Q27.675 287.16858 28.08125 287.4342Q28.503124 287.69983 28.971874 287.69983Q29.628124 287.69983 30.1125 287.16858Q30.596874 286.6217 30.596874 285.69983Q30.596874 284.8092 30.1125 284.29358Q29.64375 283.77795 28.925 283.77795Q28.20625 283.77795 27.70625 284.29358Q27.221874 284.8092 27.221874 285.63733ZM33.6125 288.41858L33.6125 287.21545L34.815624 287.21545L34.815624 288.41858Q34.815624 289.07483 34.58125 289.48108Q34.346874 289.90295 33.846874 290.1217L33.55 289.66858Q33.878124 289.52795 34.034374 289.23108Q34.190624 288.94983 34.221874 288.41858L33.6125 288.41858ZM36.05 284.1842Q36.05 282.65295 36.3625 281.73108Q36.675 280.79358 37.284374 280.29358Q37.909374 279.79358 38.846874 279.79358Q39.534374 279.79358 40.05 280.07483Q40.58125 280.35608 40.925 280.88733Q41.26875 281.40295 41.45625 282.15295Q41.64375 282.90295 41.64375 284.1842Q41.64375 285.69983 41.33125 286.6217Q41.034374 287.54358 40.409374 288.0592Q39.8 288.5592 38.846874 288.5592Q37.6125 288.5592 36.89375 287.66858Q36.05 286.60608 36.05 284.1842ZM37.128124 284.1842Q37.128124 286.29358 37.628124 286.9967Q38.128124 287.69983 38.846874 287.69983Q39.58125 287.69983 40.065624 286.9967Q40.565624 286.29358 40.565624 284.1842Q40.565624 282.0592 40.065624 281.3717Q39.58125 280.66858 38.83125 280.66858Q38.1125 280.66858 37.675 281.27795Q37.128124 282.0592 37.128124 284.1842ZM43.253124 281.88733Q43.253124 280.96545 43.70625 280.32483Q44.175 279.6842 45.05 279.6842Q45.8625 279.6842 46.39375 280.26233Q46.925 280.84045 46.925 281.94983Q46.925 283.04358 46.378124 283.63733Q45.846874 284.21545 45.065624 284.21545Q44.284374 284.21545 43.76875 283.63733Q43.253124 283.0592 43.253124 281.88733ZM45.08125 280.40295Q44.690624 280.40295 44.425 280.7467Q44.175 281.09045 44.175 281.9967Q44.175 282.82483 44.425 283.16858Q44.690624 283.4967 45.08125 283.4967Q45.4875 283.4967 45.7375 283.15295Q46.003124 282.8092 46.003124 281.91858Q46.003124 281.07483 45.7375 280.7467Q45.471874 280.40295 45.08125 280.40295ZM45.08125 288.73108L49.784374 279.6842L50.64375 279.6842L45.95625 288.73108L45.08125 288.73108ZM48.8 286.40295Q48.8 285.48108 49.253124 284.84045Q49.721874 284.19983 50.6125 284.19983Q51.425 284.19983 51.95625 284.77795Q52.4875 285.34045 52.4875 286.46545Q52.4875 287.5592 51.940624 288.15295Q51.409374 288.73108 50.6125 288.73108Q49.846874 288.73108 49.315624 288.15295Q48.8 287.57483 48.8 286.40295ZM50.64375 284.91858Q50.2375 284.91858 49.971874 285.26233Q49.721874 285.60608 49.721874 286.51233Q49.721874 287.32483 49.9875 287.66858Q50.253124 288.01233 50.64375 288.01233Q51.034374 288.01233 51.3 287.66858Q51.565624 287.32483 51.565624 286.41858Q51.565624 285.59045 51.3 285.26233Q51.034374 284.91858 50.64375 284.91858Z" fill-rule="nonzero"/><path stroke="#757575" stroke-width="1.0" stroke-linecap="butt" d="M18.55 275.91858L145.23334 275.91858L178.52667 275.91858" fill-rule="nonzero"/><path fill="#9e9e9e" d="M180.52667 275.91858C180.52667 274.814 179.63124 273.91858 178.52667 273.91858C177.4221 273.91858 176.52667 274.814 176.52667 275.91858C176.52667 277.02313 177.4221 277.91858 178.52667 277.91858C179.63124 277.91858 180.52667 277.02313 180.52667 275.91858" fill-rule="nonzero"/><path fill="#1a1a1a" d="M530.9969 189.54478L532.0594 189.45103Q532.1375 190.10728 532.41876 190.51353Q532.7 190.91978 533.27814 191.18541Q533.8719 191.43541 534.60626 191.43541Q535.2469 191.43541 535.7469 191.24791Q536.2469 191.04478 536.48126 190.71666Q536.73126 190.37291 536.73126 189.98228Q536.73126 189.57603 536.4969 189.27916Q536.2625 188.96666 535.73126 188.76353Q535.3719 188.62291 534.1844 188.34166Q533.0125 188.06041 532.54376 187.81041Q531.91876 187.48228 531.6219 187.01353Q531.325 186.52916 531.325 185.93541Q531.325 185.29478 531.6844 184.73228Q532.0594 184.15416 532.7625 183.87291Q533.48126 183.57603 534.34064 183.57603Q535.29376 183.57603 536.02814 183.88853Q536.7625 184.18541 537.15314 184.79478Q537.54376 185.38853 537.575 186.13853L536.48126 186.21666Q536.3875 185.40416 535.8719 184.99791Q535.3719 184.57603 534.3875 184.57603Q533.35626 184.57603 532.8875 184.95103Q532.41876 185.32603 532.41876 185.85728Q532.41876 186.32603 532.7469 186.62291Q533.075 186.91978 534.45 187.23228Q535.84064 187.54478 536.35626 187.77916Q537.10626 188.13853 537.46564 188.66978Q537.825 189.18541 537.825 189.88853Q537.825 190.57603 537.4344 191.18541Q537.04376 191.77916 536.3094 192.12291Q535.575 192.45103 534.65314 192.45103Q533.48126 192.45103 532.6844 192.12291Q531.90314 191.77916 531.45 191.09166Q531.0125 190.40416 530.9969 189.54478ZM543.325 192.31041L543.325 191.38853Q542.59064 192.45103 541.34064 192.45103Q540.79376 192.45103 540.3094 192.24791Q539.84064 192.02916 539.60626 191.71666Q539.3719 191.38853 539.27814 190.91978Q539.21564 190.62291 539.21564 189.93541L539.21564 186.09166L540.27814 186.09166L540.27814 189.54478Q540.27814 190.35728 540.34064 190.65416Q540.4344 191.06041 540.7469 191.31041Q541.075 191.54478 541.5594 191.54478Q542.02814 191.54478 542.4344 191.31041Q542.85626 191.06041 543.02814 190.63853Q543.21564 190.21666 543.21564 189.41978L543.21564 186.09166L544.2625 186.09166L544.2625 192.31041L543.325 192.31041ZM547.21564 192.31041L546.23126 192.31041L546.23126 183.71666L547.29376 183.71666L547.29376 186.77916Q547.96564 185.95103 548.9969 185.95103Q549.575 185.95103 550.075 186.18541Q550.59064 186.40416 550.91876 186.82603Q551.2625 187.24791 551.45 187.84166Q551.6375 188.43541 551.6375 189.10728Q551.6375 190.70103 550.84064 191.57603Q550.04376 192.45103 548.95 192.45103Q547.84064 192.45103 547.21564 191.52916L547.21564 192.31041ZM547.2 189.15416Q547.2 190.26353 547.5125 190.76353Q548.0125 191.57603 548.85626 191.57603Q549.54376 191.57603 550.04376 190.98228Q550.5594 190.38853 550.5594 189.18541Q550.5594 187.96666 550.075 187.38853Q549.59064 186.81041 548.90314 186.81041Q548.21564 186.81041 547.7 187.41978Q547.2 188.01353 547.2 189.15416ZM552.825 190.45103L553.85626 190.29478Q553.95 190.91978 554.34064 191.24791Q554.7469 191.57603 555.48126 191.57603Q556.2 191.57603 556.54376 191.29478Q556.90314 190.99791 556.90314 190.59166Q556.90314 190.23228 556.59064 190.02916Q556.3719 189.88853 555.5125 189.66978Q554.35626 189.37291 553.90314 189.16978Q553.46564 188.95103 553.23126 188.57603Q552.9969 188.20103 552.9969 187.73228Q552.9969 187.32603 553.1844 186.96666Q553.3719 186.60728 553.7 186.37291Q553.95 186.20103 554.3719 186.07603Q554.79376 185.95103 555.29376 185.95103Q556.0125 185.95103 556.5594 186.16978Q557.1219 186.37291 557.3875 186.73228Q557.65314 187.09166 557.7469 187.68541L556.71564 187.82603Q556.65314 187.35728 556.3094 187.09166Q555.98126 186.81041 555.35626 186.81041Q554.6375 186.81041 554.325 187.06041Q554.0125 187.29478 554.0125 187.62291Q554.0125 187.82603 554.1375 187.98228Q554.27814 188.15416 554.54376 188.26353Q554.7 188.32603 555.48126 188.52916Q556.60626 188.84166 557.04376 189.02916Q557.48126 189.21666 557.73126 189.57603Q557.98126 189.93541 557.98126 190.48228Q557.98126 191.01353 557.66876 191.48228Q557.3719 191.93541 556.79376 192.20103Q556.21564 192.45103 555.48126 192.45103Q554.2625 192.45103 553.6219 191.95103Q552.9969 191.43541 552.825 190.45103ZM562.54376 191.37291L562.7 192.29478Q562.2469 192.38853 561.90314 192.38853Q561.325 192.38853 561.0125 192.21666Q560.7 192.02916 560.5594 191.73228Q560.4344 191.43541 560.4344 190.48228L560.4344 186.90416L559.66876 186.90416L559.66876 186.09166L560.4344 186.09166L560.4344 184.54478L561.48126 183.91978L561.48126 186.09166L562.54376 186.09166L562.54376 186.90416L561.48126 186.90416L561.48126 190.54478Q561.48126 190.99791 561.52814 191.12291Q561.59064 191.24791 561.71564 191.32603Q561.84064 191.40416 562.075 191.40416Q562.2625 191.40416 562.54376 191.37291ZM567.3094 191.54478Q566.71564 192.04478 566.16876 192.24791Q565.6375 192.45103 565.0125 192.45103Q563.98126 192.45103 563.4344 191.95103Q562.8875 191.45103 562.8875 190.66978Q562.8875 190.21666 563.09064 189.84166Q563.29376 189.45103 563.6375 189.23228Q563.98126 188.99791 564.40314 188.88853Q564.7 188.79478 565.34064 188.71666Q566.60626 188.57603 567.21564 188.35728Q567.21564 188.13853 567.21564 188.09166Q567.21564 187.43541 566.91876 187.16978Q566.5125 186.82603 565.71564 186.82603Q564.98126 186.82603 564.6219 187.09166Q564.2625 187.34166 564.09064 187.99791L563.0594 187.85728Q563.2 187.20103 563.52814 186.79478Q563.85626 186.38853 564.46564 186.16978Q565.075 185.95103 565.8719 185.95103Q566.66876 185.95103 567.16876 186.13853Q567.66876 186.32603 567.90314 186.60728Q568.1375 186.88853 568.23126 187.32603Q568.27814 187.59166 568.27814 188.29478L568.27814 189.70103Q568.27814 191.16978 568.34064 191.56041Q568.41876 191.95103 568.6219 192.31041L567.5125 192.31041Q567.35626 191.98228 567.3094 191.54478ZM567.21564 189.18541Q566.6375 189.41978 565.4969 189.59166Q564.84064 189.68541 564.575 189.81041Q564.3094 189.91978 564.15314 190.13853Q564.0125 190.35728 564.0125 190.63853Q564.0125 191.06041 564.325 191.34166Q564.65314 191.62291 565.2625 191.62291Q565.8719 191.62291 566.34064 191.35728Q566.825 191.09166 567.04376 190.62291Q567.21564 190.26353 567.21564 189.57603L567.21564 189.18541ZM574.3094 190.02916L575.34064 190.16978Q575.16876 191.23228 574.46564 191.84166Q573.7625 192.45103 572.7469 192.45103Q571.46564 192.45103 570.6844 191.62291Q569.91876 190.77916 569.91876 189.21666Q569.91876 188.21666 570.2469 187.46666Q570.59064 186.70103 571.2625 186.32603Q571.95 185.95103 572.7625 185.95103Q573.7625 185.95103 574.40314 186.46666Q575.0594 186.96666 575.2469 187.91978L574.21564 188.07603Q574.075 187.45103 573.7 187.13853Q573.325 186.81041 572.79376 186.81041Q571.9969 186.81041 571.4969 187.38853Q570.9969 187.95103 570.9969 189.18541Q570.9969 190.45103 571.48126 191.01353Q571.96564 191.57603 572.73126 191.57603Q573.35626 191.57603 573.7625 191.20103Q574.1844 190.82603 574.3094 190.02916ZM576.2469 192.31041L576.2469 183.71666L577.3094 183.71666L577.3094 188.62291L579.79376 186.09166L581.16876 186.09166L578.77814 188.38853L581.40314 192.31041L580.10626 192.31041L578.04376 189.12291L577.3094 189.84166L577.3094 192.31041L576.2469 192.31041Z" fill-rule="nonzero"/><path fill="#9e9e9e" d="M550.325 209.31041L550.325 207.24791L546.60626 207.24791L546.60626 206.27916L550.52814 200.71666L551.3875 200.71666L551.3875 206.27916L552.54376 206.27916L552.54376 207.24791L551.3875 207.24791L551.3875 209.31041L550.325 209.31041ZM550.325 206.27916L550.325 202.41978L547.6375 206.27916L550.325 206.27916ZM555.575 204.65416Q554.91876 204.40416 554.59064 203.96666Q554.27814 203.51353 554.27814 202.90416Q554.27814 201.96666 554.95 201.32603Q555.6375 200.68541 556.7469 200.68541Q557.8719 200.68541 558.5594 201.34166Q559.2469 201.99791 559.2469 202.93541Q559.2469 203.52916 558.9344 203.96666Q558.6219 204.40416 557.98126 204.65416Q558.77814 204.90416 559.1844 205.48228Q559.59064 206.06041 559.59064 206.85728Q559.59064 207.95103 558.8094 208.70103Q558.04376 209.45103 556.7625 209.45103Q555.4969 209.45103 554.71564 208.70103Q553.9344 207.95103 553.9344 206.82603Q553.9344 205.98228 554.35626 205.41978Q554.79376 204.85728 555.575 204.65416ZM555.35626 202.85728Q555.35626 203.46666 555.7469 203.85728Q556.15314 204.24791 556.77814 204.24791Q557.3875 204.24791 557.77814 203.87291Q558.16876 203.48228 558.16876 202.91978Q558.16876 202.34166 557.7625 201.95103Q557.35626 201.54478 556.7625 201.54478Q556.15314 201.54478 555.7469 201.93541Q555.35626 202.32603 555.35626 202.85728ZM555.02814 206.82603Q555.02814 207.27916 555.23126 207.70103Q555.45 208.12291 555.8719 208.35728Q556.29376 208.59166 556.77814 208.59166Q557.52814 208.59166 558.0125 208.10728Q558.5125 207.62291 558.5125 206.87291Q558.5125 206.10728 558.0125 205.60728Q557.5125 205.10728 556.7469 205.10728Q555.9969 205.10728 555.5125 205.60728Q555.02814 206.09166 555.02814 206.82603ZM561.5125 209.31041L561.5125 208.10728L562.71564 208.10728L562.71564 209.31041Q562.71564 209.96666 562.48126 210.37291Q562.2469 210.79478 561.7469 211.01353L561.45 210.56041Q561.77814 210.41978 561.9344 210.12291Q562.09064 209.84166 562.1219 209.31041L561.5125 209.31041ZM563.95 207.06041L565.0594 206.96666Q565.1844 207.77916 565.6219 208.18541Q566.075 208.59166 566.71564 208.59166Q567.46564 208.59166 567.9969 208.01353Q568.52814 207.43541 568.52814 206.49791Q568.52814 205.59166 568.0125 205.07603Q567.5125 204.54478 566.6844 204.54478Q566.1844 204.54478 565.7625 204.77916Q565.35626 205.01353 565.1219 205.37291L564.1375 205.24791L564.96564 200.84166L569.2469 200.84166L569.2469 201.84166L565.8094 201.84166L565.35626 204.15416Q566.1219 203.60728 566.96564 203.60728Q568.09064 203.60728 568.85626 204.38853Q569.6375 205.16978 569.6375 206.40416Q569.6375 207.56041 568.96564 208.41978Q568.1375 209.45103 566.71564 209.45103Q565.54376 209.45103 564.79376 208.79478Q564.0594 208.13853 563.95 207.06041ZM571.15314 202.77916Q571.15314 201.85728 571.60626 201.21666Q572.075 200.57603 572.95 200.57603Q573.7625 200.57603 574.29376 201.15416Q574.825 201.73228 574.825 202.84166Q574.825 203.93541 574.27814 204.52916Q573.7469 205.10728 572.96564 205.10728Q572.1844 205.10728 571.66876 204.52916Q571.15314 203.95103 571.15314 202.77916ZM572.98126 201.29478Q572.59064 201.29478 572.325 201.63853Q572.075 201.98228 572.075 202.88853Q572.075 203.71666 572.325 204.06041Q572.59064 204.38853 572.98126 204.38853Q573.3875 204.38853 573.6375 204.04478Q573.90314 203.70103 573.90314 202.81041Q573.90314 201.96666 573.6375 201.63853Q573.3719 201.29478 572.98126 201.29478ZM572.98126 209.62291L577.6844 200.57603L578.54376 200.57603L573.85626 209.62291L572.98126 209.62291ZM576.7 207.29478Q576.7 206.37291 577.15314 205.73228Q577.6219 205.09166 578.5125 205.09166Q579.325 205.09166 579.85626 205.66978Q580.3875 206.23228 580.3875 207.35728Q580.3875 208.45103 579.84064 209.04478Q579.3094 209.62291 578.5125 209.62291Q577.7469 209.62291 577.21564 209.04478Q576.7 208.46666 576.7 207.29478ZM578.54376 205.81041Q578.1375 205.81041 577.8719 206.15416Q577.6219 206.49791 577.6219 207.40416Q577.6219 208.21666 577.8875 208.56041Q578.15314 208.90416 578.54376 208.90416Q578.9344 208.90416 579.2 208.56041Q579.46564 208.21666 579.46564 207.31041Q579.46564 206.48228 579.2 206.15416Q578.9344 205.81041 578.54376 205.81041Z" fill-rule="nonzero"/><path stroke="#757575" stroke-width="1.0" stroke-linecap="butt" d="M581.45 196.81041L454.76666 196.81041L441.1611 196.81041" fill-rule="nonzero"/><path fill="#9e9e9e" d="M443.1611 196.81041C443.1611 195.70584 442.2657 194.81041 441.1611 194.81041C440.05655 194.81041 439.1611 195.70584 439.1611 196.81041C439.1611 197.915 440.05655 198.81041 441.1611 198.81041C442.2657 198.81041 443.1611 197.915 443.1611 196.81041" fill-rule="nonzero"/><path fill="#757575" d="M113.640625 37.55L108.09375 23.2375L110.140625 23.2375L113.859375 33.628124Q114.3125 34.878124 114.609375 35.971874Q114.9375 34.8 115.390625 33.628124L119.25 23.2375L121.1875 23.2375L115.578125 37.55L113.640625 37.55ZM129.10938 37.55L129.10938 36.01875Q127.90625 37.784374 125.828125 37.784374Q124.90625 37.784374 124.109375 37.440624Q123.3125 37.08125 122.921875 36.55Q122.546875 36.01875 122.390625 35.2375Q122.28125 34.721874 122.28125 33.596874L122.28125 27.175L124.03125 27.175L124.03125 32.925Q124.03125 34.3 124.140625 34.784374Q124.3125 35.471874 124.84375 35.878124Q125.390625 36.26875 126.171875 36.26875Q126.96875 36.26875 127.65625 35.8625Q128.35938 35.45625 128.64062 34.76875Q128.9375 34.065624 128.9375 32.7375L128.9375 27.175L130.6875 27.175L130.6875 37.55L129.10938 37.55ZM139.42188 34.20625L141.23438 34.440624Q140.8125 36.01875 139.64062 36.909374Q138.48438 37.784374 136.67188 37.784374Q134.40625 37.784374 133.0625 36.39375Q131.73438 34.9875 131.73438 32.45625Q131.73438 29.83125 133.07812 28.39375Q134.42188 26.940624 136.57812 26.940624Q138.65625 26.940624 139.96875 28.3625Q141.29688 29.76875 141.29688 32.346874Q141.29688 32.503124 141.28125 32.815624L133.54688 32.815624Q133.64062 34.51875 134.51562 35.425Q135.39062 36.33125 136.6875 36.33125Q137.65625 36.33125 138.32812 35.83125Q139.01562 35.315624 139.42188 34.20625ZM133.64062 31.3625L139.4375 31.3625Q139.32812 30.065624 138.78125 29.409374Q137.9375 28.39375 136.59375 28.39375Q135.39062 28.39375 134.5625 29.20625Q133.73438 30.003124 133.64062 31.3625ZM142.60938 34.45625L144.35938 34.175Q144.5 35.221874 145.17188 35.784374Q145.84375 36.33125 147.04688 36.33125Q148.25 36.33125 148.82812 35.846874Q149.42188 35.346874 149.42188 34.690624Q149.42188 34.096874 148.90625 33.753124Q148.54688 33.51875 147.10938 33.159374Q145.17188 32.659374 144.42188 32.315624Q143.6875 31.95625 143.29688 31.33125Q142.90625 30.690624 142.90625 29.925Q142.90625 29.2375 143.21875 28.64375Q143.54688 28.05 144.09375 27.659374Q144.5 27.3625 145.20312 27.159374Q145.92188 26.940624 146.73438 26.940624Q147.95312 26.940624 148.875 27.3Q149.79688 27.64375 150.23438 28.253124Q150.67188 28.846874 150.84375 29.846874L149.125 30.08125Q149.0 29.284374 148.4375 28.846874Q147.875 28.39375 146.85938 28.39375Q145.64062 28.39375 145.125 28.8Q144.60938 29.190624 144.60938 29.721874Q144.60938 30.065624 144.82812 30.346874Q145.03125 30.628124 145.5 30.815624Q145.76562 30.909374 147.04688 31.253124Q148.92188 31.753124 149.65625 32.08125Q150.39062 32.39375 150.8125 33.003124Q151.23438 33.596874 151.23438 34.503124Q151.23438 35.378124 150.71875 36.159374Q150.20312 36.940624 149.23438 37.3625Q148.26562 37.784374 147.04688 37.784374Q145.03125 37.784374 143.96875 36.940624Q142.90625 36.096874 142.60938 34.45625ZM166.04688 37.55L166.04688 36.2375Q165.0625 37.784374 163.14062 37.784374Q161.90625 37.784374 160.85938 37.096874Q159.82812 36.409374 159.25 35.190624Q158.6875 33.971874 158.6875 32.378124Q158.6875 30.815624 159.20312 29.55Q159.71875 28.284374 160.75 27.6125Q161.79688 26.940624 163.0625 26.940624Q164.0 26.940624 164.73438 27.346874Q165.46875 27.7375 165.9375 28.3625L165.9375 23.2375L167.67188 23.2375L167.67188 37.55L166.04688 37.55ZM160.48438 32.378124Q160.48438 34.3625 161.32812 35.346874Q162.17188 36.33125 163.3125 36.33125Q164.46875 36.33125 165.26562 35.39375Q166.07812 34.45625 166.07812 32.51875Q166.07812 30.39375 165.25 29.39375Q164.4375 28.39375 163.23438 28.39375Q162.0625 28.39375 161.26562 29.3625Q160.48438 30.315624 160.48438 32.378124ZM177.42188 34.20625L179.23438 34.440624Q178.8125 36.01875 177.64062 36.909374Q176.48438 37.784374 174.67188 37.784374Q172.40625 37.784374 171.0625 36.39375Q169.73438 34.9875 169.73438 32.45625Q169.73438 29.83125 171.07812 28.39375Q172.42188 26.940624 174.57812 26.940624Q176.65625 26.940624 177.96875 28.3625Q179.29688 29.76875 179.29688 32.346874Q179.29688 32.503124 179.28125 32.815624L171.54688 32.815624Q171.64062 34.51875 172.51562 35.425Q173.39062 36.33125 174.6875 36.33125Q175.65625 36.33125 176.32812 35.83125Q177.01562 35.315624 177.42188 34.20625ZM171.64062 31.3625L177.4375 31.3625Q177.32812 30.065624 176.78125 29.409374Q175.9375 28.39375 174.59375 28.39375Q173.39062 28.39375 172.5625 29.20625Q171.73438 30.003124 171.64062 31.3625ZM191.15625 35.971874L191.40625 37.534374Q190.67188 37.690624 190.07812 37.690624Q189.125 37.690624 188.59375 37.39375Q188.07812 37.08125 187.85938 36.596874Q187.64062 36.096874 187.64062 34.51875L187.64062 28.55L186.35938 28.55L186.35938 27.175L187.64062 27.175L187.64062 24.6125L189.39062 23.55L189.39062 27.175L191.15625 27.175L191.15625 28.55L189.39062 28.55L189.39062 34.6125Q189.39062 35.3625 189.48438 35.58125Q189.57812 35.784374 189.78125 35.925Q190.0 36.05 190.39062 36.05Q190.67188 36.05 191.15625 35.971874ZM200.09375 33.753124L201.8125 33.971874Q201.53125 35.76875 200.35938 36.784374Q199.20312 37.784374 197.5 37.784374Q195.375 37.784374 194.07812 36.39375Q192.78125 35.003124 192.78125 32.409374Q192.78125 30.721874 193.32812 29.471874Q193.89062 28.20625 195.03125 27.58125Q196.17188 26.940624 197.51562 26.940624Q199.20312 26.940624 200.26562 27.8Q201.34375 28.659374 201.65625 30.221874L199.9375 30.4875Q199.70312 29.440624 199.07812 28.925Q198.45312 28.39375 197.57812 28.39375Q196.25 28.39375 195.42188 29.346874Q194.59375 30.3 194.59375 32.346874Q194.59375 34.440624 195.39062 35.39375Q196.1875 36.33125 197.48438 36.33125Q198.51562 36.33125 199.20312 35.70625Q199.90625 35.065624 200.09375 33.753124ZM203.29688 37.55L203.29688 27.175L204.875 27.175L204.875 28.753124Q205.48438 27.64375 206.0 27.3Q206.51562 26.940624 207.125 26.940624Q208.01562 26.940624 208.9375 27.503124L208.32812 29.14375Q207.6875 28.753124 207.04688 28.753124Q206.46875 28.753124 206.0 29.1125Q205.54688 29.45625 205.34375 30.065624Q205.0625 31.003124 205.0625 32.1125L205.0625 37.55L203.29688 37.55ZM209.67188 32.3625Q209.67188 29.4875 211.26562 28.096874Q212.60938 26.940624 214.53125 26.940624Q216.67188 26.940624 218.01562 28.346874Q219.375 29.753124 219.375 32.221874Q219.375 34.221874 218.78125 35.378124Q218.1875 36.51875 217.03125 37.159374Q215.89062 37.784374 214.53125 37.784374Q212.34375 37.784374 211.0 36.39375Q209.67188 34.9875 209.67188 32.3625ZM211.46875 32.3625Q211.46875 34.3625 212.32812 35.346874Q213.20312 36.33125 214.53125 36.33125Q215.84375 36.33125 216.70312 35.346874Q217.57812 34.346874 217.57812 32.3Q217.57812 30.378124 216.70312 29.39375Q215.82812 28.39375 214.53125 28.39375Q213.20312 28.39375 212.32812 29.39375Q211.46875 30.378124 211.46875 32.3625ZM228.10938 37.55L228.10938 36.01875Q226.90625 37.784374 224.82812 37.784374Q223.90625 37.784374 223.10938 37.440624Q222.3125 37.08125 221.92188 36.55Q221.54688 36.01875 221.39062 35.2375Q221.28125 34.721874 221.28125 33.596874L221.28125 27.175L223.03125 27.175L223.03125 32.925Q223.03125 34.3 223.14062 34.784374Q223.3125 35.471874 223.84375 35.878124Q224.39062 36.26875 225.17188 36.26875Q225.96875 36.26875 226.65625 35.8625Q227.35938 35.45625 227.64062 34.76875Q227.9375 34.065624 227.9375 32.7375L227.9375 27.175L229.6875 27.175L229.6875 37.55L228.10938 37.55ZM230.39062 37.55L230.39062 36.128124L237.0 28.55Q235.875 28.596874 235.01562 28.596874L230.78125 28.596874L230.78125 27.175L239.26562 27.175L239.26562 28.346874L233.64062 34.925L232.5625 36.128124Q233.73438 36.034374 234.78125 36.034374L239.57812 36.034374L239.57812 37.55L230.39062 37.55ZM247.42188 34.20625L249.23438 34.440624Q248.8125 36.01875 247.64062 36.909374Q246.48438 37.784374 244.67188 37.784374Q242.40625 37.784374 241.0625 36.39375Q239.73438 34.9875 239.73438 32.45625Q239.73438 29.83125 241.07812 28.39375Q242.42188 26.940624 244.57812 26.940624Q246.65625 26.940624 247.96875 28.3625Q249.29688 29.76875 249.29688 32.346874Q249.29688 32.503124 249.28125 32.815624L241.54688 32.815624Q241.64062 34.51875 242.51562 35.425Q243.39062 36.33125 244.6875 36.33125Q245.65625 36.33125 246.32812 35.83125Q247.01562 35.315624 247.42188 34.20625ZM241.64062 31.3625L247.4375 31.3625Q247.32812 30.065624 246.78125 29.409374Q245.9375 28.39375 244.59375 28.39375Q243.39062 28.39375 242.5625 29.20625Q241.73438 30.003124 241.64062 31.3625ZM255.15625 35.971874L255.40625 37.534374Q254.67188 37.690624 254.07812 37.690624Q253.125 37.690624 252.59375 37.39375Q252.07812 37.08125 251.85938 36.596874Q251.64062 36.096874 251.64062 34.51875L251.64062 28.55L250.35938 28.55L250.35938 27.175L251.64062 27.175L251.64062 24.6125L253.39062 23.55L253.39062 27.175L255.15625 27.175L255.15625 28.55L253.39062 28.55L253.39062 34.6125Q253.39062 35.3625 253.48438 35.58125Q253.57812 35.784374 253.78125 35.925Q254.0 36.05 254.39062 36.05Q254.67188 36.05 255.15625 35.971874ZM257.8125 37.55L257.8125 35.55L259.8125 35.55L259.8125 37.55L257.8125 37.55ZM262.60938 34.45625L264.35938 34.175Q264.5 35.221874 265.17188 35.784374Q265.84375 36.33125 267.04688 36.33125Q268.25 36.33125 268.82812 35.846874Q269.42188 35.346874 269.42188 34.690624Q269.42188 34.096874 268.90625 33.753124Q268.54688 33.51875 267.10938 33.159374Q265.17188 32.659374 264.42188 32.315624Q263.6875 31.95625 263.29688 31.33125Q262.90625 30.690624 262.90625 29.925Q262.90625 29.2375 263.21875 28.64375Q263.54688 28.05 264.09375 27.659374Q264.5 27.3625 265.20312 27.159374Q265.92188 26.940624 266.73438 26.940624Q267.95312 26.940624 268.875 27.3Q269.79688 27.64375 270.23438 28.253124Q270.67188 28.846874 270.84375 29.846874L269.125 30.08125Q269.0 29.284374 268.4375 28.846874Q267.875 28.39375 266.85938 28.39375Q265.64062 28.39375 265.125 28.8Q264.60938 29.190624 264.60938 29.721874Q264.60938 30.065624 264.82812 30.346874Q265.03125 30.628124 265.5 30.815624Q265.76562 30.909374 267.04688 31.253124Q268.92188 31.753124 269.65625 32.08125Q270.39062 32.39375 270.8125 33.003124Q271.23438 33.596874 271.23438 34.503124Q271.23438 35.378124 270.71875 36.159374Q270.20312 36.940624 269.23438 37.3625Q268.26562 37.784374 267.04688 37.784374Q265.03125 37.784374 263.96875 36.940624Q262.90625 36.096874 262.60938 34.45625ZM280.10938 37.55L280.10938 36.01875Q278.90625 37.784374 276.82812 37.784374Q275.90625 37.784374 275.10938 37.440624Q274.3125 37.08125 273.92188 36.55Q273.54688 36.01875 273.39062 35.2375Q273.28125 34.721874 273.28125 33.596874L273.28125 27.175L275.03125 27.175L275.03125 32.925Q275.03125 34.3 275.14062 34.784374Q275.3125 35.471874 275.84375 35.878124Q276.39062 36.26875 277.17188 36.26875Q277.96875 36.26875 278.65625 35.8625Q279.35938 35.45625 279.64062 34.76875Q279.9375 34.065624 279.9375 32.7375L279.9375 27.175L281.6875 27.175L281.6875 37.55L280.10938 37.55ZM284.9375 37.55L283.3125 37.55L283.3125 23.2375L285.0625 23.2375L285.0625 28.346874Q286.1875 26.940624 287.90625 26.940624Q288.85938 26.940624 289.71875 27.33125Q290.57812 27.721874 291.125 28.425Q291.67188 29.1125 291.98438 30.096874Q292.29688 31.08125 292.29688 32.20625Q292.29688 34.878124 290.98438 36.33125Q289.67188 37.784374 287.82812 37.784374Q285.98438 37.784374 284.9375 36.253124L284.9375 37.55ZM284.92188 32.284374Q284.92188 34.14375 285.42188 34.9875Q286.26562 36.33125 287.67188 36.33125Q288.82812 36.33125 289.65625 35.33125Q290.5 34.33125 290.5 32.346874Q290.5 30.315624 289.6875 29.3625Q288.89062 28.39375 287.75 28.39375Q286.59375 28.39375 285.75 29.39375Q284.92188 30.39375 284.92188 32.284374ZM293.60938 34.45625L295.35938 34.175Q295.5 35.221874 296.17188 35.784374Q296.84375 36.33125 298.04688 36.33125Q299.25 36.33125 299.82812 35.846874Q300.42188 35.346874 300.42188 34.690624Q300.42188 34.096874 299.90625 33.753124Q299.54688 33.51875 298.10938 33.159374Q296.17188 32.659374 295.42188 32.315624Q294.6875 31.95625 294.29688 31.33125Q293.90625 30.690624 293.90625 29.925Q293.90625 29.2375 294.21875 28.64375Q294.54688 28.05 295.09375 27.659374Q295.5 27.3625 296.20312 27.159374Q296.92188 26.940624 297.73438 26.940624Q298.95312 26.940624 299.875 27.3Q300.79688 27.64375 301.23438 28.253124Q301.67188 28.846874 301.84375 29.846874L300.125 30.08125Q300.0 29.284374 299.4375 28.846874Q298.875 28.39375 297.85938 28.39375Q296.64062 28.39375 296.125 28.8Q295.60938 29.190624 295.60938 29.721874Q295.60938 30.065624 295.82812 30.346874Q296.03125 30.628124 296.5 30.815624Q296.76562 30.909374 298.04688 31.253124Q299.92188 31.753124 300.65625 32.08125Q301.39062 32.39375 301.8125 33.003124Q302.23438 33.596874 302.23438 34.503124Q302.23438 35.378124 301.71875 36.159374Q301.20312 36.940624 300.23438 37.3625Q299.26562 37.784374 298.04688 37.784374Q296.03125 37.784374 294.96875 36.940624Q293.90625 36.096874 293.60938 34.45625ZM308.15625 35.971874L308.40625 37.534374Q307.67188 37.690624 307.07812 37.690624Q306.125 37.690624 305.59375 37.39375Q305.07812 37.08125 304.85938 36.596874Q304.64062 36.096874 304.64062 34.51875L304.64062 28.55L303.35938 28.55L303.35938 27.175L304.64062 27.175L304.64062 24.6125L306.39062 23.55L306.39062 27.175L308.15625 27.175L308.15625 28.55L306.39062 28.55L306.39062 34.6125Q306.39062 35.3625 306.48438 35.58125Q306.57812 35.784374 306.78125 35.925Q307.0 36.05 307.39062 36.05Q307.67188 36.05 308.15625 35.971874ZM317.09375 36.26875Q316.10938 37.096874 315.20312 37.440624Q314.29688 37.784374 313.26562 37.784374Q311.5625 37.784374 310.64062 36.95625Q309.71875 36.1125 309.71875 34.815624Q309.71875 34.05 310.0625 33.425Q310.42188 32.8 310.98438 32.425Q311.54688 32.034374 312.25 31.83125Q312.76562 31.70625 313.8125 31.565624Q315.9375 31.315624 316.9375 30.971874Q316.95312 30.6125 316.95312 30.503124Q316.95312 29.440624 316.45312 28.9875Q315.78125 28.39375 314.45312 28.39375Q313.20312 28.39375 312.60938 28.83125Q312.03125 29.26875 311.75 30.378124L310.03125 30.14375Q310.26562 29.034374 310.79688 28.3625Q311.32812 27.675 312.34375 27.315624Q313.35938 26.940624 314.70312 26.940624Q316.03125 26.940624 316.85938 27.253124Q317.6875 27.565624 318.07812 28.05Q318.46875 28.51875 318.625 29.2375Q318.71875 29.690624 318.71875 30.8625L318.71875 33.20625Q318.71875 35.659374 318.82812 36.315624Q318.9375 36.95625 319.28125 37.55L317.4375 37.55Q317.17188 37.003124 317.09375 36.26875ZM316.9375 32.346874Q315.98438 32.7375 314.0625 33.003124Q312.98438 33.159374 312.53125 33.3625Q312.09375 33.55 311.84375 33.925Q311.59375 34.3 311.59375 34.76875Q311.59375 35.471874 312.125 35.940624Q312.65625 36.409374 313.6875 36.409374Q314.70312 36.409374 315.48438 35.971874Q316.28125 35.51875 316.65625 34.753124Q316.9375 34.14375 316.9375 32.9875L316.9375 32.346874ZM328.09375 33.753124L329.8125 33.971874Q329.53125 35.76875 328.35938 36.784374Q327.20312 37.784374 325.5 37.784374Q323.375 37.784374 322.07812 36.39375Q320.78125 35.003124 320.78125 32.409374Q320.78125 30.721874 321.32812 29.471874Q321.89062 28.20625 323.03125 27.58125Q324.17188 26.940624 325.51562 26.940624Q327.20312 26.940624 328.26562 27.8Q329.34375 28.659374 329.65625 30.221874L327.9375 30.4875Q327.70312 29.440624 327.07812 28.925Q326.45312 28.39375 325.57812 28.39375Q324.25 28.39375 323.42188 29.346874Q322.59375 30.3 322.59375 32.346874Q322.59375 34.440624 323.39062 35.39375Q324.1875 36.33125 325.48438 36.33125Q326.51562 36.33125 327.20312 35.70625Q327.90625 35.065624 328.09375 33.753124ZM331.32812 37.55L331.32812 23.2375L333.09375 23.2375L333.09375 31.39375L337.25 27.175L339.51562 27.175L335.5625 31.01875L339.92188 37.55L337.75 37.55L334.32812 32.253124L333.09375 33.440624L333.09375 37.55L331.32812 37.55ZM341.8125 37.55L341.8125 35.55L343.8125 35.55L343.8125 37.55L341.8125 37.55ZM354.09375 33.753124L355.8125 33.971874Q355.53125 35.76875 354.35938 36.784374Q353.20312 37.784374 351.5 37.784374Q349.375 37.784374 348.07812 36.39375Q346.78125 35.003124 346.78125 32.409374Q346.78125 30.721874 347.32812 29.471874Q347.89062 28.20625 349.03125 27.58125Q350.17188 26.940624 351.51562 26.940624Q353.20312 26.940624 354.26562 27.8Q355.34375 28.659374 355.65625 30.221874L353.9375 30.4875Q353.70312 29.440624 353.07812 28.925Q352.45312 28.39375 351.57812 28.39375Q350.25 28.39375 349.42188 29.346874Q348.59375 30.3 348.59375 32.346874Q348.59375 34.440624 349.39062 35.39375Q350.1875 36.33125 351.48438 36.33125Q352.51562 36.33125 353.20312 35.70625Q353.90625 35.065624 354.09375 33.753124ZM356.67188 32.3625Q356.67188 29.4875 358.26562 28.096874Q359.60938 26.940624 361.53125 26.940624Q363.67188 26.940624 365.01562 28.346874Q366.375 29.753124 366.375 32.221874Q366.375 34.221874 365.78125 35.378124Q365.1875 36.51875 364.03125 37.159374Q362.89062 37.784374 361.53125 37.784374Q359.34375 37.784374 358.0 36.39375Q356.67188 34.9875 356.67188 32.3625ZM358.46875 32.3625Q358.46875 34.3625 359.32812 35.346874Q360.20312 36.33125 361.53125 36.33125Q362.84375 36.33125 363.70312 35.346874Q364.57812 34.346874 364.57812 32.3Q364.57812 30.378124 363.70312 29.39375Q362.82812 28.39375 361.53125 28.39375Q360.20312 28.39375 359.32812 29.39375Q358.46875 30.378124 358.46875 32.3625ZM368.3125 37.55L368.3125 27.175L369.89062 27.175L369.89062 28.628124Q370.375 27.878124 371.1875 27.409374Q372.0 26.940624 373.03125 26.940624Q374.1875 26.940624 374.92188 27.425Q375.65625 27.89375 375.96875 28.753124Q377.20312 26.940624 379.17188 26.940624Q380.71875 26.940624 381.54688 27.8Q382.375 28.659374 382.375 30.425L382.375 37.55L380.625 37.55L380.625 31.01875Q380.625 29.95625 380.45312 29.503124Q380.28125 29.034374 379.82812 28.753124Q379.39062 28.471874 378.78125 28.471874Q377.6875 28.471874 376.95312 29.20625Q376.23438 29.925 376.23438 31.51875L376.23438 37.55L374.48438 37.55L374.48438 30.815624Q374.48438 29.64375 374.04688 29.065624Q373.625 28.471874 372.64062 28.471874Q371.90625 28.471874 371.26562 28.8625Q370.64062 29.253124 370.35938 30.003124Q370.07812 30.753124 370.07812 32.175L370.07812 37.55L368.3125 37.55ZM393.67188 41.753124Q392.21875 39.925 391.21875 37.471874Q390.21875 35.003124 390.21875 32.3625Q390.21875 30.034374 390.96875 27.909374Q391.84375 25.440624 393.67188 22.9875L394.9375 22.9875Q393.75 25.01875 393.375 25.89375Q392.78125 27.2375 392.4375 28.70625Q392.01562 30.534374 392.01562 32.378124Q392.01562 37.065624 394.9375 41.753124L393.67188 41.753124ZM397.3125 37.55L397.3125 23.2375L399.07812 23.2375L399.07812 28.3625Q400.3125 26.940624 402.1875 26.940624Q403.32812 26.940624 404.17188 27.39375Q405.03125 27.846874 405.39062 28.659374Q405.76562 29.45625 405.76562 30.971874L405.76562 37.55L404.01562 37.55L404.01562 30.971874Q404.01562 29.659374 403.4375 29.065624Q402.85938 28.45625 401.82812 28.45625Q401.04688 28.45625 400.34375 28.8625Q399.65625 29.26875 399.35938 29.971874Q399.07812 30.659374 399.07812 31.878124L399.07812 37.55L397.3125 37.55ZM406.67188 32.3625Q406.67188 29.4875 408.26562 28.096874Q409.60938 26.940624 411.53125 26.940624Q413.67188 26.940624 415.01562 28.346874Q416.375 29.753124 416.375 32.221874Q416.375 34.221874 415.78125 35.378124Q415.1875 36.51875 414.03125 37.159374Q412.89062 37.784374 411.53125 37.784374Q409.34375 37.784374 408.0 36.39375Q406.67188 34.9875 406.67188 32.3625ZM408.46875 32.3625Q408.46875 34.3625 409.32812 35.346874Q410.20312 36.33125 411.53125 36.33125Q412.84375 36.33125 413.70312 35.346874Q414.57812 34.346874 414.57812 32.3Q414.57812 30.378124 413.70312 29.39375Q412.82812 28.39375 411.53125 28.39375Q410.20312 28.39375 409.32812 29.39375Q408.46875 30.378124 408.46875 32.3625ZM418.29688 37.55L418.29688 27.175L419.875 27.175L419.875 28.753124Q420.48438 27.64375 421.0 27.3Q421.51562 26.940624 422.125 26.940624Q423.01562 26.940624 423.9375 27.503124L423.32812 29.14375Q422.6875 28.753124 422.04688 28.753124Q421.46875 28.753124 421.0 29.1125Q420.54688 29.45625 420.34375 30.065624Q420.0625 31.003124 420.0625 32.1125L420.0625 37.55L418.29688 37.55ZM424.60938 34.45625L426.35938 34.175Q426.5 35.221874 427.17188 35.784374Q427.84375 36.33125 429.04688 36.33125Q430.25 36.33125 430.82812 35.846874Q431.42188 35.346874 431.42188 34.690624Q431.42188 34.096874 430.90625 33.753124Q430.54688 33.51875 429.10938 33.159374Q427.17188 32.659374 426.42188 32.315624Q425.6875 31.95625 425.29688 31.33125Q424.90625 30.690624 424.90625 29.925Q424.90625 29.2375 425.21875 28.64375Q425.54688 28.05 426.09375 27.659374Q426.5 27.3625 427.20312 27.159374Q427.92188 26.940624 428.73438 26.940624Q429.95312 26.940624 430.875 27.3Q431.79688 27.64375 432.23438 28.253124Q432.67188 28.846874 432.84375 29.846874L431.125 30.08125Q431.0 29.284374 430.4375 28.846874Q429.875 28.39375 428.85938 28.39375Q427.64062 28.39375 427.125 28.8Q426.60938 29.190624 426.60938 29.721874Q426.60938 30.065624 426.82812 30.346874Q427.03125 30.628124 427.5 30.815624Q427.76562 30.909374 429.04688 31.253124Q430.92188 31.753124 431.65625 32.08125Q432.39062 32.39375 432.8125 33.003124Q433.23438 33.596874 433.23438 34.503124Q433.23438 35.378124 432.71875 36.159374Q432.20312 36.940624 431.23438 37.3625Q430.26562 37.784374 429.04688 37.784374Q427.03125 37.784374 425.96875 36.940624Q424.90625 36.096874 424.60938 34.45625ZM441.3125 37.55L441.3125 27.175L442.89062 27.175L442.89062 28.628124Q443.375 27.878124 444.1875 27.409374Q445.0 26.940624 446.03125 26.940624Q447.1875 26.940624 447.92188 27.425Q448.65625 27.89375 448.96875 28.753124Q450.20312 26.940624 452.17188 26.940624Q453.71875 26.940624 454.54688 27.8Q455.375 28.659374 455.375 30.425L455.375 37.55L453.625 37.55L453.625 31.01875Q453.625 29.95625 453.45312 29.503124Q453.28125 29.034374 452.82812 28.753124Q452.39062 28.471874 451.78125 28.471874Q450.6875 28.471874 449.95312 29.20625Q449.23438 29.925 449.23438 31.51875L449.23438 37.55L447.48438 37.55L447.48438 30.815624Q447.48438 29.64375 447.04688 29.065624Q446.625 28.471874 445.64062 28.471874Q444.90625 28.471874 444.26562 28.8625Q443.64062 29.253124 443.35938 30.003124Q443.07812 30.753124 443.07812 32.175L443.07812 37.55L441.3125 37.55ZM464.09375 36.26875Q463.10938 37.096874 462.20312 37.440624Q461.29688 37.784374 460.26562 37.784374Q458.5625 37.784374 457.64062 36.95625Q456.71875 36.1125 456.71875 34.815624Q456.71875 34.05 457.0625 33.425Q457.42188 32.8 457.98438 32.425Q458.54688 32.034374 459.25 31.83125Q459.76562 31.70625 460.8125 31.565624Q462.9375 31.315624 463.9375 30.971874Q463.95312 30.6125 463.95312 30.503124Q463.95312 29.440624 463.45312 28.9875Q462.78125 28.39375 461.45312 28.39375Q460.20312 28.39375 459.60938 28.83125Q459.03125 29.26875 458.75 30.378124L457.03125 30.14375Q457.26562 29.034374 457.79688 28.3625Q458.32812 27.675 459.34375 27.315624Q460.35938 26.940624 461.70312 26.940624Q463.03125 26.940624 463.85938 27.253124Q464.6875 27.565624 465.07812 28.05Q465.46875 28.51875 465.625 29.2375Q465.71875 29.690624 465.71875 30.8625L465.71875 33.20625Q465.71875 35.659374 465.82812 36.315624Q465.9375 36.95625 466.28125 37.55L464.4375 37.55Q464.17188 37.003124 464.09375 36.26875ZM463.9375 32.346874Q462.98438 32.7375 461.0625 33.003124Q459.98438 33.159374 459.53125 33.3625Q459.09375 33.55 458.84375 33.925Q458.59375 34.3 458.59375 34.76875Q458.59375 35.471874 459.125 35.940624Q459.65625 36.409374 460.6875 36.409374Q461.70312 36.409374 462.48438 35.971874Q463.28125 35.51875 463.65625 34.753124Q463.9375 34.14375 463.9375 32.9875L463.9375 32.346874ZM468.32812 25.253124L468.32812 23.2375L470.09375 23.2375L470.09375 25.253124L468.32812 25.253124ZM468.32812 37.55L468.32812 27.175L470.09375 27.175L470.09375 37.55L468.32812 37.55ZM472.28125 37.55L472.28125 23.2375L474.03125 23.2375L474.03125 37.55L472.28125 37.55ZM475.60938 34.45625L477.35938 34.175Q477.5 35.221874 478.17188 35.784374Q478.84375 36.33125 480.04688 36.33125Q481.25 36.33125 481.82812 35.846874Q482.42188 35.346874 482.42188 34.690624Q482.42188 34.096874 481.90625 33.753124Q481.54688 33.51875 480.10938 33.159374Q478.17188 32.659374 477.42188 32.315624Q476.6875 31.95625 476.29688 31.33125Q475.90625 30.690624 475.90625 29.925Q475.90625 29.2375 476.21875 28.64375Q476.54688 28.05 477.09375 27.659374Q477.5 27.3625 478.20312 27.159374Q478.92188 26.940624 479.73438 26.940624Q480.95312 26.940624 481.875 27.3Q482.79688 27.64375 483.23438 28.253124Q483.67188 28.846874 483.84375 29.846874L482.125 30.08125Q482.0 29.284374 481.4375 28.846874Q480.875 28.39375 479.85938 28.39375Q478.64062 28.39375 478.125 28.8Q477.60938 29.190624 477.60938 29.721874Q477.60938 30.065624 477.82812 30.346874Q478.03125 30.628124 478.5 30.815624Q478.76562 30.909374 480.04688 31.253124Q481.92188 31.753124 482.65625 32.08125Q483.39062 32.39375 483.8125 33.003124Q484.23438 33.596874 484.23438 34.503124Q484.23438 35.378124 483.71875 36.159374Q483.20312 36.940624 482.23438 37.3625Q481.26562 37.784374 480.04688 37.784374Q478.03125 37.784374 476.96875 36.940624Q475.90625 36.096874 475.60938 34.45625ZM487.46875 41.753124L486.21875 41.753124Q489.125 37.065624 489.125 32.378124Q489.125 30.534374 488.71875 28.7375Q488.375 27.26875 487.78125 25.925Q487.40625 25.034374 486.21875 22.9875L487.46875 22.9875Q489.3125 25.440624 490.1875 27.909374Q490.9375 30.034374 490.9375 32.3625Q490.9375 35.003124 489.92188 37.471874Q488.92188 39.925 487.46875 41.753124Z" fill-rule="nonzero"/></svg>